<svg width="51" height="50" viewBox="0 0 51 50" fill="none" xmlns="http://www.w3.org/2000/svg">
<path d="M25.3896 0.183105C11.5826 0.183105 0.389648 11.3761 0.389648 25.1831C0.389648 36.9071 8.46165 46.7451 19.3506 49.4471V32.8231H14.1956V25.1831H19.3506V21.8911C19.3506 13.3821 23.2016 9.43811 31.5556 9.43811C33.1396 9.43811 35.8726 9.74911 36.9906 10.0591V16.9841C36.4006 16.9221 35.3756 16.8911 34.1026 16.8911C30.0036 16.8911 28.4196 18.4441 28.4196 22.4811V25.1831H36.5856L35.1826 32.8231H28.4196V50.0001C40.7986 48.5051 50.3906 37.9651 50.3906 25.1831C50.3896 11.3761 39.1966 0.183105 25.3896 0.183105Z" fill="#EDECE9"/>
</svg>
