<svg width="51" height="50" viewBox="0 0 51 50" fill="none" xmlns="http://www.w3.org/2000/svg">
<path fill-rule="evenodd" clip-rule="evenodd" d="M25.5 50C39.3071 50 50.5 38.8071 50.5 25C50.5 11.1929 39.3071 0 25.5 0C11.6929 0 0.5 11.1929 0.5 25C0.5 38.8071 11.6929 50 25.5 50ZM32.3664 11.1609C30.5801 11.0812 30.0422 11.0613 25.5 11.0613C20.9578 11.0613 20.4199 11.0812 18.6336 11.1609C16.9801 11.234 16.077 11.5129 15.4793 11.7453C14.6891 12.0508 14.1246 12.416 13.527 13.0137C12.9359 13.6047 12.5641 14.1758 12.2586 14.966C12.0262 15.5637 11.7473 16.4602 11.6742 18.1203C11.5945 19.9066 11.5746 20.4445 11.5746 24.9867C11.5746 29.5223 11.5945 30.0602 11.6742 31.8531C11.7473 33.5066 12.0262 34.4098 12.2586 35.0074C12.5641 35.7977 12.9293 36.3621 13.527 36.9598C14.118 37.5508 14.6891 37.9227 15.4793 38.2281C16.077 38.4605 16.9734 38.7395 18.6336 38.8125C20.4199 38.8922 20.9578 38.9121 25.5 38.9121C30.0355 38.9121 30.5734 38.8922 32.3664 38.8125C34.0199 38.7395 34.923 38.4605 35.5207 38.2281C36.3109 37.9227 36.8754 37.5574 37.473 36.9598C38.0641 36.3688 38.4359 35.7977 38.7414 35.0074C38.9738 34.4098 39.2527 33.5133 39.3258 31.8531C39.4055 30.0668 39.4254 29.5289 39.4254 24.9867C39.4254 20.4512 39.4055 19.9133 39.3258 18.1203C39.2527 16.4668 38.9738 15.5637 38.7414 14.966C38.4359 14.1758 38.0707 13.6113 37.473 13.0137C36.882 12.4227 36.3109 12.0508 35.5207 11.7453C34.923 11.5129 34.0266 11.234 32.3664 11.1609ZM18.4941 8.09961C20.307 8.01992 20.8848 8 25.5 8C30.1152 8 30.693 8.01992 32.5125 8.10625C34.3188 8.18594 35.5539 8.47812 36.6363 8.89648C37.752 9.32812 38.7016 9.9125 39.6445 10.8555C40.5941 11.7984 41.1719 12.748 41.5902 13.877C42.0086 14.9527 42.3008 16.1945 42.3805 18.0008C42.4602 19.8137 42.4801 20.3914 42.4801 25.0066C42.4801 29.6219 42.4602 30.1996 42.3805 32.0125C42.3008 33.8188 42.0086 35.0539 41.5902 36.1363C41.1586 37.252 40.5742 38.2016 39.6312 39.1445C38.6883 40.0875 37.7387 40.6719 36.6231 41.1035C35.5473 41.5219 34.3055 41.8141 32.4992 41.8937C30.6863 41.9734 30.1086 41.9934 25.4934 41.9934C20.8781 41.9934 20.3004 41.9734 18.4875 41.8937C16.6812 41.8141 15.4461 41.5219 14.3637 41.1035C13.248 40.6719 12.2984 40.0875 11.3555 39.1445C10.4059 38.2016 9.82812 37.252 9.38984 36.1297C8.97148 35.0539 8.6793 33.8121 8.59961 32.0059C8.51992 30.193 8.5 29.6152 8.5 25C8.5 20.3848 8.51992 19.807 8.59961 17.9875C8.6793 16.1812 8.97148 14.9461 9.38984 13.8637C9.82812 12.748 10.4059 11.7984 11.3555 10.8555C12.2984 9.90586 13.248 9.32812 14.3703 8.88984C15.4461 8.47148 16.6879 8.1793 18.4941 8.09961ZM25.5 16.2676C20.6789 16.2676 16.7676 20.1789 16.7676 25C16.7676 29.8211 20.6789 33.7324 25.5 33.7324C30.3211 33.7324 34.2324 29.8211 34.2324 25C34.2324 20.1789 30.3211 16.2676 25.5 16.2676ZM25.5 30.6645C22.3723 30.6645 19.8355 28.1277 19.8355 25C19.8355 21.8723 22.3723 19.3355 25.5 19.3355C28.6277 19.3355 31.1645 21.8723 31.1645 25C31.1645 28.1277 28.6277 30.6645 25.5 30.6645ZM34.5777 17.9609C35.7 17.9609 36.6164 17.0511 36.6164 15.9222C36.6164 14.7999 35.7 13.8835 34.5777 13.8835C33.4555 13.8835 32.5391 14.7933 32.5391 15.9222C32.5391 17.0445 33.4488 17.9609 34.5777 17.9609Z" fill="#EDECE9"/>
</svg>
