<svg width="51" height="50" viewBox="0 0 51 50" fill="none" xmlns="http://www.w3.org/2000/svg">
<path fill-rule="evenodd" clip-rule="evenodd" d="M25.8208 50C39.6279 50 50.8208 38.8071 50.8208 25C50.8208 11.1929 39.6279 0 25.8208 0C12.0137 0 0.820801 11.1929 0.820801 25C0.820801 38.8071 12.0137 50 25.8208 50ZM32.6872 11.1609C30.9009 11.0812 30.363 11.0613 25.8208 11.0613C21.2786 11.0613 20.7407 11.0812 18.9544 11.1609C17.3009 11.234 16.3978 11.5129 15.8001 11.7453C15.0099 12.0508 14.4454 12.416 13.8478 13.0137C13.2567 13.6047 12.8849 14.1758 12.5794 14.966C12.347 15.5637 12.0681 16.4602 11.995 18.1203C11.9153 19.9066 11.8954 20.4445 11.8954 24.9867C11.8954 29.5223 11.9153 30.0602 11.995 31.8531C12.0681 33.5066 12.347 34.4098 12.5794 35.0074C12.8849 35.7977 13.2501 36.3621 13.8478 36.9598C14.4388 37.5508 15.0099 37.9227 15.8001 38.2281C16.3978 38.4605 17.2942 38.7395 18.9544 38.8125C20.7407 38.8922 21.2786 38.9121 25.8208 38.9121C30.3563 38.9121 30.8942 38.8922 32.6872 38.8125C34.3407 38.7395 35.2438 38.4605 35.8415 38.2281C36.6317 37.9227 37.1962 37.5574 37.7938 36.9598C38.3849 36.3688 38.7567 35.7977 39.0622 35.0074C39.2946 34.4098 39.5735 33.5133 39.6466 31.8531C39.7263 30.0668 39.7462 29.5289 39.7462 24.9867C39.7462 20.4512 39.7263 19.9133 39.6466 18.1203C39.5735 16.4668 39.2946 15.5637 39.0622 14.966C38.7567 14.1758 38.3915 13.6113 37.7938 13.0137C37.2028 12.4227 36.6317 12.0508 35.8415 11.7453C35.2438 11.5129 34.3474 11.234 32.6872 11.1609ZM18.8149 8.09961C20.6278 8.01992 21.2056 8 25.8208 8C30.436 8 31.0138 8.01992 32.8333 8.10625C34.6396 8.18594 35.8747 8.47812 36.9571 8.89648C38.0728 9.32812 39.0224 9.9125 39.9653 10.8555C40.9149 11.7984 41.4927 12.748 41.911 13.877C42.3294 14.9527 42.6216 16.1945 42.7013 18.0008C42.781 19.8137 42.8009 20.3914 42.8009 25.0066C42.8009 29.6219 42.781 30.1996 42.7013 32.0125C42.6216 33.8188 42.3294 35.0539 41.911 36.1363C41.4794 37.252 40.895 38.2016 39.952 39.1445C39.0091 40.0875 38.0595 40.6719 36.9439 41.1035C35.8681 41.5219 34.6263 41.8141 32.82 41.8937C31.0071 41.9734 30.4294 41.9934 25.8142 41.9934C21.1989 41.9934 20.6212 41.9734 18.8083 41.8937C17.0021 41.8141 15.7669 41.5219 14.6845 41.1035C13.5688 40.6719 12.6192 40.0875 11.6763 39.1445C10.7267 38.2016 10.1489 37.252 9.71064 36.1297C9.29228 35.0539 9.0001 33.8121 8.92041 32.0059C8.84072 30.193 8.8208 29.6152 8.8208 25C8.8208 20.3848 8.84072 19.807 8.92041 17.9875C9.0001 16.1812 9.29228 14.9461 9.71064 13.8637C10.1489 12.748 10.7267 11.7984 11.6763 10.8555C12.6192 9.90586 13.5688 9.32812 14.6911 8.88984C15.7669 8.47148 17.0087 8.1793 18.8149 8.09961ZM25.8208 16.2676C20.9997 16.2676 17.0884 20.1789 17.0884 25C17.0884 29.8211 20.9997 33.7324 25.8208 33.7324C30.6419 33.7324 34.5532 29.8211 34.5532 25C34.5532 20.1789 30.6419 16.2676 25.8208 16.2676ZM25.8208 30.6645C22.6931 30.6645 20.1563 28.1277 20.1563 25C20.1563 21.8723 22.6931 19.3355 25.8208 19.3355C28.9485 19.3355 31.4853 21.8723 31.4853 25C31.4853 28.1277 28.9485 30.6645 25.8208 30.6645ZM34.8985 17.9609C36.0208 17.9609 36.9372 17.0511 36.9372 15.9222C36.9372 14.7999 36.0208 13.8835 34.8985 13.8835C33.7763 13.8835 32.8599 14.7933 32.8599 15.9222C32.8599 17.0445 33.7696 17.9609 34.8985 17.9609Z" fill="#2B2727"/>
</svg>
