<svg width="51" height="50" viewBox="0 0 51 50" fill="none" xmlns="http://www.w3.org/2000/svg">
<path fill-rule="evenodd" clip-rule="evenodd" d="M25.687 50C39.4941 50 50.687 38.8071 50.687 25C50.687 11.1929 39.4941 0 25.687 0C11.8799 0 0.687012 11.1929 0.687012 25C0.687012 38.8071 11.8799 50 25.687 50ZM27.1003 8.5H32.6617C32.6617 12.7087 35.9416 16.1522 40.1245 16.2957V21.9392C37.4151 21.8913 34.8483 20.9826 32.7568 19.4522V30.9782C32.7568 36.7652 28.0985 41.5 22.3469 41.5C16.5953 41.5 11.937 36.8131 11.937 30.9782C11.937 25.1913 16.5002 20.5522 22.1568 20.4565V26.1C19.5899 26.1956 17.4985 28.3479 17.4985 30.9782C17.4985 33.6565 19.6375 35.8565 22.2994 35.8565C24.9613 35.8565 27.1003 33.6565 27.1003 30.9782V8.5Z" fill="#EDECE9"/>
</svg>
