<svg width="50" height="50" viewBox="0 0 50 50" fill="none" xmlns="http://www.w3.org/2000/svg">
<path fill-rule="evenodd" clip-rule="evenodd" d="M25 50C38.8071 50 50 38.8071 50 25C50 11.1929 38.8071 0 25 0C11.1929 0 0 11.1929 0 25C0 38.8071 11.1929 50 25 50ZM26.4132 8.5H31.9747C31.9747 12.7087 35.2546 16.1522 39.4375 16.2957V21.9392C36.728 21.8913 34.1613 20.9826 32.0697 19.4522V30.9782C32.0697 36.7652 27.4114 41.5 21.6599 41.5C15.9083 41.5 11.25 36.8131 11.25 30.9782C11.25 25.1913 15.8132 20.5522 21.4698 20.4565V26.1C18.9029 26.1956 16.8114 28.3479 16.8114 30.9782C16.8114 33.6565 18.9505 35.8565 21.6124 35.8565C24.2743 35.8565 26.4132 33.6565 26.4132 30.9782V8.5Z" fill="#2B2727"/>
</svg>
