<svg width="51" height="51" viewBox="0 0 51 51" fill="none" xmlns="http://www.w3.org/2000/svg">
<path fill-rule="evenodd" clip-rule="evenodd" d="M0.784158 10.609C1.01296 10.1019 1.51769 9.77588 2.07405 9.77588H39.6593C40.2157 9.77588 40.7204 10.1019 40.9492 10.609C41.178 11.1162 41.0884 11.7103 40.7203 12.1274L21.9276 33.4179C21.659 33.7222 21.2726 33.8966 20.8667 33.8966C20.4608 33.8966 20.0744 33.7222 19.8058 33.4179L1.01313 12.1274C0.644957 11.7103 0.55536 11.1162 0.784158 10.609ZM36.5228 12.606H5.2106L20.8667 30.3431L36.5228 12.606Z" fill="black"/>
<path fill-rule="evenodd" clip-rule="evenodd" d="M20.8672 31.0664C21.6488 31.0664 22.2823 31.7 22.2823 32.4815V49C22.2823 49.7815 21.6488 50.4151 20.8672 50.4151C20.0857 50.4151 19.4521 49.7815 19.4521 49V32.4815C19.4521 31.7 20.0857 31.0664 20.8672 31.0664Z" fill="black"/>
<path fill-rule="evenodd" clip-rule="evenodd" d="M7.04883 49C7.04883 48.2185 7.68238 47.585 8.46392 47.585H33.2702C34.0518 47.585 34.6853 48.2185 34.6853 49C34.6853 49.7816 34.0518 50.4151 33.2702 50.4151H8.46392C7.68238 50.4151 7.04883 49.7816 7.04883 49Z" fill="black"/>
<path fill-rule="evenodd" clip-rule="evenodd" d="M12.1226 23.4874C12.1226 22.7058 12.7561 22.0723 13.5376 22.0723H28.1959C28.9774 22.0723 29.611 22.7058 29.611 23.4874C29.611 24.2689 28.9774 24.9024 28.1959 24.9024H13.5376C12.7561 24.9024 12.1226 24.2689 12.1226 23.4874Z" fill="black"/>
<path fill-rule="evenodd" clip-rule="evenodd" d="M41.2597 3.3991C39.6685 3.08999 38.0196 3.24892 36.5227 3.85446C35.0261 4.45989 33.7523 5.48299 32.8586 6.78925C31.9652 8.09509 31.4906 9.62671 31.4906 11.1906C31.4906 11.9722 30.857 12.6057 30.0755 12.6057C29.294 12.6057 28.6604 11.9722 28.6604 11.1906C28.6604 9.05188 29.3099 6.96401 30.5228 5.1912C31.7354 3.41881 33.4553 2.04236 35.4613 1.23085C37.467 0.419446 39.6723 0.207632 41.7994 0.62087C43.9267 1.03414 45.8852 2.05506 47.4255 3.55942C48.9663 5.06416 50.0194 6.98537 50.4464 9.08207C50.8735 11.179 50.654 13.3522 49.8172 15.3253C48.9805 17.2979 47.5661 18.9786 45.7578 20.1587C43.9499 21.3385 41.8278 21.9662 39.6597 21.9662H39.6529V21.9662C37.0095 21.9534 34.4613 20.9753 32.5104 19.2159C31.9301 18.6925 31.8839 17.7977 32.4073 17.2174C32.9307 16.637 33.8255 16.5908 34.4059 17.1142C35.8334 18.4016 37.7082 19.1258 39.6632 19.136C41.285 19.1354 42.8677 18.6652 44.2111 17.7885C45.5551 16.9115 46.5975 15.6683 47.2116 14.2202C47.8256 12.7725 47.9857 11.1815 47.6732 9.64688C47.3606 8.11207 46.5881 6.69759 45.4481 5.58415C44.3077 4.47034 42.8507 3.70818 41.2597 3.3991Z" fill="black"/>
</svg>
