<svg width="51" height="51" viewBox="0 0 51 51" fill="none" xmlns="http://www.w3.org/2000/svg">
<path fill-rule="evenodd" clip-rule="evenodd" d="M7.36095 3.94456C6.02414 4.89039 4.92591 6.15732 4.16342 7.64009C3.39189 9.14044 2.98861 10.8144 2.99081 12.5153L2.99072 12.5328C2.97221 14.2034 3.36708 15.8497 4.13607 17.3169C4.90496 18.7839 6.02153 20.0218 7.37759 20.9178C7.77407 21.1797 8.0126 21.6232 8.0126 22.0984V47.5848H42.3079V22.0984C42.3079 21.6363 42.5336 21.2032 42.9125 20.9385C44.2489 20.0047 45.3504 18.7512 46.1206 17.2815C46.8871 15.8191 47.3023 14.187 47.3295 12.5225C47.289 10.8281 46.8668 9.16778 46.0978 7.67229C45.3834 6.28314 44.3887 5.07275 43.1846 4.12027C43.06 4.08757 42.9398 4.03785 42.8277 3.97207C42.0074 3.49087 41.0813 3.24126 40.1421 3.24528L40.136 3.24529H9.9991C9.07789 3.24135 8.16944 3.48136 7.36095 3.94456ZM10.008 0.4151C8.55868 0.409481 7.13555 0.795272 5.88151 1.53089C5.84915 1.54987 5.81756 1.57012 5.78682 1.59161C4.04619 2.80822 2.62582 4.44141 1.64652 6.34581C0.668619 8.24747 0.159228 10.3636 0.160614 12.5102C0.13842 14.6431 0.642947 16.7488 1.62932 18.6307C2.4956 20.2835 3.70951 21.7178 5.18241 22.8302V48.9999C5.18241 49.7815 5.81597 50.415 6.5975 50.415H43.723C44.5046 50.415 45.1381 49.7815 45.1381 48.9999V22.8091C46.5778 21.6727 47.7671 20.2368 48.6274 18.5954C49.6053 16.7296 50.1302 14.6516 50.1598 12.5369C50.16 12.5201 50.1599 12.5032 50.1596 12.4864C50.1134 10.3565 49.5851 8.26518 48.6147 6.37801C47.6442 4.49072 46.2573 2.8579 44.5611 1.61123C44.3771 1.47604 44.1642 1.38801 43.9407 1.35322C42.7667 0.733319 41.461 0.409952 40.1332 0.4151H10.008Z" fill="black"/>
<path fill-rule="evenodd" clip-rule="evenodd" d="M16.2921 9.64469C16.9625 10.0463 17.1805 10.9154 16.7789 11.5858L15.3441 13.9812C14.9425 14.6516 14.0735 14.8696 13.403 14.468C12.7325 14.0664 12.5146 13.1973 12.9162 12.5269L14.351 10.1315C14.7526 9.46105 15.6216 9.2431 16.2921 9.64469Z" fill="black"/>
<path fill-rule="evenodd" clip-rule="evenodd" d="M24.2802 19.0826C24.9283 18.6458 25.8078 18.8171 26.2445 19.4652L27.8587 21.8606C28.2955 22.5087 28.1241 23.3882 27.476 23.8249C26.8279 24.2617 25.9484 24.0903 25.5117 23.4422L23.8975 21.0469C23.4607 20.3988 23.6321 19.5193 24.2802 19.0826Z" fill="black"/>
<path fill-rule="evenodd" clip-rule="evenodd" d="M34.9322 9.30403C35.6887 9.50038 36.1427 10.2728 35.9464 11.0293L35.229 13.7931C35.0326 14.5496 34.2602 15.0036 33.5038 14.8073C32.7473 14.6109 32.2932 13.8385 32.4896 13.0821L33.207 10.3182C33.4033 9.56175 34.1757 9.10768 34.9322 9.30403Z" fill="black"/>
<path fill-rule="evenodd" clip-rule="evenodd" d="M32.9029 34.2401C33.3205 34.9007 33.1236 35.7748 32.463 36.1924L30.1314 37.6665C29.4709 38.0841 28.5968 37.8872 28.1791 37.2266C27.7615 36.566 27.9584 35.6919 28.619 35.2743L30.9506 33.8002C31.6111 33.3826 32.4852 33.5795 32.9029 34.2401Z" fill="black"/>
<path fill-rule="evenodd" clip-rule="evenodd" d="M18.4346 30.6333C19.2162 30.6333 19.8497 31.2669 19.8497 32.0484V34.9965C19.8497 35.778 19.2162 36.4116 18.4346 36.4116C17.6531 36.4116 17.0195 35.778 17.0195 34.9965V32.0484C17.0195 31.2669 17.6531 30.6333 18.4346 30.6333Z" fill="black"/>
</svg>
