<svg width="51" height="51" viewBox="0 0 51 51" fill="none" xmlns="http://www.w3.org/2000/svg">
<path fill-rule="evenodd" clip-rule="evenodd" d="M0.660645 48.9996C0.660645 48.218 1.2942 47.5845 2.07574 47.5845H49.2455C50.0271 47.5845 50.6606 48.218 50.6606 48.9996C50.6606 49.7811 50.0271 50.4147 49.2455 50.4147H2.07574C1.2942 50.4147 0.660645 49.7811 0.660645 48.9996Z" fill="black"/>
<path fill-rule="evenodd" clip-rule="evenodd" d="M25.7302 22.8121L25.7448 22.812C31.1004 22.8252 36.2659 24.8435 40.3219 28.4888C44.3761 32.1324 47.058 37.1629 47.9075 42.6761C48.0266 43.4485 47.4969 44.1711 46.7245 44.2902C45.952 44.4092 45.2294 43.8795 45.1104 43.1071C44.3572 38.2194 41.9833 33.7871 38.4301 30.5938C34.8805 27.4037 30.3846 25.6555 25.7452 25.6422C21.0909 25.6808 16.5852 27.4367 13.0131 30.6223C9.43742 33.8111 7.02338 38.2325 6.20864 43.1241C6.08024 43.895 5.35119 44.4158 4.58028 44.2874C3.80936 44.159 3.28851 43.43 3.41691 42.6591C4.33436 37.1508 7.05724 32.1416 11.1294 28.51C15.2032 24.8769 20.3692 22.8544 25.7302 22.8121ZM25.7414 24.227L25.7414 24.2271L25.7414 24.227Z" fill="black"/>
<path fill-rule="evenodd" clip-rule="evenodd" d="M25.741 16.6495C24.2799 16.6495 22.9703 17.9201 22.9703 19.646C22.9703 21.372 24.2799 22.6426 25.741 22.6426C27.202 22.6426 28.5116 21.372 28.5116 19.646C28.5116 17.9201 27.202 16.6495 25.741 16.6495ZM20.1401 19.646C20.1401 16.499 22.5786 13.8193 25.741 13.8193C28.9034 13.8193 31.3418 16.499 31.3418 19.646C31.3418 22.793 28.9034 25.4728 25.741 25.4728C22.5786 25.4728 20.1401 22.7931 20.1401 19.646Z" fill="black"/>
<path fill-rule="evenodd" clip-rule="evenodd" d="M25.7413 0.415039C26.5228 0.415039 27.1564 1.0486 27.1564 1.83014V8.10815C27.1564 8.88969 26.5228 9.52326 25.7413 9.52326C24.9597 9.52326 24.3262 8.88969 24.3262 8.10815V1.83014C24.3262 1.0486 24.9597 0.415039 25.7413 0.415039Z" fill="black"/>
<path fill-rule="evenodd" clip-rule="evenodd" d="M13.3448 4.65723C14.1263 4.65723 14.7599 5.29079 14.7599 6.07233V12.1807C14.7599 12.9622 14.1263 13.5958 13.3448 13.5958C12.5632 13.5958 11.9297 12.9622 11.9297 12.1807V6.07233C11.9297 5.29079 12.5632 4.65723 13.3448 4.65723Z" fill="black"/>
<path fill-rule="evenodd" clip-rule="evenodd" d="M38.1373 4.65723C38.9188 4.65723 39.5524 5.29079 39.5524 6.07233V12.1807C39.5524 12.9622 38.9188 13.5958 38.1373 13.5958C37.3557 13.5958 36.7222 12.9622 36.7222 12.1807V6.07233C36.7222 5.29079 37.3557 4.65723 38.1373 4.65723Z" fill="black"/>
</svg>
