<svg width="51" height="51" viewBox="0 0 51 51" fill="none" xmlns="http://www.w3.org/2000/svg">
<path fill-rule="evenodd" clip-rule="evenodd" d="M0.908691 19.3609C0.908691 18.5794 1.54225 17.9458 2.32379 17.9458H39.8087C40.5902 17.9458 41.2238 18.5794 41.2238 19.3609V37.6141C41.2238 41.0057 39.8868 44.2604 37.5036 46.6619C35.1201 49.0636 31.885 50.415 28.5094 50.415H13.8024C10.4268 50.415 7.19173 49.0636 4.80818 46.6619C2.42498 44.2604 1.08805 41.0057 1.08805 37.6141V20.0509C0.973811 19.8468 0.908691 19.6114 0.908691 19.3609ZM3.91825 20.776V37.6141C3.91825 40.262 4.96221 42.7992 6.81706 44.6683C8.67157 46.537 11.1845 47.5849 13.8024 47.5849H28.5094C31.1273 47.5849 33.6403 46.537 35.4948 44.6683C37.3496 42.7992 38.3936 40.262 38.3936 37.6141V20.776H3.91825Z" fill="black"/>
<path fill-rule="evenodd" clip-rule="evenodd" d="M10.0362 2.58398C10.8177 2.58398 11.4513 3.21754 11.4513 3.99907V10.6859C11.4513 11.4675 10.8177 12.101 10.0362 12.101C9.25466 12.101 8.62109 11.4675 8.62109 10.6859V3.99907C8.62109 3.21754 9.25466 2.58398 10.0362 2.58398Z" fill="black"/>
<path fill-rule="evenodd" clip-rule="evenodd" d="M32.0967 2.40332C32.8783 2.40332 33.5118 3.03688 33.5118 3.81841V10.8666C33.5118 11.6482 32.8783 12.2817 32.0967 12.2817C31.3152 12.2817 30.6816 11.6482 30.6816 10.8666V3.81841C30.6816 3.03688 31.3152 2.40332 32.0967 2.40332Z" fill="black"/>
<path fill-rule="evenodd" clip-rule="evenodd" d="M20.9769 0.415039C21.7584 0.415039 22.392 1.04859 22.392 1.83012V8.15553C22.392 8.93706 21.7584 9.57061 20.9769 9.57061C20.1953 9.57061 19.5618 8.93706 19.5618 8.15553V1.83012C19.5618 1.04859 20.1953 0.415039 20.9769 0.415039Z" fill="black"/>
<path fill-rule="evenodd" clip-rule="evenodd" d="M38.3933 23.3365C38.3933 22.5549 39.0269 21.9214 39.8084 21.9214H49.4935C50.275 21.9214 50.9086 22.5549 50.9086 23.3365V30.5655C50.9086 32.7587 50.0441 34.8643 48.5018 36.4184C46.9591 37.9729 44.8644 38.8481 42.6781 38.8481H39.8084C39.0269 38.8481 38.3933 38.2146 38.3933 37.4331V23.3365ZM41.2235 24.7516V36.018H42.6781C44.1069 36.018 45.4793 35.4462 46.4929 34.4248C47.5068 33.4031 48.0784 32.0151 48.0784 30.5655V24.7516H41.2235Z" fill="black"/>
<path fill-rule="evenodd" clip-rule="evenodd" d="M17.4092 27.6744C17.4092 26.8928 18.0427 26.2593 18.8243 26.2593H30.1236C30.9051 26.2593 31.5387 26.8928 31.5387 27.6744V39.0602C31.5387 39.8417 30.9051 40.4753 30.1236 40.4753H18.8243C18.0427 40.4753 17.4092 39.8417 17.4092 39.0602V27.6744ZM20.2394 29.0894V37.6451H28.7085V29.0894H20.2394Z" fill="black"/>
<path fill-rule="evenodd" clip-rule="evenodd" d="M24.3843 17.9458C25.1659 17.9458 25.7994 18.5794 25.7994 19.3609V27.6742C25.7994 28.4558 25.1659 29.0893 24.3843 29.0893C23.6028 29.0893 22.9692 28.4558 22.9692 27.6742V19.3609C22.9692 18.5794 23.6028 17.9458 24.3843 17.9458Z" fill="black"/>
</svg>
