<svg width="51" height="51" viewBox="0 0 51 51" fill="none" xmlns="http://www.w3.org/2000/svg">
<path fill-rule="evenodd" clip-rule="evenodd" d="M2.46623 26.8603C2.73161 26.5949 3.09154 26.4458 3.46684 26.4458H49.4952C49.8705 26.4458 50.2304 26.5949 50.4958 26.8603C50.7612 27.1257 50.9103 27.4856 50.9103 27.8609C50.9103 33.8833 48.3046 39.6321 43.7118 43.8507C39.123 48.0656 32.9231 50.4151 26.481 50.4151C20.039 50.4151 13.8391 48.0656 9.25028 43.8507C4.65745 39.6321 2.05176 33.8833 2.05176 27.8609C2.05176 27.4856 2.20085 27.1257 2.46623 26.8603ZM4.93761 29.276C5.30626 33.9538 7.49413 38.3947 11.1648 41.7663C15.208 45.4801 20.7156 47.5849 26.481 47.5849C32.2464 47.5849 37.754 45.4801 41.7972 41.7663C45.4679 38.3947 47.6558 33.9538 48.0244 29.276H4.93761Z" fill="black"/>
<path fill-rule="evenodd" clip-rule="evenodd" d="M18.3971 13.9601C16.224 13.9601 14.1405 14.6839 12.5304 15.974C10.9228 17.2621 9.90264 19.0193 9.62103 20.907C9.5057 21.6799 8.7856 22.2131 8.01262 22.0977C7.23965 21.9824 6.70651 21.2623 6.82183 20.4893C7.21428 17.8588 8.62687 15.4751 10.7607 13.7653C12.892 12.0577 15.6054 11.1299 18.3971 11.1299C21.1889 11.1299 23.9022 12.0577 26.0335 13.7653C28.1674 15.4751 29.5799 17.8588 29.9724 20.4893C30.0877 21.2623 29.5546 21.9824 28.7816 22.0977C28.0086 22.2131 27.2885 21.6799 27.1732 20.907C26.8916 19.0193 25.8714 17.2621 24.2638 15.974C22.6537 14.6839 20.5703 13.9601 18.3971 13.9601Z" fill="black"/>
<path fill-rule="evenodd" clip-rule="evenodd" d="M32.9417 8.31174C31.0409 8.3047 29.1634 8.67067 27.4359 9.382C25.7084 10.0933 24.1753 11.1314 22.9349 12.4203C22.393 12.9834 21.4971 13.0005 20.934 12.4585C20.3709 11.9166 20.3538 11.0208 20.8958 10.4577C22.417 8.87701 24.2808 7.62037 26.3583 6.76496C28.4348 5.90996 30.6815 5.4735 32.9495 5.48155C35.0842 5.48172 37.2002 5.871 39.1756 6.62929C41.152 7.38792 42.9522 8.50235 44.4689 9.91336C45.9859 11.3246 47.1898 13.0052 48.0041 14.8612C48.8186 16.7176 49.2255 18.7088 49.1975 20.718C49.1866 21.4995 48.5442 22.1241 47.7628 22.1132C46.9813 22.1023 46.3567 21.46 46.3676 20.6785C46.3899 19.0794 46.0665 17.489 45.4124 15.9984C44.7582 14.5073 43.7845 13.1422 42.5412 11.9855C41.2977 10.8287 39.8099 9.90431 38.1614 9.27152C36.5128 8.63869 34.7401 8.31162 32.947 8.31175L32.9417 8.31174Z" fill="black"/>
<path fill-rule="evenodd" clip-rule="evenodd" d="M32.1622 15.3C30.5264 15.2718 28.9513 15.7949 27.7321 16.7473C27.1163 17.2285 26.227 17.1192 25.7458 16.5034C25.2647 15.8875 25.3739 14.9982 25.9898 14.517C27.7352 13.1534 29.9432 12.4339 32.1986 12.47C34.7147 12.4724 37.151 13.3768 38.9832 15.0214C40.8221 16.6722 41.9101 18.9448 41.97 21.3624C41.9893 22.1437 41.3716 22.7927 40.5903 22.8121C39.809 22.8314 39.16 22.2137 39.1407 21.4324C39.1011 19.8334 38.3819 18.2849 37.0926 17.1276C35.7996 15.9669 34.0403 15.2998 32.1869 15.3002L32.1622 15.3Z" fill="black"/>
<path fill-rule="evenodd" clip-rule="evenodd" d="M2.59097 0.899307C3.10506 0.310658 3.999 0.25022 4.58765 0.764315L16.1898 10.8971C16.7785 11.4112 16.8389 12.3052 16.3248 12.8938C15.8107 13.4825 14.9168 13.5429 14.3281 13.0288L2.72596 2.896C2.13732 2.38191 2.07688 1.48796 2.59097 0.899307Z" fill="black"/>
<path fill-rule="evenodd" clip-rule="evenodd" d="M1.25556 10.5122C1.7672 9.92137 2.66088 9.85721 3.25166 10.3688L9.90865 16.1341C10.4994 16.6457 10.5636 17.5394 10.052 18.1302C9.54032 18.721 8.64664 18.7851 8.05586 18.2735L1.39887 12.5083C0.80809 11.9966 0.74393 11.1029 1.25556 10.5122Z" fill="black"/>
</svg>
