<svg width="51" height="51" viewBox="0 0 51 51" fill="none" xmlns="http://www.w3.org/2000/svg">
<path fill-rule="evenodd" clip-rule="evenodd" d="M35.5705 1.39975C35.7899 0.713127 36.4902 0.301076 37.197 0.442888C39.0291 0.810529 40.7358 1.62394 42.1463 2.81074C43.5573 3.99796 44.6245 5.5194 45.233 7.23004C45.2419 7.25524 45.2502 7.28069 45.2577 7.30636C45.6689 8.70989 45.8787 10.1602 45.8808 11.6182C45.8809 11.6931 45.8751 11.768 45.8633 11.8421C45.4474 14.4618 44.0564 16.8376 41.9644 18.5505C39.8742 20.2619 37.218 21.2038 34.4757 21.2232L34.4657 21.2232V21.2232H12.579L12.5518 21.223C10.5674 21.1849 8.66297 20.411 7.25567 19.0454C5.80735 17.6501 4.96768 15.7658 4.93766 13.7775L4.9375 13.7568C4.9366 11.7871 5.75024 9.91154 7.178 8.5238C8.60314 7.13859 10.5282 6.34555 12.5397 6.28972C12.5528 6.28935 12.5659 6.28917 12.579 6.28917H27.862C27.8821 6.28917 27.9023 6.2896 27.9224 6.29046C29.1918 6.34473 30.4539 6.10963 31.601 5.60817C32.7425 5.10911 33.7324 4.36285 34.4924 3.4387C34.9741 2.81835 35.3377 2.1286 35.5705 1.39975ZM37.7589 3.52315C37.4708 4.11173 37.1206 4.6712 36.7135 5.19286C36.7067 5.20153 36.6998 5.21013 36.6929 5.21864C35.6401 6.50468 34.2808 7.52542 32.7347 8.20135C31.1983 8.87304 29.5179 9.18668 27.8328 9.11934H12.5998C11.2813 9.16046 10.0464 9.68258 9.15061 10.5533C8.25587 11.4229 7.76999 12.5691 7.7677 13.7452C7.78872 14.9516 8.29907 16.1215 9.22075 17.0086L9.2253 17.013C10.0986 17.8612 11.3066 18.3652 12.5933 18.393H34.4607C36.5716 18.377 38.5961 17.6506 40.1714 16.3607C41.716 15.096 42.7257 13.3756 43.0499 11.5078C43.0379 10.3711 42.8711 9.23978 42.5531 8.14142C42.1156 6.93242 41.3512 5.84045 40.3242 4.97631C39.5742 4.34528 38.7036 3.85235 37.7589 3.52315Z" fill="black"/>
<path fill-rule="evenodd" clip-rule="evenodd" d="M9.18305 21.2237C5.80584 21.2237 3.23961 23.7538 3.23961 26.6705C3.23961 29.5871 5.80584 32.1172 9.18305 32.1172H41.6358C45.013 32.1172 47.5792 29.5871 47.5792 26.6705C47.5792 23.7538 45.013 21.2237 41.6358 21.2237H9.18305ZM0.409424 26.6705C0.409424 22.0077 4.43231 18.3936 9.18305 18.3936H41.6358C46.3865 18.3936 50.4094 22.0077 50.4094 26.6705C50.4094 31.3332 46.3865 34.9474 41.6358 34.9474H9.18305C4.43231 34.9474 0.409424 31.3332 0.409424 26.6705Z" fill="black"/>
<path fill-rule="evenodd" clip-rule="evenodd" d="M7.17991 32.5756C7.4485 32.2723 7.8342 32.0986 8.23932 32.0986H42.3902C42.7953 32.0986 43.181 32.2723 43.4496 32.5756C43.7182 32.8789 43.8439 33.2827 43.7949 33.6849L41.9081 49.1707C41.8216 49.8808 41.2188 50.4146 40.5034 50.4146H10.1261C9.41077 50.4146 8.80792 49.8808 8.72141 49.1707L6.83461 33.6849C6.78562 33.2827 6.91133 32.8789 7.17991 32.5756ZM9.83729 34.9288L11.3793 47.5845H39.2503L40.7922 34.9288H9.83729Z" fill="black"/>
<path fill-rule="evenodd" clip-rule="evenodd" d="M20.6924 39.7534C21.474 39.7534 22.1075 40.387 22.1075 41.1685V49.0004C22.1075 49.7819 21.474 50.4155 20.6924 50.4155C19.9109 50.4155 19.2773 49.7819 19.2773 49.0004V41.1685C19.2773 40.387 19.9109 39.7534 20.6924 39.7534Z" fill="black"/>
<path fill-rule="evenodd" clip-rule="evenodd" d="M30.1265 39.7534C30.9081 39.7534 31.5416 40.387 31.5416 41.1685V49.0004C31.5416 49.7819 30.9081 50.4155 30.1265 50.4155C29.345 50.4155 28.7114 49.7819 28.7114 49.0004V41.1685C28.7114 40.387 29.345 39.7534 30.1265 39.7534Z" fill="black"/>
</svg>
