<svg width="51" height="51" viewBox="0 0 51 51" fill="none" xmlns="http://www.w3.org/2000/svg">
<path d="M50.7539 23.2817H34.836L49.3984 17.2285L47.9137 13.6534L34.4487 19.2548L44.8024 8.91667L42.0656 6.18048L30.8081 17.435L36.8887 2.6699L33.3256 1.19855L27.6839 14.8537V0.217651H23.8239V15.783L17.7562 1.22436L14.1931 2.70862L20.0413 16.7768L9.44226 6.18048L6.70537 8.91667L17.3689 19.5646L3.20679 13.7308L1.73506 17.3059L16.2458 23.2817H0.753906V27.1536H15.4841L1.76088 32.8583L3.24552 36.4334L17.9112 30.3286L6.70537 41.5186L9.44226 44.2548L19.8605 33.8521L14.2706 47.4169L17.8337 48.8883L23.8239 34.3813V50.2177H27.6839V35.1428L33.403 48.8625L36.9661 47.3782L31.118 33.3101L42.0656 44.2548L44.8024 41.5186L33.7903 30.5222L47.9525 36.356L49.4242 32.7809L35.7655 27.1536H50.7539V23.2817Z" fill="#2B2727"/>
</svg>
