<svg width="54" height="53" viewBox="0 0 54 53" fill="none" xmlns="http://www.w3.org/2000/svg">
<path fill-rule="evenodd" clip-rule="evenodd" d="M41.4049 6.34641C41.5588 6.17232 41.7137 5.85631 41.7137 5.42357C41.7137 4.99083 41.5588 4.67482 41.4049 4.50073C41.2593 4.33592 41.1679 4.34062 41.1641 4.34082C41.1641 4.34082 41.164 4.34082 41.164 4.34082C41.164 4.34082 41.1639 4.34082 41.1639 4.34082C41.1601 4.34062 41.0687 4.33592 40.9231 4.50073C40.7692 4.67482 40.6143 4.99083 40.6143 5.42357C40.6143 5.85631 40.7692 6.17232 40.9231 6.34641C41.0687 6.51121 41.1601 6.50651 41.1639 6.50632L41.164 6.50632L41.1641 6.50632C41.1679 6.50651 41.2593 6.51121 41.4049 6.34641ZM41.164 10.0063C43.4006 10.0063 45.2137 7.95455 45.2137 5.42357C45.2137 2.89259 43.4006 0.84082 41.164 0.84082C38.9274 0.84082 37.1143 2.89259 37.1143 5.42357C37.1143 7.95455 38.9274 10.0063 41.164 10.0063Z" fill="#2B2727"/>
<path fill-rule="evenodd" clip-rule="evenodd" d="M28.4661 0.450095C29.5626 0.599333 30.6785 1.15668 31.3938 2.05613L37.5996 9.68886L42.1683 14.5924L42.2607 14.4814C42.5341 14.153 42.8948 13.7207 43.3054 13.2356C44.1229 12.2699 45.1534 11.0776 46.1019 10.0676C47.0736 9.03274 48.239 8.39486 49.5093 8.39158C50.7807 8.38829 51.8117 9.02267 52.4909 9.82873C53.7663 11.3421 54.188 13.9559 52.6495 15.9008C50.7363 18.3194 47.4679 22.1766 46.0685 23.7602C44.1349 25.9482 41.0582 25.9497 39.1393 24.0979L39.1151 24.0745L35.7599 20.578L29.53 28.0167C30.1184 28.6926 30.8067 29.4875 31.4888 30.2752L31.5153 30.3057C32.6383 31.6026 33.7407 32.8757 34.3763 33.5949C35.1367 34.4555 35.5484 35.572 35.6246 36.6427C35.7002 37.7053 35.4548 38.9389 34.6118 39.8929C34.0254 40.5564 33.1416 41.6064 32.0853 42.8615L32.085 42.8618L32.0844 42.8626C31.7134 43.3034 31.3211 43.7695 30.9129 44.253C29.3576 46.0954 27.5935 48.1646 25.9881 49.939C25.0611 50.9636 23.8966 51.5429 22.6532 51.5315C21.4358 51.5204 20.3832 50.9435 19.6637 50.1295C18.2003 48.4738 17.9926 45.7555 19.8927 43.6054C20.8227 42.553 22.1961 40.936 23.4288 39.4772C23.7381 39.1112 24.04 38.7534 24.3238 38.4171L24.3289 38.411L24.331 38.4085C24.8158 37.8339 25.2475 37.3223 25.5728 36.9395C24.7819 36.055 23.7417 34.9161 22.6944 33.7733C21.1799 35.4884 19.3252 37.6413 17.4076 39.8673L17.4075 39.8675C16.7168 40.6692 16.018 41.4804 15.324 42.284C12.2288 45.868 9.19487 49.3417 7.51434 51.0061C6.49137 52.0193 5.27602 52.6217 3.99319 52.5892C2.69524 52.5562 1.62799 51.8771 0.963079 50.932C-0.356322 49.0566 -0.127799 46.2635 1.83542 44.1365L17.3826 26.4717C17.3701 26.3424 17.363 26.2116 17.3618 26.0793C17.3493 24.7677 17.9091 23.5827 18.8033 22.5863C20.7342 20.4344 24.5909 16.0271 27.3798 12.84L27.38 12.8398C27.6944 12.4805 27.9952 12.1368 28.2782 11.8135C28.1985 11.7224 28.1129 11.6256 28.0192 11.5207C27.0437 12.6002 25.1048 14.741 23.5944 16.3856C22.695 17.365 21.5536 17.9081 20.3349 17.8528C19.1526 17.7992 18.1581 17.1928 17.4918 16.3943C16.1467 14.7823 15.9185 12.1544 17.7524 10.0969C18.9638 8.73776 20.3105 7.13016 21.5848 5.60522L21.7721 5.38109C22.9636 3.95496 24.0935 2.60264 24.9371 1.66852C25.945 0.552449 27.3313 0.29565 28.4661 0.450095ZM30.6231 9.182C31.0379 8.80687 31.5088 8.53337 31.994 8.34244L28.6632 4.24568L28.6552 4.23558C28.6281 4.20115 28.5551 4.12955 28.4217 4.05783C28.2913 3.98767 28.1407 3.93808 27.9941 3.91812C27.6927 3.87711 27.5779 3.96648 27.5346 4.01434C26.7379 4.89652 25.6472 6.20199 24.4282 7.66081L24.2706 7.8495C23.0025 9.367 21.62 11.0178 20.3652 12.4257C19.7328 13.1351 19.8989 13.8161 20.1791 14.1519C20.3254 14.3272 20.4519 14.3545 20.4941 14.3565C20.5067 14.3573 20.6931 14.3704 21.0166 14.0182C22.9486 11.9144 25.5928 8.98644 25.9861 8.54936C26.5882 7.88015 27.4013 7.64538 28.0923 7.66654C28.7606 7.68702 29.5024 7.95053 30.0404 8.53834C30.2647 8.78339 30.4556 8.99442 30.6231 9.182ZM34.9583 11.9884L34.5873 11.5902C34.5713 11.5813 34.5359 11.5637 34.4745 11.5438C34.3685 11.5094 34.2262 11.4825 34.0605 11.4753C34.0103 11.4732 33.958 11.4729 33.9039 11.4747C33.3965 11.4918 33.0561 11.6753 32.9219 11.8272C32.6636 12.1195 32.2622 12.5769 31.7587 13.1516C31.2749 13.7038 30.6969 14.3643 30.061 15.091L30.0608 15.0912L30.0602 15.092C27.265 18.2861 23.3518 22.7579 21.4082 24.9239C20.9477 25.437 20.8594 25.8103 20.8616 26.046C20.8639 26.291 20.9672 26.6701 21.417 27.1791C21.9925 27.8303 23.1209 29.0603 24.3743 30.4267L24.76 30.8472C26.1519 32.3648 27.6339 33.9835 28.5918 35.0675C28.8379 35.3459 29.1765 35.8191 29.3072 36.4521C29.4578 37.1813 29.2983 37.9927 28.7066 38.6622C28.4817 38.9168 27.8571 39.657 27.0484 40.6153C26.7539 40.9644 26.435 41.3424 26.1021 41.7363C24.8736 43.19 23.4753 44.8368 22.5154 45.923C21.7762 46.7595 22.0016 47.4897 22.2862 47.8117C22.4407 47.9865 22.5908 48.0308 22.6851 48.0317C22.7535 48.0323 23.0097 48.0143 23.3927 47.5909C24.9546 45.8646 26.6855 43.8349 28.2384 41.9953C28.6299 41.5315 29.0116 41.0781 29.3767 40.6443L29.3774 40.6434C30.4459 39.3739 31.3725 38.273 31.9891 37.5752C32.0474 37.5092 32.162 37.2933 32.1334 36.8911C32.1054 36.4969 31.9487 36.1333 31.7536 35.9126C31.1063 35.1801 29.9965 33.8984 28.8847 32.6145L28.8429 32.5663C27.711 31.2591 26.5826 29.9562 25.915 29.2007L24.918 28.0725L35.5827 15.3384L41.5894 21.598C42.0996 22.0725 42.863 22.102 43.4458 21.4425C44.8113 19.8973 48.0378 16.0893 49.9045 13.7294C50.0687 13.5218 50.1528 13.2468 50.1324 12.9236C50.111 12.5858 49.9783 12.2784 49.8146 12.0842C49.6594 11.9 49.5516 11.8915 49.5184 11.8916C49.4842 11.8917 49.1792 11.9034 48.6532 12.4635C47.2702 13.9363 45.766 15.7429 44.9457 16.7282C44.678 17.0496 44.4832 17.2836 44.3891 17.3901C43.8861 17.9592 43.1441 18.2263 42.553 18.303C41.9005 18.3877 40.9671 18.2994 40.2001 17.605L40.145 17.5551L35.0567 12.094L35.0492 12.1001L34.9583 11.9884ZM4.43244 46.4833L19.0675 29.855L20.2216 31.2862C18.656 33.0555 16.7181 35.3051 14.7355 37.6065L14.7353 37.6068C14.0494 38.4031 13.3581 39.2055 12.6751 39.9964C9.54067 43.6258 6.61159 46.9741 5.05143 48.5193C4.50022 49.0653 4.15703 49.0922 4.082 49.0903C4.0221 49.0888 3.93217 49.0695 3.82564 48.9181C3.60598 48.6059 3.37224 47.624 4.41629 46.5007L4.43244 46.4833Z" fill="#2B2727"/>
</svg>
