<svg width="55" height="53" viewBox="0 0 55 53" fill="none" xmlns="http://www.w3.org/2000/svg">
<path fill-rule="evenodd" clip-rule="evenodd" d="M41.8673 6.38498C42.0212 6.21089 42.1761 5.89488 42.1761 5.46214C42.1761 5.0294 42.0212 4.71339 41.8673 4.5393C41.7217 4.3745 41.6303 4.3792 41.6265 4.37939C41.6265 4.37939 41.6264 4.37939 41.6264 4.37939C41.6264 4.37939 41.6263 4.37939 41.6263 4.37939C41.6225 4.3792 41.5311 4.3745 41.3855 4.5393C41.2316 4.71339 41.0767 5.0294 41.0767 5.46214C41.0767 5.89488 41.2316 6.21089 41.3855 6.38498C41.5311 6.54979 41.6225 6.54509 41.6263 6.54489L41.6264 6.54489L41.6265 6.54489C41.6303 6.54509 41.7217 6.54979 41.8673 6.38498ZM41.6264 10.0449C43.863 10.0449 45.6761 7.99312 45.6761 5.46214C45.6761 2.93116 43.863 0.879395 41.6264 0.879395C39.3898 0.879395 37.5767 2.93116 37.5767 5.46214C37.5767 7.99312 39.3898 10.0449 41.6264 10.0449Z" fill="white"/>
<path fill-rule="evenodd" clip-rule="evenodd" d="M28.9285 0.488669C30.025 0.637907 31.1409 1.19525 31.8562 2.09471L38.062 9.72744L42.6307 14.631L42.7231 14.52C42.9965 14.1916 43.3572 13.7592 43.7678 13.2742C44.5853 12.3085 45.6158 11.1162 46.5643 10.1062C47.536 9.07132 48.7014 8.43344 49.9717 8.43015C51.2431 8.42686 52.2741 9.06124 52.9534 9.8673C54.2287 11.3807 54.6504 13.9944 53.1119 15.9394C51.1987 18.358 47.9303 22.2152 46.5309 23.7987C44.5973 25.9868 41.5206 25.9882 39.6017 24.1365L39.5775 24.1131L36.2223 20.6166L29.9924 28.0553C30.5808 28.7312 31.2691 29.526 31.9512 30.3137L31.9777 30.3443C33.1007 31.6412 34.2031 32.9143 34.8387 33.6335C35.5991 34.494 36.0108 35.6106 36.087 36.6813C36.1626 37.7439 35.9172 38.9775 35.0742 39.9314C34.4878 40.595 33.604 41.645 32.5477 42.9001L32.5474 42.9004L32.5468 42.9012C32.1758 43.342 31.7835 43.8081 31.3753 44.2916C29.82 46.1339 28.0559 48.2032 26.4505 49.9776C25.5235 51.0022 24.359 51.5814 23.1156 51.5701C21.8982 51.559 20.8456 50.9821 20.1261 50.1681C18.6627 48.5123 18.455 45.7941 20.3551 43.6439C21.2851 42.5916 22.6585 40.9745 23.8912 39.5158C24.2005 39.1498 24.5024 38.792 24.7862 38.4556L24.7913 38.4496L24.7934 38.4471C25.2782 37.8725 25.7099 37.3609 26.0352 36.9781C25.2443 36.0936 24.2041 34.9547 23.1568 33.8119C21.6423 35.5269 19.7876 37.6799 17.87 39.9059L17.8699 39.906C17.1792 40.7078 16.4804 41.519 15.7864 42.3226C12.6912 45.9066 9.65727 49.3803 7.97675 51.0447C6.95377 52.0578 5.73842 52.6603 4.4556 52.6278C3.15764 52.5948 2.0904 51.9157 1.42548 50.9706C0.10608 49.0952 0.334603 46.3021 2.29782 44.1751L17.845 26.5103C17.8325 26.381 17.8254 26.2502 17.8242 26.1179C17.8117 24.8063 18.3715 23.6213 19.2657 22.6249C21.1966 20.4729 25.0533 16.0656 27.8422 12.8786L27.8424 12.8783C28.1568 12.5191 28.4576 12.1753 28.7406 11.8521C28.6609 11.761 28.5753 11.6642 28.4816 11.5592C27.5061 12.6388 25.5672 14.7795 24.0568 16.4242C23.1574 17.4036 22.016 17.9467 20.7973 17.8914C19.615 17.8378 18.6205 17.2314 17.9542 16.4328C16.6091 14.8209 16.3809 12.193 18.2148 10.1355C19.4262 8.77633 20.7729 7.16873 22.0472 5.64379L22.2345 5.41967C23.426 3.99354 24.5559 2.64121 25.3995 1.70709C26.4074 0.591023 27.7937 0.334224 28.9285 0.488669ZM31.0855 9.22058C31.5003 8.84545 31.9713 8.57195 32.4564 8.38102L29.1256 4.28425L29.1176 4.27416C29.0905 4.23972 29.0175 4.16813 28.8841 4.0964C28.7537 4.02625 28.6031 3.97665 28.4565 3.9567C28.1551 3.91568 28.0403 4.00505 27.997 4.05292C27.2003 4.93509 26.1096 6.24056 24.8906 7.69939L24.733 7.88808C23.4649 9.40557 22.0824 11.0564 20.8276 12.4643C20.1952 13.1737 20.3613 13.8546 20.6415 14.1904C20.7878 14.3658 20.9143 14.3931 20.9565 14.395C20.9691 14.3959 21.1556 14.4089 21.479 14.0568C23.411 11.953 26.0552 9.02501 26.4485 8.58794C27.0506 7.91872 27.8637 7.68395 28.5547 7.70512C29.223 7.72559 29.9648 7.9891 30.5028 8.57692C30.7271 8.82196 30.918 9.03299 31.0855 9.22058ZM35.4207 12.027L35.0497 11.6288C35.0337 11.6198 34.9983 11.6023 34.9369 11.5823C34.8309 11.548 34.6886 11.521 34.5229 11.5139C34.4727 11.5118 34.4204 11.5114 34.3663 11.5133C33.8589 11.5304 33.5185 11.7139 33.3843 11.8658C33.126 12.1581 32.7246 12.6154 32.2211 13.1902C31.7373 13.7423 31.1593 14.4029 30.5234 15.1295L30.5232 15.1297L30.5226 15.1305C27.7274 18.3247 23.8142 22.7965 21.8706 24.9625C21.4101 25.4755 21.3218 25.8489 21.324 26.0846C21.3263 26.3295 21.4296 26.7087 21.8794 27.2177C22.4549 27.8689 23.5833 29.0989 24.8367 30.4653L25.2224 30.8858C26.6143 32.4033 28.0963 34.0221 29.0542 35.1061C29.3003 35.3845 29.6389 35.8576 29.7696 36.4906C29.9202 37.2198 29.7607 38.0313 29.169 38.7008C28.9441 38.9554 28.3195 39.6956 27.5108 40.6539C27.2163 41.003 26.8974 41.3809 26.5645 41.7749C25.336 43.2286 23.9377 44.8753 22.9778 45.9616C22.2386 46.7981 22.464 47.5283 22.7486 47.8502C22.9031 48.0251 23.0532 48.0694 23.1475 48.0702C23.2159 48.0709 23.4721 48.0528 23.8551 47.6294C25.417 45.9031 27.1479 43.8735 28.7008 42.0339C29.0923 41.5701 29.474 41.1167 29.8391 40.6829L29.8398 40.682C30.9083 39.4125 31.8349 38.3115 32.4515 37.6138C32.5098 37.5478 32.6244 37.3319 32.5958 36.9297C32.5678 36.5355 32.4111 36.1719 32.216 35.9512C31.5687 35.2187 30.4589 33.937 29.3471 32.6531L29.3053 32.6049C28.1734 31.2977 27.045 29.9947 26.3774 29.2393L25.3804 28.1111L36.0452 15.377L42.0518 21.6366C42.562 22.111 43.3254 22.1406 43.9082 21.4811C45.2737 19.9359 48.5002 16.1278 50.3669 13.768C50.5311 13.5604 50.6152 13.2854 50.5948 12.9622C50.5734 12.6243 50.4407 12.317 50.277 12.1227C50.1218 11.9386 50.014 11.9301 49.9808 11.9301C49.9466 11.9302 49.6416 11.942 49.1156 12.5021C47.7326 13.9748 46.2284 15.7815 45.4081 16.7667C45.1404 17.0882 44.9456 17.3222 44.8515 17.4286C44.3485 17.9978 43.6065 18.2648 43.0154 18.3416C42.3629 18.4263 41.4295 18.3379 40.6625 17.6436L40.6074 17.5936L35.5191 12.1325L35.5116 12.1387L35.4207 12.027ZM4.89485 46.5219L19.5299 29.8935L20.684 31.3248C19.1184 33.0941 17.1805 35.3436 15.1979 37.6451L15.1977 37.6454C14.5118 38.4416 13.8205 39.2441 13.1375 40.035C10.0031 43.6644 7.074 47.0127 5.51383 48.5579C4.96262 49.1038 4.61943 49.1308 4.5444 49.1289C4.4845 49.1274 4.39457 49.1081 4.28804 48.9567C4.06838 48.6445 3.83464 47.6626 4.87869 46.5393L4.89485 46.5219Z" fill="white"/>
</svg>
