<svg width="51" height="51" viewBox="0 0 51 51" fill="none" xmlns="http://www.w3.org/2000/svg">
<path fill-rule="evenodd" clip-rule="evenodd" d="M42.0455 2.51482C42.8667 1.69363 44.1981 1.69363 45.0193 2.51482L48.2525 5.74806C49.0737 6.56926 49.0737 7.90068 48.2525 8.72187L29.2041 27.7703C28.9346 28.0398 28.5969 28.231 28.2272 28.3234L23.1606 29.5901C22.6033 29.7294 22.0137 29.5661 21.6075 29.1599C21.2013 28.7537 21.0379 28.1641 21.1773 27.6067L22.4439 22.5402C22.5364 22.1704 22.7275 21.8328 22.997 21.5633L42.0455 2.51482ZM43.5324 5.65385L25.5388 23.6474L25.0118 25.7556L27.1199 25.2286L45.1135 7.23496L43.5324 5.65385Z" fill="white"/>
<path fill-rule="evenodd" clip-rule="evenodd" d="M3.86502 3.67825C3.73599 3.67825 3.63138 3.78286 3.63138 3.9119V46.9026C3.63138 47.0316 3.73599 47.1362 3.86503 47.1362H46.8557C46.9847 47.1362 47.0893 47.0316 47.0893 46.9026V25.4072C47.0893 24.504 47.8216 23.7717 48.7248 23.7717C49.6281 23.7717 50.3604 24.504 50.3604 25.4072V46.9026C50.3604 48.8381 48.7913 50.4072 46.8557 50.4072H3.86503C1.92945 50.4072 0.360352 48.8381 0.360352 46.9026V3.9119C0.360352 1.97632 1.92945 0.407227 3.86502 0.407227H25.3604C26.2636 0.407227 26.9959 1.13947 26.9959 2.04274C26.9959 2.94601 26.2636 3.67825 25.3604 3.67825H3.86502Z" fill="white"/>
</svg>
