<svg width="51" height="51" viewBox="0 0 51 51" fill="none" xmlns="http://www.w3.org/2000/svg">
<path fill-rule="evenodd" clip-rule="evenodd" d="M41.8726 2.44353C42.6938 1.62234 44.0253 1.62234 44.8465 2.44353L48.0797 5.67677C48.9009 6.49797 48.9009 7.82939 48.0797 8.65058L29.0312 27.699C28.7617 27.9685 28.4241 28.1597 28.0543 28.2522L22.9878 29.5188C22.4304 29.6581 21.8409 29.4948 21.4346 29.0886C21.0284 28.6824 20.8651 28.0928 21.0044 27.5354L22.2711 22.4689C22.3635 22.0992 22.5547 21.7615 22.8242 21.492L41.8726 2.44353ZM43.3595 5.58256L25.366 23.5762L24.8389 25.6843L26.9471 25.1573L44.9407 7.16367L43.3595 5.58256Z" fill="#2B2727"/>
<path fill-rule="evenodd" clip-rule="evenodd" d="M3.69217 3.60697C3.56314 3.60697 3.45853 3.71157 3.45853 3.84061V46.8313C3.45853 46.9603 3.56313 47.0649 3.69217 47.0649H46.6828C46.8119 47.0649 46.9165 46.9603 46.9165 46.8313V25.3359C46.9165 24.4327 47.6487 23.7004 48.552 23.7004C49.4553 23.7004 50.1875 24.4327 50.1875 25.3359V46.8313C50.1875 48.7668 48.6184 50.3359 46.6828 50.3359H3.69217C1.7566 50.3359 0.1875 48.7668 0.1875 46.8313V3.84061C0.1875 1.90504 1.75659 0.335938 3.69217 0.335938H25.1875C26.0908 0.335938 26.823 1.06818 26.823 1.97145C26.823 2.87472 26.0908 3.60697 25.1875 3.60697H3.69217Z" fill="#2B2727"/>
</svg>
