<svg width="51" height="51" viewBox="0 0 51 51" fill="none" xmlns="http://www.w3.org/2000/svg">
<path d="M50.7979 23.4634H34.88L49.4423 17.4103L47.9577 13.8351L34.4927 19.4366L44.8464 9.09843L42.1095 6.36224L30.8521 17.6168L36.9326 2.85166L33.3695 1.38031L27.7279 15.0354V0.399414H23.8678V15.9647L17.8002 1.40613L14.237 2.89038L20.0852 16.9585L9.48621 6.36224L6.74931 9.09843L17.4129 19.7463L3.25073 13.9126L1.779 17.4877L16.2897 23.4634H0.797852V27.3354H15.528L1.80482 33.0401L3.28946 36.6152L17.9551 30.5104L6.74931 41.7004L9.48621 44.4366L19.9045 34.0339L14.3145 47.5987L17.8776 49.07L23.8678 34.5631V50.3994H27.7279V35.3246L33.447 49.0442L37.0101 47.56L31.1619 33.4918L42.1095 44.4366L44.8464 41.7004L33.8343 30.704L47.9964 36.5378L49.4681 32.9627L35.8095 27.3354H50.7979V23.4634Z" fill="black"/>
</svg>
