<svg width="51" height="51" viewBox="0 0 51 51" fill="none" xmlns="http://www.w3.org/2000/svg">
<path d="M50.3857 23.4634H34.4678L49.0302 17.4103L47.5456 13.8351L34.0806 19.4366L44.4343 9.09843L41.6974 6.36224L30.44 17.6168L36.5205 2.85166L32.9574 1.38031L27.3158 15.0354V0.399414H23.4557V15.9647L17.3881 1.40613L13.8249 2.89038L19.6731 16.9585L9.0741 6.36224L6.3372 9.09843L17.0008 19.7463L2.83862 13.9126L1.36689 17.4877L15.8776 23.4634H0.385742V27.3354H15.1159L1.39271 33.0401L2.87735 36.6152L17.543 30.5104L6.3372 41.7004L9.0741 44.4366L19.4924 34.0339L13.9024 47.5987L17.4655 49.07L23.4557 34.5631V50.3994H27.3158V35.3246L33.0349 49.0442L36.598 47.56L30.7498 33.4918L41.6974 44.4366L44.4343 41.7004L33.4221 30.704L47.5843 36.5378L49.056 32.9627L35.3974 27.3354H50.3857V23.4634Z" fill="white"/>
</svg>
