<svg width="21" height="21" viewBox="0 0 21 21" fill="none" xmlns="http://www.w3.org/2000/svg">
<circle cx="10.503" cy="14.4952" r="1.19835" fill="#2B2727"/>
<path fill-rule="evenodd" clip-rule="evenodd" d="M8.44218 4.72271C8.9461 4.41426 9.62402 4.25146 10.5027 4.25146C11.3811 4.25146 12.0986 4.4865 12.5964 4.95186C13.0997 5.4223 13.2972 6.0527 13.2743 6.66961C13.231 7.83544 12.41 9.05041 11.1603 9.57571V10.901C11.1603 11.2643 10.8658 11.5588 10.5025 11.5588C10.1393 11.5588 9.84476 11.2643 9.84476 10.901V9.44587C9.84476 8.9269 10.1967 8.53908 10.5924 8.38634C11.428 8.06384 11.9357 7.26496 11.9596 6.62077C11.9709 6.31813 11.8774 6.08056 11.698 5.91293C11.5133 5.74021 11.1565 5.56704 10.5027 5.56704C9.77364 5.56704 9.35924 5.70384 9.12901 5.84477C8.91415 5.97628 8.82046 6.13445 8.77443 6.29203C8.72341 6.46668 8.72706 6.6611 8.75336 6.83064C8.76598 6.91203 8.78251 6.97923 8.79515 7.02392C8.80141 7.04604 8.80652 7.06198 8.80942 7.07065L8.8118 7.07759C8.93719 7.41615 8.76609 7.79302 8.42788 7.9211C8.08814 8.04977 7.70842 7.87865 7.57976 7.53891L8.19492 7.30595C7.57976 7.53891 7.57963 7.53855 7.57949 7.53818L7.57919 7.53739L7.57853 7.53563L7.57697 7.53142L7.57293 7.52027C7.56985 7.51165 7.56602 7.50065 7.5616 7.48741C7.55277 7.46098 7.54153 7.42543 7.52924 7.38201C7.50481 7.29563 7.47555 7.17559 7.45332 7.03229C7.40992 6.75245 7.38762 6.34769 7.51162 5.92317C7.6406 5.48158 7.92289 5.04057 8.44218 4.72271Z" fill="#2B2727"/>
<path fill-rule="evenodd" clip-rule="evenodd" d="M10.3477 18.9852C15.1439 18.9852 19.0321 15.0971 19.0321 10.3008C19.0321 5.50451 15.1439 1.61636 10.3477 1.61636C5.55138 1.61636 1.66324 5.50451 1.66324 10.3008C1.66324 15.0971 5.55138 18.9852 10.3477 18.9852ZM10.3477 20.3008C15.8705 20.3008 20.3477 15.8236 20.3477 10.3008C20.3477 4.77793 15.8705 0.300781 10.3477 0.300781C4.82481 0.300781 0.347656 4.77793 0.347656 10.3008C0.347656 15.8236 4.82481 20.3008 10.3477 20.3008Z" fill="#2B2727"/>
</svg>
