<svg width="26" height="26" viewBox="0 0 26 26" fill="none" xmlns="http://www.w3.org/2000/svg">
<path fill-rule="evenodd" clip-rule="evenodd" d="M12.6523 25.7153C19.5559 25.7153 25.1523 20.1189 25.1523 13.2153C25.1523 6.31177 19.5559 0.715332 12.6523 0.715332C5.74878 0.715332 0.152344 6.31177 0.152344 13.2153C0.152344 20.1189 5.74878 25.7153 12.6523 25.7153ZM12.8077 18.6081C13.4696 18.6081 14.0061 18.0716 14.0061 17.4097C14.0061 16.7479 13.4696 16.2114 12.8077 16.2114C12.1459 16.2114 11.6094 16.7479 11.6094 17.4097C11.6094 18.0716 12.1459 18.6081 12.8077 18.6081ZM10.7469 7.63717C11.2508 7.32872 11.9287 7.16593 12.8074 7.16593C13.6858 7.16593 14.4033 7.40096 14.9011 7.86632C15.4044 8.33676 15.6019 8.96716 15.579 9.58407C15.5357 10.7499 14.7147 11.9649 13.465 12.4902V13.8155C13.465 14.1787 13.1705 14.4732 12.8072 14.4732C12.4439 14.4732 12.1494 14.1787 12.1494 13.8155V12.3603C12.1494 11.8414 12.5014 11.4535 12.8971 11.3008C13.7327 10.9783 14.2404 10.1794 14.2643 9.53523C14.2755 9.23259 14.1821 8.99502 14.0027 8.82739C13.818 8.65467 13.4612 8.48151 12.8074 8.48151C12.0783 8.48151 11.6639 8.6183 11.4337 8.75923C11.2188 8.89074 11.1251 9.04891 11.0791 9.20649C11.0281 9.38114 11.0317 9.57556 11.058 9.7451C11.0707 9.82649 11.0872 9.89369 11.0998 9.93838C11.1061 9.9605 11.1112 9.97644 11.1141 9.98512L11.1165 9.99205C11.2419 10.3306 11.0708 10.7075 10.7326 10.8356C10.3928 10.9642 10.0131 10.7931 9.88445 10.4534L10.4996 10.2204C9.88445 10.4534 9.88431 10.453 9.88417 10.4526L9.88387 10.4518L9.88321 10.4501L9.88165 10.4459L9.87762 10.4347C9.87454 10.4261 9.8707 10.4151 9.86628 10.4019C9.85746 10.3754 9.84621 10.3399 9.83393 10.2965C9.8095 10.2101 9.78024 10.09 9.75801 9.94675C9.7146 9.66691 9.6923 9.26215 9.8163 8.83763C9.94529 8.39604 10.2276 7.95503 10.7469 7.63717ZM21.3368 13.2153C21.3368 18.0116 17.4486 21.8998 12.6523 21.8998C7.85607 21.8998 3.96792 18.0116 3.96792 13.2153C3.96792 8.41906 7.85607 4.53091 12.6523 4.53091C17.4486 4.53091 21.3368 8.41906 21.3368 13.2153ZM22.6523 13.2153C22.6523 18.7382 18.1752 23.2153 12.6523 23.2153C7.1295 23.2153 2.65234 18.7382 2.65234 13.2153C2.65234 7.69248 7.1295 3.21533 12.6523 3.21533C18.1752 3.21533 22.6523 7.69248 22.6523 13.2153Z" fill="#EDECE9"/>
</svg>
