<svg width="26" height="26" viewBox="0 0 26 26" fill="none" xmlns="http://www.w3.org/2000/svg">
<path fill-rule="evenodd" clip-rule="evenodd" d="M12.957 25.7114C19.8606 25.7114 25.457 20.115 25.457 13.2114C25.457 6.30786 19.8606 0.711426 12.957 0.711426C6.05347 0.711426 0.457031 6.30786 0.457031 13.2114C0.457031 20.115 6.05347 25.7114 12.957 25.7114ZM13.1124 18.6042C13.7742 18.6042 14.3108 18.0677 14.3108 17.4058C14.3108 16.744 13.7742 16.2075 13.1124 16.2075C12.4506 16.2075 11.9141 16.744 11.9141 17.4058C11.9141 18.0677 12.4506 18.6042 13.1124 18.6042ZM11.0516 7.63324C11.5555 7.32483 12.2334 7.16205 13.1121 7.16205C13.9905 7.16205 14.708 7.39703 15.2058 7.86243C15.7091 8.33289 15.9066 8.96326 15.8837 9.58014C15.8404 10.746 15.0194 11.9609 13.7697 12.4863V13.8115C13.7697 14.1748 13.4752 14.4694 13.1119 14.4694C12.7486 14.4694 12.4541 14.1748 12.4541 13.8115V12.3564C12.4541 11.8375 12.8061 11.4496 13.2018 11.2969C14.0374 10.9744 14.5451 10.1755 14.569 9.53131C14.5802 9.2287 14.4867 8.99109 14.3074 8.82349C14.1226 8.65076 13.7659 8.4776 13.1121 8.4776C12.383 8.4776 11.9686 8.61438 11.7384 8.75531C11.5235 8.88684 11.4298 9.04498 11.3838 9.20258C11.3328 9.37726 11.3364 9.57166 11.3627 9.74121C11.3754 9.82257 11.3919 9.88977 11.4045 9.93445C11.4108 9.9566 11.4159 9.97253 11.4188 9.9812L11.4212 9.98816C11.5466 10.3267 11.3755 10.7036 11.0373 10.8317C10.6975 10.9603 10.3178 10.7892 10.1891 10.4495L10.8043 10.2165C10.1891 10.4495 10.189 10.4491 10.1889 10.4487L10.1886 10.4479L10.1879 10.4462L10.1863 10.442L10.1823 10.4308C10.1792 10.4222 10.1754 10.4112 10.171 10.3979C10.1621 10.3715 10.1509 10.336 10.1386 10.2925C10.1295 10.2604 10.1198 10.2236 10.1099 10.1826C10.0934 10.1136 10.0767 10.0328 10.0627 9.94287C10.0193 9.66302 9.99699 9.25824 10.121 8.83374C10.25 8.39215 10.5323 7.95111 11.0516 7.63324ZM21.6414 13.2114C21.6414 18.0077 17.7533 21.8959 12.957 21.8959C8.16076 21.8959 4.27261 18.0077 4.27261 13.2114C4.27261 8.41516 8.16076 4.52698 12.957 4.52698C17.7533 4.52698 21.6414 8.41516 21.6414 13.2114ZM22.957 13.2114C22.957 18.7343 18.4799 23.2114 12.957 23.2114C7.43418 23.2114 2.95703 18.7343 2.95703 13.2114C2.95703 7.6886 7.43418 3.21143 12.957 3.21143C18.4799 3.21143 22.957 7.6886 22.957 13.2114Z" fill="#2B2727"/>
</svg>
