<svg width="26" height="26" viewBox="0 0 26 26" fill="none" xmlns="http://www.w3.org/2000/svg">
<path fill-rule="evenodd" clip-rule="evenodd" d="M12.5396 25.8008C19.4431 25.8008 25.0396 20.2043 25.0396 13.3008C25.0396 6.39722 19.4431 0.800781 12.5396 0.800781C5.63599 0.800781 0.0395508 6.39722 0.0395508 13.3008C0.0395508 20.2043 5.63599 25.8008 12.5396 25.8008ZM21.224 13.3008C21.224 18.097 17.3358 21.9852 12.5396 21.9852C7.74328 21.9852 3.85513 18.097 3.85513 13.3008C3.85513 8.50452 7.74328 4.61633 12.5396 4.61633C17.3358 4.61633 21.224 8.50452 21.224 13.3008ZM22.5396 13.3008C22.5396 18.8236 18.0624 23.3008 12.5396 23.3008C7.0167 23.3008 2.53955 18.8236 2.53955 13.3008C2.53955 7.77795 7.0167 3.30078 12.5396 3.30078C18.0624 3.30078 22.5396 7.77795 22.5396 13.3008ZM12.539 18.082C12.1757 18.082 11.8812 17.7875 11.8812 17.4243V12.4774C11.8812 12.1141 12.1757 11.8196 12.539 11.8196C12.9023 11.8196 13.1968 12.1141 13.1968 12.4774V17.4243C13.1968 17.7875 12.9023 18.082 12.539 18.082ZM12.5394 8.51929C11.993 8.51929 11.5501 8.96228 11.5501 9.50867C11.5501 10.0551 11.993 10.498 12.5394 10.498C13.0858 10.498 13.5288 10.0551 13.5288 9.50867C13.5288 8.96228 13.0858 8.51929 12.5394 8.51929Z" fill="#2B2727"/>
</svg>
