<svg width="21" height="21" viewBox="0 0 21 21" fill="none" xmlns="http://www.w3.org/2000/svg">
<path fill-rule="evenodd" clip-rule="evenodd" d="M10.6615 14.3169C10.2983 14.3169 10.0038 14.0224 10.0038 13.6591L10.0038 8.71224C10.0038 8.34895 10.2983 8.05445 10.6615 8.05445C11.0248 8.05445 11.3193 8.34895 11.3193 8.71224L11.3193 13.6591C11.3193 14.0224 11.0248 14.3169 10.6615 14.3169Z" fill="#2B2727"/>
<circle cx="10.662" cy="5.74354" r="0.989373" transform="rotate(-180 10.662 5.74354)" fill="#2B2727"/>
<path fill-rule="evenodd" clip-rule="evenodd" d="M10.6616 18.9852C15.4579 18.9852 19.346 15.0971 19.346 10.3008C19.346 5.50451 15.4579 1.61636 10.6616 1.61636C5.86535 1.61636 1.9772 5.50451 1.9772 10.3008C1.9772 15.0971 5.86535 18.9852 10.6616 18.9852ZM10.6616 20.3008C16.1845 20.3008 20.6616 15.8236 20.6616 10.3008C20.6616 4.77793 16.1845 0.300781 10.6616 0.300781C5.13877 0.300781 0.661621 4.77793 0.661621 10.3008C0.661621 15.8236 5.13877 20.3008 10.6616 20.3008Z" fill="#2B2727"/>
</svg>
