<svg width="51" height="51" viewBox="0 0 51 51" fill="none" xmlns="http://www.w3.org/2000/svg">
<path fill-rule="evenodd" clip-rule="evenodd" d="M0.390137 3.60282C0.390137 1.66724 1.95923 0.0981445 3.89481 0.0981445L46.8855 0.0981445C48.821 0.0981445 50.3901 1.66724 50.3901 3.60282V46.5935C50.3901 48.529 48.821 50.0981 46.8855 50.0981H3.89481C1.95923 50.0981 0.390137 48.529 0.390137 46.5935L0.390137 3.60282ZM3.89481 3.36917C3.76577 3.36917 3.66116 3.47378 3.66116 3.60282L3.66116 46.5935C3.66116 46.7225 3.76577 46.8271 3.89481 46.8271H46.8855C47.0145 46.8271 47.1191 46.7225 47.1191 46.5935V3.60282C47.1191 3.47378 47.0145 3.36917 46.8855 3.36917L3.89481 3.36917Z" fill="white"/>
<path fill-rule="evenodd" clip-rule="evenodd" d="M25.3901 13.0781C26.2934 13.0781 27.0256 13.8104 27.0256 14.7136V25.0979C27.0256 26.0011 26.2934 26.7334 25.3901 26.7334C24.4868 26.7334 23.7546 26.0011 23.7546 25.0979V14.7136C23.7546 13.8104 24.4868 13.0781 25.3901 13.0781ZM19.1192 16.661C19.7642 17.2933 19.7745 18.3288 19.1422 18.9738C17.5936 20.5536 16.6414 22.7129 16.6414 25.0979C16.6414 29.9296 20.5583 33.8466 25.3901 33.8466C30.2219 33.8466 34.1388 29.9296 34.1388 25.0979C34.1388 22.7129 33.1866 20.5536 31.638 18.9738C31.0057 18.3288 31.016 17.2933 31.661 16.661C32.306 16.0287 33.3415 16.0389 33.9738 16.684C36.0976 18.8504 37.4098 21.8225 37.4098 25.0979C37.4098 31.7362 32.0284 37.1176 25.3901 37.1176C18.7518 37.1176 13.3704 31.7362 13.3704 25.0979C13.3704 21.8225 14.6826 18.8504 16.8064 16.684C17.4387 16.0389 18.4742 16.0287 19.1192 16.661Z" fill="white"/>
</svg>
