<svg width="51" height="51" viewBox="0 0 51 51" fill="none" xmlns="http://www.w3.org/2000/svg">
<path fill-rule="evenodd" clip-rule="evenodd" d="M0.32373 3.9495C0.32373 2.01392 1.89282 0.444824 3.8284 0.444824L46.8191 0.444824C48.7546 0.444824 50.3237 2.01392 50.3237 3.9495V46.9402C50.3237 48.8757 48.7546 50.4448 46.8191 50.4448H3.8284C1.89283 50.4448 0.32373 48.8757 0.32373 46.9402L0.32373 3.9495ZM3.8284 3.71585C3.69937 3.71585 3.59476 3.82046 3.59476 3.9495L3.59476 46.9402C3.59476 47.0692 3.69936 47.1738 3.8284 47.1738H46.8191C46.9481 47.1738 47.0527 47.0692 47.0527 46.9402V3.9495C47.0527 3.82046 46.9481 3.71585 46.8191 3.71585L3.8284 3.71585Z" fill="#2B2727"/>
<path fill-rule="evenodd" clip-rule="evenodd" d="M25.3237 13.4248C26.227 13.4248 26.9592 14.157 26.9592 15.0603V25.4445C26.9592 26.3478 26.227 27.08 25.3237 27.08C24.4204 27.08 23.6882 26.3478 23.6882 25.4445V15.0603C23.6882 14.157 24.4204 13.4248 25.3237 13.4248ZM19.0528 17.0077C19.6978 17.64 19.7081 18.6755 19.0758 19.3205C17.5272 20.9002 16.575 23.0596 16.575 25.4445C16.575 30.2763 20.4919 34.1932 25.3237 34.1932C30.1555 34.1932 34.0724 30.2763 34.0724 25.4445C34.0724 23.0596 33.1202 20.9002 31.5716 19.3205C30.9393 18.6755 30.9495 17.64 31.5946 17.0077C32.2396 16.3753 33.2751 16.3856 33.9074 17.0307C36.0312 19.197 37.3434 22.1692 37.3434 25.4445C37.3434 32.0828 31.962 37.4643 25.3237 37.4643C18.6854 37.4643 13.304 32.0828 13.304 25.4445C13.304 22.1692 14.6162 19.197 16.7399 17.0307C17.3723 16.3856 18.4078 16.3753 19.0528 17.0077Z" fill="#2B2727"/>
</svg>
