<svg width="26" height="26" viewBox="0 0 26 26" fill="none" xmlns="http://www.w3.org/2000/svg">
<path fill-rule="evenodd" clip-rule="evenodd" d="M12.7075 25.8008C19.6111 25.8008 25.2075 20.2043 25.2075 13.3008C25.2075 6.39722 19.6111 0.800781 12.7075 0.800781C5.80396 0.800781 0.20752 6.39722 0.20752 13.3008C0.20752 20.2043 5.80396 25.8008 12.7075 25.8008ZM13.5087 4.10199C13.5087 3.65948 13.15 3.30078 12.7075 3.30078C12.265 3.30078 11.9063 3.65948 11.9063 4.10199V13.3008C11.9063 13.7433 12.265 14.102 12.7075 14.102C13.15 14.102 13.5087 13.7433 13.5087 13.3008V4.10199ZM6.71038 7.42249C7.02014 7.10651 7.0151 6.59924 6.69912 6.28949C6.38314 5.97974 5.87589 5.98474 5.56612 6.30072C3.79868 8.1037 2.70752 10.5756 2.70752 13.3008C2.70752 18.8236 7.18467 23.3008 12.7075 23.3008C18.2304 23.3008 22.7075 18.8236 22.7075 13.3008C22.7075 10.5756 21.6164 8.1037 19.8489 6.30072C19.5392 5.98474 19.0319 5.97974 18.7159 6.28949C18.3999 6.59924 18.3949 7.10651 18.7047 7.42249C20.1904 8.93805 21.1051 11.0118 21.1051 13.3008C21.1051 17.9387 17.3454 21.6984 12.7075 21.6984C8.06964 21.6984 4.30991 17.9387 4.30991 13.3008C4.30991 11.0118 5.22467 8.93805 6.71038 7.42249Z" fill="#2B2727"/>
</svg>
