<svg width="21" height="21" viewBox="0 0 21 21" fill="none" xmlns="http://www.w3.org/2000/svg">
<path fill-rule="evenodd" clip-rule="evenodd" d="M10.0332 0.300781C10.4757 0.300781 10.8344 0.659487 10.8344 1.10197V10.3008C10.8344 10.7433 10.4757 11.102 10.0332 11.102C9.59072 11.102 9.23201 10.7433 9.23201 10.3008V1.10197C9.23201 0.659487 9.59072 0.300781 10.0332 0.300781ZM4.02481 3.28949C4.34078 3.59924 4.34583 4.10651 4.03607 4.42249C2.55035 5.93803 1.63559 8.01178 1.63559 10.3008C1.63559 14.9387 5.39533 18.6984 10.0332 18.6984C14.6711 18.6984 18.4308 14.9387 18.4308 10.3008C18.4308 8.01178 17.5161 5.93803 16.0303 4.42249C15.7206 4.10651 15.7256 3.59924 16.0416 3.28949C16.3576 2.97973 16.8648 2.98477 17.1746 3.30075C18.942 5.10368 20.0332 7.5756 20.0332 10.3008C20.0332 15.8236 15.5561 20.3008 10.0332 20.3008C4.51036 20.3008 0.0332031 15.8236 0.0332031 10.3008C0.0332031 7.5756 1.12436 5.10368 2.89181 3.30075C3.20156 2.98477 3.70883 2.97973 4.02481 3.28949Z" fill="#2B2727"/>
</svg>
