<svg width="26" height="26" viewBox="0 0 26 26" fill="none" xmlns="http://www.w3.org/2000/svg">
<path fill-rule="evenodd" clip-rule="evenodd" d="M13.4028 25.8047C20.3064 25.8047 25.9028 20.2082 25.9028 13.3047C25.9028 6.40113 20.3064 0.804688 13.4028 0.804688C6.49927 0.804688 0.902832 6.40113 0.902832 13.3047C0.902832 20.2082 6.49927 25.8047 13.4028 25.8047ZM14.204 4.10588C14.204 3.66339 13.8453 3.30469 13.4028 3.30469C12.9603 3.30469 12.6016 3.66339 12.6016 4.10588V13.3047C12.6016 13.7472 12.9603 14.1059 13.4028 14.1059C13.8453 14.1059 14.204 13.7472 14.204 13.3047V4.10588ZM7.4057 7.42639C7.71546 7.11041 7.71041 6.60315 7.39443 6.29339C7.07846 5.98363 6.57119 5.98867 6.26143 6.30465C4.49399 8.10758 3.40283 10.5795 3.40283 13.3047C3.40283 18.8275 7.87998 23.3047 13.4028 23.3047C18.9257 23.3047 23.4028 18.8275 23.4028 13.3047C23.4028 10.5795 22.3117 8.10758 20.5442 6.30465C20.2345 5.98867 19.7272 5.98363 19.4112 6.29339C19.0953 6.60315 19.0902 7.11041 19.4 7.42639C20.8857 8.94193 21.8004 11.0157 21.8004 13.3047C21.8004 17.9426 18.0407 21.7023 13.4028 21.7023C8.76496 21.7023 5.00522 17.9426 5.00522 13.3047C5.00522 11.0157 5.91998 8.94193 7.4057 7.42639Z" fill="#EDECE9"/>
</svg>
