<svg width="51" height="51" viewBox="0 0 51 51" fill="none" xmlns="http://www.w3.org/2000/svg">
<path fill-rule="evenodd" clip-rule="evenodd" d="M2.28396 26.6162C2.59068 26.3095 3.00669 26.1372 3.44045 26.1372H49.0388C49.4726 26.1372 49.8886 26.3095 50.1953 26.6162C50.502 26.923 50.6743 27.339 50.6743 27.7727C50.6743 33.8076 48.0631 39.5641 43.4675 43.7853C38.8765 48.0023 32.6774 50.35 26.2396 50.35C19.8019 50.35 13.6028 48.0023 9.01179 43.7853C4.41616 39.5641 1.80493 33.8076 1.80493 27.7727C1.80493 27.339 1.97724 26.923 2.28396 26.6162ZM5.1521 29.4082C5.56997 33.8886 7.69587 38.1351 11.2246 41.3763C15.1849 45.014 20.584 47.079 26.2396 47.079C31.8953 47.079 37.2943 45.014 41.2547 41.3763C44.7834 38.1351 46.9093 33.8886 47.3272 29.4082H5.1521Z" fill="#2B2727"/>
<path fill-rule="evenodd" clip-rule="evenodd" d="M18.2313 14.2359C16.1295 14.2359 14.1175 14.9361 12.5654 16.1797C11.0163 17.4209 10.0381 19.1101 9.76825 20.9187C9.63497 21.8121 8.80269 22.4283 7.9093 22.295C7.01592 22.1617 6.39973 21.3295 6.53302 20.4361C6.93095 17.7688 8.36273 15.3556 10.5201 13.627C12.6745 11.9008 15.4146 10.9648 18.2313 10.9648C21.048 10.9648 23.7881 11.9008 25.9424 13.627C28.0998 15.3556 29.5316 17.7688 29.9295 20.4361C30.0628 21.3295 29.4466 22.1617 28.5532 22.295C27.6598 22.4283 26.8276 21.8121 26.6943 20.9187C26.4244 19.1101 25.4462 17.4209 23.8971 16.1797C22.345 14.9361 20.333 14.2359 18.2313 14.2359Z" fill="#2B2727"/>
<path fill-rule="evenodd" clip-rule="evenodd" d="M32.6393 8.64077C30.7867 8.6339 28.9573 8.99064 27.2747 9.68344C25.5924 10.3762 24.1009 11.3866 22.8952 12.6393C22.2689 13.2901 21.2335 13.3099 20.5827 12.6836C19.9319 12.0572 19.912 11.0218 20.5384 10.371C22.0687 8.78103 23.9424 7.51808 26.0293 6.65876C28.1152 5.7999 30.3713 5.36171 32.6483 5.36974C34.7913 5.36995 36.9157 5.76074 38.8996 6.52228C40.8846 7.28422 42.6938 8.40393 44.2189 9.82275C45.7443 11.2418 46.9559 12.9328 47.7759 14.8016C48.596 16.6708 49.006 18.6766 48.9777 20.7008C48.9651 21.604 48.2227 22.326 47.3195 22.3134C46.4163 22.3008 45.6944 21.5584 45.707 20.6552C45.7286 19.1048 45.4151 17.5624 44.7805 16.1159C44.1456 14.6689 43.1999 13.3425 41.9909 12.2177C40.7815 11.0926 39.3335 10.1926 37.7274 9.57607C36.1212 8.95953 34.3935 8.64065 32.6455 8.64078L32.6393 8.64077Z" fill="#2B2727"/>
<path fill-rule="evenodd" clip-rule="evenodd" d="M31.8637 15.5626C30.2947 15.5356 28.787 16.0375 27.623 16.9469C26.9112 17.503 25.8833 17.3768 25.3272 16.665C24.7711 15.9532 24.8974 14.9253 25.6091 14.3692C27.3815 12.9845 29.6207 12.2556 31.9058 12.2918C34.4528 12.2946 36.9218 13.2101 38.7811 14.8792C40.6483 16.5552 41.7566 18.8664 41.8175 21.329C41.8399 22.232 41.126 22.9821 40.223 23.0045C39.32 23.0268 38.5698 22.3129 38.5475 21.4099C38.51 19.8935 37.8279 18.4191 36.5961 17.3133C35.3599 16.2037 33.6733 15.5624 31.8923 15.5628L31.8637 15.5626Z" fill="#2B2727"/>
<path fill-rule="evenodd" clip-rule="evenodd" d="M2.39661 0.909788C2.99079 0.229453 4.02398 0.159609 4.70432 0.753786L16.1981 10.792C16.8784 11.3862 16.9483 12.4194 16.3541 13.0997C15.7599 13.78 14.7267 13.8499 14.0464 13.2557L2.55261 3.2175C1.87228 2.62332 1.80243 1.59012 2.39661 0.909788Z" fill="#2B2727"/>
<path fill-rule="evenodd" clip-rule="evenodd" d="M1.07354 10.4345C1.66488 9.75166 2.69777 9.67751 3.38058 10.2689L9.97538 15.9802C10.6582 16.5716 10.7323 17.6045 10.141 18.2873C9.54965 18.9701 8.51676 19.0442 7.83395 18.4529L1.23915 12.7415C0.556346 12.1502 0.482199 11.1173 1.07354 10.4345Z" fill="#2B2727"/>
</svg>
