<svg width="51" height="51" viewBox="0 0 51 51" fill="none" xmlns="http://www.w3.org/2000/svg">
<path fill-rule="evenodd" clip-rule="evenodd" d="M2.58768 26.2998C2.89439 25.9931 3.3104 25.8208 3.74416 25.8208H49.3425C49.7763 25.8208 50.1923 25.9931 50.499 26.2998C50.8057 26.6066 50.978 27.0226 50.978 27.4563C50.978 33.4912 48.3668 39.2477 43.7712 43.4689C39.1802 47.6859 32.9811 50.0336 26.5434 50.0336C20.1056 50.0336 13.9065 47.6859 9.3155 43.4689C4.71987 39.2477 2.10864 33.4912 2.10864 27.4563C2.10864 27.0226 2.28096 26.6066 2.58768 26.2998ZM5.45581 29.0918C5.87369 33.5722 7.99959 37.8187 11.5283 41.0599C15.4886 44.6976 20.8877 46.7626 26.5434 46.7626C32.199 46.7626 37.598 44.6976 41.5584 41.0599C45.0871 37.8187 47.213 33.5722 47.6309 29.0918H5.45581Z" fill="white"/>
<path fill-rule="evenodd" clip-rule="evenodd" d="M18.535 13.9195C16.4332 13.9195 14.4212 14.6197 12.8692 15.8633C11.3201 17.1045 10.3418 18.7937 10.072 20.6023C9.93868 21.4957 9.1064 22.1119 8.21301 21.9786C7.31963 21.8453 6.70344 21.0131 6.83673 20.1197C7.23466 17.4524 8.66644 15.0392 10.8238 13.3106C12.9782 11.5844 15.7183 10.6484 18.535 10.6484C21.3517 10.6484 24.0918 11.5844 26.2461 13.3106C28.4035 15.0392 29.8353 17.4524 30.2332 20.1197C30.3665 21.0131 29.7503 21.8453 28.8569 21.9786C27.9635 22.1119 27.1313 21.4957 26.998 20.6023C26.7281 18.7937 25.7499 17.1045 24.2008 15.8633C22.6487 14.6197 20.6367 13.9195 18.535 13.9195Z" fill="white"/>
<path fill-rule="evenodd" clip-rule="evenodd" d="M32.943 8.32436C31.0904 8.3175 29.261 8.67424 27.5785 9.36703C25.8961 10.0598 24.4046 11.0702 23.1989 12.3229C22.5726 12.9737 21.5372 12.9935 20.8864 12.3672C20.2356 11.7408 20.2158 10.7054 20.8421 10.0546C22.3724 8.46463 24.2461 7.20168 26.333 6.34236C28.4189 5.4835 30.675 5.0453 32.952 5.05333C35.095 5.05354 37.2194 5.44433 39.2033 6.20587C41.1883 6.96781 42.9975 8.08752 44.5226 9.50634C46.048 10.9254 47.2596 12.6164 48.0796 14.4852C48.8997 16.3544 49.3097 18.3601 49.2814 20.3844C49.2688 21.2876 48.5264 22.0096 47.6232 21.997C46.7201 21.9844 45.9981 21.242 46.0107 20.3388C46.0323 18.7884 45.7189 17.246 45.0842 15.7995C44.4493 14.3525 43.5037 13.0261 42.2946 11.9013C41.0852 10.7762 39.6372 9.87615 38.0311 9.25966C36.425 8.64312 34.6972 8.32424 32.9492 8.32437L32.943 8.32436Z" fill="white"/>
<path fill-rule="evenodd" clip-rule="evenodd" d="M32.1674 15.2462C30.5984 15.2191 29.0907 15.7211 27.9267 16.6305C27.2149 17.1866 26.1871 17.0604 25.631 16.3486C25.0749 15.6368 25.2011 14.6089 25.9129 14.0528C27.6852 12.6681 29.9244 11.9392 32.2095 11.9754C34.7565 11.9782 37.2255 12.8937 39.0849 14.5628C40.952 16.2388 42.0603 18.55 42.1212 21.0126C42.1436 21.9156 41.4297 22.6657 40.5267 22.6881C39.6237 22.7104 38.8735 21.9965 38.8512 21.0935C38.8137 19.577 38.1316 18.1027 36.8998 16.9969C35.6636 15.8873 33.977 15.246 32.196 15.2464L32.1674 15.2462Z" fill="white"/>
<path fill-rule="evenodd" clip-rule="evenodd" d="M2.70032 0.593382C3.2945 -0.0869531 4.32769 -0.156798 5.00803 0.43738L16.5018 10.4756C17.1821 11.0698 17.252 12.103 16.6578 12.7833C16.0636 13.4636 15.0304 13.5335 14.3501 12.9393L2.85632 2.90109C2.17599 2.30691 2.10614 1.27372 2.70032 0.593382Z" fill="white"/>
<path fill-rule="evenodd" clip-rule="evenodd" d="M1.37725 10.1181C1.96859 9.43525 3.00148 9.36111 3.68429 9.95244L10.2791 15.6638C10.9619 16.2552 11.036 17.2881 10.4447 17.9709C9.85336 18.6537 8.82047 18.7278 8.13766 18.1365L1.54286 12.4251C0.860057 11.8338 0.78591 10.8009 1.37725 10.1181Z" fill="white"/>
</svg>
