<svg width="51" height="51" viewBox="0 0 51 51" fill="none" xmlns="http://www.w3.org/2000/svg">
<path fill-rule="evenodd" clip-rule="evenodd" d="M25.3776 3.79136C25.2843 3.68035 25.116 3.68035 25.0228 3.79136L6.80902 25.4758V46.7937C6.80902 46.9254 6.91362 47.0321 7.04266 47.0321H19.1143V34.1194C19.1143 32.9343 20.0558 31.9735 21.2171 31.9735H29.1833C30.3446 31.9735 31.2861 32.9343 31.2861 34.1194V47.0321H43.3577C43.4868 47.0321 43.5914 46.9254 43.5914 46.7937V25.4758L25.3776 3.79136ZM46.8624 29.1907V46.7937C46.8624 48.7689 45.2933 50.3701 43.3577 50.3701H7.04266C5.10708 50.3701 3.53799 48.7689 3.53799 46.7937V29.1907L3.04851 29.7428C2.4425 30.4263 1.40824 30.479 0.738434 29.8606C0.0686273 29.2422 0.0169145 28.1868 0.62293 27.5033L3.946 23.7552L22.5393 1.61903C23.938 -0.0461893 26.4624 -0.046186 27.8611 1.61903L32.4654 7.10067V4.00223C32.4654 2.81711 33.4069 1.85638 34.5682 1.85638H39.1966C40.358 1.85638 41.2994 2.81711 41.2994 4.00223V17.618L46.4544 23.7552L49.7775 27.5033C50.3835 28.1868 50.3318 29.2422 49.662 29.8606C48.9922 30.479 47.9579 30.4263 47.3519 29.7428L46.8624 29.1907ZM38.0284 13.7237V5.19436H35.7365V10.995L38.0284 13.7237ZM28.0151 47.0321V35.3115H22.3853V47.0321H28.0151Z" fill="white"/>
</svg>
