<svg width="51" height="51" viewBox="0 0 51 51" fill="none" xmlns="http://www.w3.org/2000/svg">
<path fill-rule="evenodd" clip-rule="evenodd" d="M25.7343 3.84459C25.641 3.73357 25.4727 3.73357 25.3795 3.84459L7.16571 25.529V46.8469C7.16571 46.9786 7.27031 47.0854 7.39935 47.0854H19.471V34.1726C19.471 32.9875 20.4125 32.0268 21.5738 32.0268H29.54C30.7013 32.0268 31.6428 32.9875 31.6428 34.1726V47.0854H43.7144C43.8435 47.0854 43.9481 46.9786 43.9481 46.8469V25.529L25.7343 3.84459ZM47.2191 29.2439V46.8469C47.2191 48.8221 45.65 50.4233 43.7144 50.4233H7.39935C5.46377 50.4233 3.89468 48.8221 3.89468 46.8469V29.2439L3.4052 29.796C2.79919 30.4795 1.76493 30.5323 1.09512 29.9139C0.425317 29.2954 0.373604 28.24 0.979619 27.5565L4.30269 23.8084L22.8959 1.67225C24.2946 0.00703335 26.8191 0.00703669 28.2178 1.67225L32.8221 7.15389V4.05545C32.8221 2.87033 33.7636 1.9096 34.9249 1.9096H39.5533C40.7147 1.9096 41.6561 2.87033 41.6561 4.05545V17.6712L46.8111 23.8085L50.1342 27.5565C50.7402 28.24 50.6885 29.2954 50.0187 29.9139C49.3488 30.5323 48.3146 30.4795 47.7086 29.796L47.2191 29.2439ZM38.3851 13.7769V5.24759H36.0932V11.0482L38.3851 13.7769ZM28.3717 47.0854V35.3648H22.742V47.0854H28.3717Z" fill="#2B2727"/>
</svg>
