<svg width="51" height="51" viewBox="0 0 51 51" fill="none" xmlns="http://www.w3.org/2000/svg">
<path fill-rule="evenodd" clip-rule="evenodd" d="M50.717 7.28983C50.717 8.19311 49.9848 8.92537 49.0815 8.92537L43.8894 8.92537C42.9861 8.92537 42.2539 8.19311 42.2539 7.28983C42.2539 6.38655 42.9861 5.6543 43.8894 5.6543L49.0815 5.6543C49.9848 5.6543 50.717 6.38655 50.717 7.28983ZM24.7565 7.28983C24.7565 8.19311 24.0243 8.92537 23.121 8.92537L2.35256 8.92537C1.44929 8.92537 0.717041 8.19311 0.717041 7.28983C0.717041 6.38655 1.44929 5.65429 2.35256 5.65429L23.121 5.6543C24.0243 5.6543 24.7565 6.38655 24.7565 7.28983Z" fill="white"/>
<path fill-rule="evenodd" clip-rule="evenodd" d="M50.717 25.4627C50.717 26.366 49.9848 27.0982 49.0815 27.0982L30.9092 27.0982C30.0059 27.0982 29.2736 26.366 29.2736 25.4627C29.2736 24.5594 30.0059 23.8271 30.9091 23.8271L49.0815 23.8271C49.9848 23.8271 50.717 24.5594 50.717 25.4627ZM11.7762 25.4627C11.7762 26.366 11.044 27.0982 10.1407 27.0982L2.35256 27.0982C1.44929 27.0982 0.717041 26.366 0.717041 25.4627C0.717045 24.5594 1.44929 23.8271 2.35256 23.8271L10.1407 23.8271C11.044 23.8271 11.7762 24.5594 11.7762 25.4627Z" fill="white"/>
<path fill-rule="evenodd" clip-rule="evenodd" d="M23.4067 25.4625C23.4067 23.4982 21.8144 21.9058 19.8501 21.9058C17.8859 21.9058 16.2935 23.4982 16.2935 25.4625C16.2935 27.4268 17.8859 29.0191 19.8501 29.0191C21.8144 29.0191 23.4067 27.4268 23.4067 25.4625ZM19.8501 18.6348C23.6209 18.6348 26.6777 21.6916 26.6777 25.4625C26.6777 29.2333 23.6209 32.2902 19.8501 32.2902C16.0793 32.2902 13.0225 29.2333 13.0225 25.4625C13.0225 21.6916 16.0793 18.6348 19.8501 18.6348Z" fill="white"/>
<path fill-rule="evenodd" clip-rule="evenodd" d="M37.0617 7.29011C37.0617 5.32584 35.4694 3.73347 33.5051 3.73347C31.5409 3.73347 29.9485 5.32584 29.9485 7.29011C29.9485 9.25439 31.5409 10.8468 33.5051 10.8468C35.4694 10.8468 37.0617 9.25439 37.0617 7.29011ZM33.5051 0.462402C37.2759 0.462402 40.3328 3.51927 40.3328 7.29011C40.3328 11.061 37.2759 14.1178 33.5051 14.1178C29.7343 14.1178 26.6775 11.061 26.6775 7.29011C26.6775 3.51927 29.7344 0.462402 33.5051 0.462402Z" fill="white"/>
<path fill-rule="evenodd" clip-rule="evenodd" d="M50.717 43.635C50.717 44.5383 49.9848 45.2706 49.0815 45.2706L43.8894 45.2706C42.9861 45.2706 42.2539 44.5383 42.2539 43.635C42.2539 42.7318 42.9861 41.9995 43.8894 41.9995L49.0815 41.9995C49.9848 41.9995 50.717 42.7318 50.717 43.635ZM24.7565 43.635C24.7565 44.5383 24.0243 45.2706 23.121 45.2706L2.35256 45.2706C1.44929 45.2706 0.717041 44.5383 0.717041 43.635C0.717041 42.7318 1.44929 41.9995 2.35256 41.9995L23.121 41.9995C24.0243 41.9995 24.7565 42.7318 24.7565 43.635Z" fill="white"/>
<path fill-rule="evenodd" clip-rule="evenodd" d="M37.0617 43.6344C37.0617 41.6701 35.4694 40.0777 33.5051 40.0777C31.5409 40.0777 29.9485 41.6701 29.9485 43.6344C29.9485 45.5986 31.5409 47.191 33.5051 47.191C35.4694 47.191 37.0617 45.5986 37.0617 43.6344ZM33.5051 36.8066C37.2759 36.8066 40.3328 39.8635 40.3328 43.6344C40.3328 47.4052 37.2759 50.4621 33.5051 50.4621C29.7343 50.4621 26.6775 47.4052 26.6775 43.6344C26.6775 39.8635 29.7344 36.8066 33.5051 36.8066Z" fill="white"/>
</svg>
