<svg width="51" height="51" viewBox="0 0 51 51" fill="none" xmlns="http://www.w3.org/2000/svg">
<path fill-rule="evenodd" clip-rule="evenodd" d="M50.9302 6.92753C50.9302 7.83081 50.1979 8.56306 49.2947 8.56306L44.1026 8.56306C43.1993 8.56306 42.467 7.83081 42.467 6.92753C42.467 6.02425 43.1993 5.29199 44.1026 5.29199L49.2947 5.29199C50.1979 5.29199 50.9302 6.02425 50.9302 6.92753ZM24.9696 6.92753C24.9696 7.83081 24.2374 8.56306 23.3341 8.56306L2.56569 8.56306C1.66242 8.56306 0.930176 7.83081 0.930176 6.92753C0.930176 6.02424 1.66242 5.29199 2.56569 5.29199L23.3341 5.29199C24.2374 5.29199 24.9696 6.02425 24.9696 6.92753Z" fill="#2B2727"/>
<path fill-rule="evenodd" clip-rule="evenodd" d="M50.9302 25.1004C50.9302 26.0037 50.1979 26.7359 49.2947 26.7359L31.1223 26.7359C30.219 26.7359 29.4868 26.0037 29.4868 25.1004C29.4868 24.1971 30.219 23.4648 31.1223 23.4648L49.2947 23.4648C50.1979 23.4648 50.9302 24.1971 50.9302 25.1004ZM11.9894 25.1004C11.9894 26.0037 11.2571 26.7359 10.3539 26.7359L2.56569 26.7359C1.66242 26.7359 0.930176 26.0037 0.930176 25.1004C0.93018 24.1971 1.66242 23.4648 2.56569 23.4648L10.3539 23.4648C11.2571 23.4648 11.9894 24.1971 11.9894 25.1004Z" fill="#2B2727"/>
<path fill-rule="evenodd" clip-rule="evenodd" d="M23.6198 25.1002C23.6198 23.1359 22.0275 21.5435 20.0632 21.5435C18.099 21.5435 16.5067 23.1359 16.5067 25.1002C16.5067 27.0645 18.099 28.6568 20.0632 28.6568C22.0275 28.6568 23.6198 27.0645 23.6198 25.1002ZM20.0632 18.2725C23.834 18.2725 26.8909 21.3293 26.8909 25.1002C26.8909 28.871 23.834 31.9279 20.0632 31.9279C16.2925 31.9279 13.2356 28.871 13.2356 25.1002C13.2356 21.3293 16.2925 18.2725 20.0632 18.2725Z" fill="#2B2727"/>
<path fill-rule="evenodd" clip-rule="evenodd" d="M37.2749 6.92781C37.2749 4.96353 35.6825 3.37117 33.7183 3.37117C31.754 3.37117 30.1617 4.96353 30.1617 6.92781C30.1617 8.89209 31.754 10.4845 33.7183 10.4845C35.6825 10.4845 37.2749 8.89209 37.2749 6.92781ZM33.7183 0.100097C37.4891 0.100098 40.5459 3.15697 40.5459 6.92781C40.5459 10.6987 37.4891 13.7555 33.7183 13.7555C29.9475 13.7555 26.8907 10.6987 26.8907 6.92781C26.8907 3.15697 29.9475 0.100097 33.7183 0.100097Z" fill="#2B2727"/>
<path fill-rule="evenodd" clip-rule="evenodd" d="M50.9302 43.2727C50.9302 44.176 50.1979 44.9083 49.2947 44.9083L44.1026 44.9083C43.1993 44.9083 42.467 44.176 42.467 43.2727C42.467 42.3695 43.1993 41.6372 44.1026 41.6372L49.2947 41.6372C50.1979 41.6372 50.9302 42.3695 50.9302 43.2727ZM24.9696 43.2727C24.9696 44.176 24.2374 44.9083 23.3341 44.9083L2.56569 44.9083C1.66242 44.9083 0.930176 44.176 0.930176 43.2727C0.930176 42.3695 1.66242 41.6372 2.56569 41.6372L23.3341 41.6372C24.2374 41.6372 24.9696 42.3695 24.9696 43.2727Z" fill="#2B2727"/>
<path fill-rule="evenodd" clip-rule="evenodd" d="M37.2749 43.272C37.2749 41.3078 35.6825 39.7154 33.7183 39.7154C31.754 39.7154 30.1617 41.3078 30.1617 43.272C30.1617 45.2363 31.754 46.8287 33.7183 46.8287C35.6825 46.8287 37.2749 45.2363 37.2749 43.272ZM33.7183 36.4443C37.4891 36.4443 40.5459 39.5012 40.5459 43.272C40.5459 47.0429 37.4891 50.0998 33.7183 50.0998C29.9475 50.0998 26.8907 47.0429 26.8907 43.272C26.8907 39.5012 29.9475 36.4443 33.7183 36.4443Z" fill="#2B2727"/>
</svg>
