<svg width="51" height="51" viewBox="0 0 51 51" fill="none" xmlns="http://www.w3.org/2000/svg">
<path fill-rule="evenodd" clip-rule="evenodd" d="M0.898926 8.52761C0.898926 6.59204 2.46802 5.02295 4.40359 5.02295H44.9347C46.8703 5.02295 48.4394 6.59204 48.4394 8.52761V25.35C48.4394 26.2533 47.7071 26.9855 46.8039 26.9855C45.9006 26.9855 45.1684 26.2533 45.1684 25.35V8.52761C45.1684 8.39857 45.0638 8.29397 44.9347 8.29397H4.40359C4.27455 8.29397 4.16995 8.39857 4.16995 8.52761V44.5088C4.16995 44.6378 4.27455 44.7424 4.40359 44.7424H24.6692C25.5724 44.7424 26.3047 45.4747 26.3047 46.378C26.3047 47.2812 25.5724 48.0135 24.6692 48.0135H4.40359C2.46802 48.0135 0.898926 46.4444 0.898926 44.5088V8.52761Z" fill="#2B2727"/>
<path fill-rule="evenodd" clip-rule="evenodd" d="M39.4258 31.6582C34.8158 31.6582 31.2237 35.1883 31.2237 39.3685C31.2237 43.5487 34.8158 47.0787 39.4258 47.0787C44.0358 47.0787 47.6279 43.5487 47.6279 39.3685C47.6279 35.1883 44.0358 31.6582 39.4258 31.6582ZM27.9526 39.3685C27.9526 33.2257 33.1694 28.3872 39.4258 28.3872C45.6822 28.3872 50.899 33.2257 50.899 39.3685C50.899 45.5113 45.6822 50.3498 39.4258 50.3498C33.1694 50.3498 27.9526 45.5113 27.9526 39.3685Z" fill="#2B2727"/>
<path fill-rule="evenodd" clip-rule="evenodd" d="M44.3002 37.0745C43.6781 36.4196 42.6429 36.3931 41.988 37.0152L38.2989 40.5199C37.644 41.142 37.6175 42.1772 38.2396 42.8321C38.8617 43.4869 39.897 43.5135 40.5518 42.8913L44.2409 39.3867C44.8958 38.7646 44.9224 37.7294 44.3002 37.0745Z" fill="#2B2727"/>
<path fill-rule="evenodd" clip-rule="evenodd" d="M40.6113 42.8323C41.2334 42.1774 41.2068 41.1422 40.552 40.5201L38.0926 38.1836C37.4377 37.5615 36.4025 37.588 35.7804 38.2429C35.1582 38.8978 35.1848 39.933 35.8397 40.5551L38.2991 42.8915C38.9539 43.5137 39.9891 43.4871 40.6113 42.8323Z" fill="#2B2727"/>
<path fill-rule="evenodd" clip-rule="evenodd" d="M14.8315 0.350098C15.7348 0.350098 16.467 1.08234 16.467 1.98561V12.4996C16.467 13.4029 15.7348 14.1351 14.8315 14.1351C13.9282 14.1351 13.196 13.4029 13.196 12.4996V1.98561C13.196 1.08234 13.9282 0.350098 14.8315 0.350098ZM34.5068 0.350098C35.4101 0.350098 36.1423 1.08234 36.1423 1.98561V12.4996C36.1423 13.4029 35.4101 14.1351 34.5068 14.1351C33.6035 14.1351 32.8713 13.4029 32.8713 12.4996V1.98561C32.8713 1.08234 33.6035 0.350098 34.5068 0.350098ZM0.898926 18.3407C0.898926 17.4374 1.63117 16.7052 2.53444 16.7052H46.8039C47.7071 16.7052 48.4394 17.4374 48.4394 18.3407C48.4394 19.244 47.7071 19.9762 46.8039 19.9762H2.53444C1.63117 19.9762 0.898926 19.244 0.898926 18.3407Z" fill="#2B2727"/>
</svg>
