<svg width="51" height="51" viewBox="0 0 51 51" fill="none" xmlns="http://www.w3.org/2000/svg">
<path fill-rule="evenodd" clip-rule="evenodd" d="M0.280273 8.54763C0.280273 6.61206 1.84937 5.04297 3.78494 5.04297H44.3161C46.2516 5.04297 47.8207 6.61206 47.8207 8.54763V25.37C47.8207 26.2733 47.0885 27.0055 46.1852 27.0055C45.282 27.0055 44.5497 26.2733 44.5497 25.37V8.54763C44.5497 8.41859 44.4451 8.31399 44.3161 8.31399H3.78494C3.6559 8.31399 3.55129 8.41859 3.55129 8.54763V44.5288C3.55129 44.6579 3.6559 44.7625 3.78494 44.7625H24.0505C24.9538 44.7625 25.686 45.4947 25.686 46.398C25.686 47.3012 24.9538 48.0335 24.0505 48.0335H3.78494C1.84937 48.0335 0.280273 46.4644 0.280273 44.5288V8.54763Z" fill="white"/>
<path fill-rule="evenodd" clip-rule="evenodd" d="M38.8071 31.6782C34.1972 31.6782 30.605 35.2083 30.605 39.3885C30.605 43.5687 34.1972 47.0988 38.8071 47.0988C43.4171 47.0988 47.0093 43.5687 47.0093 39.3885C47.0093 35.2083 43.4171 31.6782 38.8071 31.6782ZM27.334 39.3885C27.334 33.2457 32.5508 28.4072 38.8071 28.4072C45.0635 28.4072 50.2803 33.2457 50.2803 39.3885C50.2803 45.5313 45.0635 50.3698 38.8071 50.3698C32.5508 50.3698 27.334 45.5313 27.334 39.3885Z" fill="white"/>
<path fill-rule="evenodd" clip-rule="evenodd" d="M43.6816 37.0945C43.0595 36.4396 42.0242 36.4131 41.3694 37.0352L37.6803 40.5399C37.0254 41.162 36.9988 42.1972 37.621 42.8521C38.2431 43.5069 39.2783 43.5335 39.9332 42.9114L43.6223 39.4067C44.2772 38.7846 44.3037 37.7494 43.6816 37.0945Z" fill="white"/>
<path fill-rule="evenodd" clip-rule="evenodd" d="M39.9926 42.8523C40.6147 42.1974 40.5882 41.1622 39.9333 40.5401L37.4739 38.2036C36.819 37.5815 35.7838 37.6081 35.1617 38.2629C34.5396 38.9178 34.5661 39.953 35.221 40.5751L37.6804 42.9116C38.3353 43.5337 39.3705 43.5071 39.9926 42.8523Z" fill="white"/>
<path fill-rule="evenodd" clip-rule="evenodd" d="M14.2128 0.370117C15.1161 0.370117 15.8484 1.10236 15.8484 2.00563V12.5196C15.8484 13.4229 15.1161 14.1551 14.2128 14.1551C13.3096 14.1551 12.5773 13.4229 12.5773 12.5196V2.00563C12.5773 1.10236 13.3096 0.370117 14.2128 0.370117ZM33.8882 0.370117C34.7914 0.370117 35.5237 1.10236 35.5237 2.00563V12.5196C35.5237 13.4229 34.7914 14.1551 33.8882 14.1551C32.9849 14.1551 32.2526 13.4229 32.2526 12.5196V2.00563C32.2526 1.10236 32.9849 0.370117 33.8882 0.370117ZM0.280273 18.3607C0.280273 17.4574 1.01252 16.7252 1.91578 16.7252H46.1852C47.0885 16.7252 47.8207 17.4574 47.8207 18.3607C47.8207 19.264 47.0885 19.9962 46.1852 19.9962H1.91578C1.01252 19.9962 0.280273 19.264 0.280273 18.3607Z" fill="white"/>
</svg>
