<svg width="51" height="51" viewBox="0 0 51 51" fill="none" xmlns="http://www.w3.org/2000/svg">
<path d="M47.1312 3.13574H39.4229C39.284 3.13574 39.2146 3.20519 39.1451 3.27463C39.0757 3.34408 39.0757 3.48296 39.0757 3.62185L40.6035 9.80241C40.6729 9.9413 40.8118 10.0802 40.9507 10.0802H45.534C45.7423 10.0802 45.8812 9.9413 45.8812 9.80241L47.409 3.62185C47.409 3.48296 47.409 3.41352 47.3396 3.27463C47.3396 3.20519 47.2701 3.13574 47.1312 3.13574ZM45.3257 9.3163H41.2979L39.9785 3.89963H46.7146L45.3257 9.3163Z" fill="black" stroke="black"/>
<path d="M41.0202 18.5526H23.3118L20.1174 15.3581V10.0109C20.1174 9.87202 20.1174 9.73313 20.0479 9.59424C19.8396 9.80257 19.5618 9.94146 19.284 10.0803V15.497C19.284 15.5665 19.3535 15.7053 19.4229 15.7748L22.8952 19.247C22.9646 19.3165 23.034 19.3859 23.1729 19.3859H41.0202C41.6452 19.3859 42.2007 19.872 42.2007 20.5665C42.2007 21.1915 41.7146 21.747 41.0202 21.747H28.659C28.4507 21.747 28.2424 21.8859 28.2424 22.1637V29.4553H22.8257V22.7887C22.8257 22.7192 22.7563 22.5803 22.6868 22.5109L17.2702 17.0942C17.0618 16.8859 16.9229 16.6081 16.9229 16.2609V10.2192C16.6452 10.0803 16.4368 9.94146 16.159 9.73313C16.159 9.87202 16.0896 10.0109 16.0896 10.1498V16.3303C16.0896 16.8165 16.2979 17.3026 16.6452 17.7192L21.9924 23.0665V29.9415V37.2331H19.284C18.2424 37.2331 17.3396 38.0665 17.3396 39.1776C17.3396 40.2192 18.1729 41.0526 19.2146 41.122L17.2702 42.997C16.9229 43.3442 16.7146 43.8303 16.7146 44.3859C16.7146 44.9415 16.9229 45.3581 17.2702 45.7748C17.6174 46.122 18.1035 46.3303 18.659 46.3303C19.2146 46.3303 19.6313 46.122 20.0479 45.7748L24.909 40.9137H27.2007C28.2424 40.9137 29.1452 40.0803 29.1452 38.9692V29.6637V22.372H41.0896C42.1313 22.372 43.034 21.5387 43.034 20.4276C42.8952 19.3859 42.0618 18.5526 41.0202 18.5526ZM18.3118 38.8998C18.3118 38.2748 18.7979 37.7192 19.4924 37.7192H22.1313V38.0665L20.1868 40.0109H19.4229C18.7979 40.0803 18.3118 39.5942 18.3118 38.8998ZM28.3118 37.372V38.8998C28.3118 39.5248 27.8257 40.0803 27.1313 40.0803H25.6035C25.8813 39.7331 26.0202 39.3165 26.0202 38.8998V37.7192V36.9553V32.7192C26.0202 32.5109 25.8813 32.3026 25.6035 32.3026C25.3952 32.3026 25.1868 32.4415 25.1868 32.7192V36.9553V37.7192V38.8998C25.1868 39.1776 25.0479 39.5248 24.8396 39.7331L24.4924 40.0803L23.7285 40.8442L19.4229 45.1498C19.0063 45.5665 18.2424 45.5665 17.8257 45.1498C17.6174 44.9415 17.4785 44.6637 17.4785 44.3165C17.4785 43.9692 17.6174 43.6915 17.8257 43.4831L20.534 40.7748L21.2979 40.0109L22.8257 38.4831C22.8952 38.4137 22.9646 38.3442 22.9646 38.2053V37.7192V36.9553V30.0109H28.3813V37.372H28.3118Z" fill="black" stroke="black"/>
<path d="M25.6034 17.7887C27.0617 17.7887 28.3117 16.6082 28.3117 15.0804C28.3117 13.5526 27.1311 12.3721 25.6034 12.3721C24.145 12.3721 22.895 13.5526 22.895 15.0804C22.895 16.6082 24.145 17.7887 25.6034 17.7887ZM25.6034 13.136C26.645 13.136 27.5478 13.9693 27.5478 15.0804C27.5478 16.1221 26.7145 17.0248 25.6034 17.0248C24.4922 17.0248 23.6589 16.1915 23.6589 15.0804C23.6589 14.0387 24.5617 13.136 25.6034 13.136Z" fill="black" stroke="black"/>
<path d="M18.1728 10.3581C18.5895 10.3581 19.0062 10.2886 19.3534 10.0803C19.6312 9.94141 19.8395 9.80252 20.1173 9.59418C20.6034 9.10807 20.9506 8.41363 20.9506 7.64974C20.9506 6.19141 19.77 4.94141 18.2423 4.94141C16.7145 4.94141 15.5339 6.12196 15.5339 7.64974C15.5339 8.41363 15.8117 9.10807 16.3673 9.59418C16.5756 9.80252 16.8534 9.94141 17.1312 10.0803C17.3395 10.2192 17.7562 10.3581 18.1728 10.3581ZM16.645 8.8303C16.3673 8.48307 16.2284 8.13585 16.2284 7.64974C16.2284 6.60807 17.0617 5.7053 18.1728 5.7053C19.2839 5.7053 20.1173 6.53863 20.1173 7.64974C20.1173 8.06641 19.9784 8.48307 19.7006 8.8303C19.5617 9.03863 19.3534 9.17752 19.145 9.31641C18.8673 9.4553 18.52 9.59418 18.1728 9.59418C17.8256 9.59418 17.4784 9.52474 17.2006 9.31641C16.9923 9.17752 16.7839 9.03863 16.645 8.8303Z" fill="black" stroke="black"/>
</svg>
