<svg width="51" height="51" viewBox="0 0 51 51" fill="none" xmlns="http://www.w3.org/2000/svg">
<g clip-path="url(#clip0_267_1280)">
<path d="M19.1033 17.5079C19.8176 17.5079 20.5319 17.2698 21.0875 16.7142C21.643 16.1587 21.8811 15.5238 21.8811 14.7301C21.8811 14.0158 21.5636 13.3015 21.0875 12.746C20.0557 11.7142 18.2303 11.7142 17.1986 12.746C16.0875 13.8571 16.0875 15.6031 17.1986 16.6349C17.6748 17.1904 18.389 17.5079 19.1033 17.5079ZM17.6748 13.3015C18.0716 12.9047 18.5478 12.746 19.1033 12.746C19.6589 12.746 20.1351 12.9841 20.5319 13.3015C20.9287 13.6984 21.0875 14.1745 21.0875 14.7301C21.0875 15.2857 20.8494 15.7619 20.5319 16.1587C19.7383 16.9523 18.4684 16.9523 17.7541 16.1587C16.9605 15.365 16.9605 14.0952 17.6748 13.3015Z" fill="black" stroke="black"/>
<path d="M26.0875 9.17432C26.3255 9.41241 26.4049 9.72987 26.4049 10.0473V17.9838C26.4049 18.0632 26.4843 18.2219 26.4843 18.3013L31.3255 23.1426L27.4367 27.0315L22.5954 22.1902C22.5954 22.1108 22.516 22.0315 22.3573 22.0315H8.07158C7.43666 22.0315 6.8811 21.4759 6.8811 20.841C6.8811 20.2061 7.43666 19.6505 8.07158 19.6505H20.1351C20.2144 19.6505 20.3732 19.5711 20.4525 19.5711L24.024 15.9997C24.1033 15.9203 24.1033 15.841 24.1033 15.6823V10.6823C24.1033 10.6029 24.024 10.4442 24.024 10.3648L19.9763 6.31717L19.4208 6.95209L23.3097 10.841V15.5235L19.9763 18.8569H8.07158C7.59539 18.8569 7.19856 19.0156 6.8811 19.2537V22.4283C7.19856 22.6664 7.67475 22.8251 8.07158 22.8251H22.1986L26.9605 27.587L22.7541 31.7934C22.3573 32.1902 22.1986 32.6664 22.1986 33.2219V41.1584C22.1986 42.2696 23.0716 43.1426 24.1827 43.1426C25.2938 43.1426 26.1668 42.2696 26.1668 41.1584V34.0156L32.0398 28.1426L36.2462 32.3489C36.643 32.7457 37.1192 32.9045 37.6748 32.9045H45.6113C46.7224 32.9045 47.5954 32.0315 47.5954 30.9203C47.5954 29.8092 46.7224 28.9362 45.6113 28.9362H38.4684L32.2779 22.8251L27.2779 17.8251V10.0473C27.2779 9.49178 27.0398 9.01559 26.7224 8.61876L22.2779 4.17432L21.7224 4.72987L26.0875 9.17432ZM38.3097 29.8092H45.6113C46.2462 29.8092 46.8017 30.3648 46.8017 30.9997C46.8017 31.6346 46.2462 32.1902 45.6113 32.1902H37.6748C37.3573 32.1902 37.0398 32.0315 36.8017 31.8727L32.2779 27.3489C32.1192 27.1902 31.8811 27.1902 31.7224 27.3489L25.4525 33.6188C25.3732 33.6981 25.3732 33.7775 25.3732 33.9362V41.2378C25.3732 41.8727 24.8176 42.4283 24.1827 42.4283C23.5478 42.4283 22.9922 41.8727 22.9922 41.2378V33.3013C22.9922 32.9838 23.1509 32.6664 23.3097 32.4283L27.8335 27.9045L32.0398 23.6981L37.9922 29.6505C38.0716 29.7299 38.1509 29.8092 38.3097 29.8092Z" fill="black" stroke="black"/>
<path d="M7.6747 44.0157L10.8493 40.8411C11.5636 40.1268 11.8811 39.2538 11.8811 38.3014C11.8811 37.3491 11.4842 36.476 10.8493 35.7618L7.6747 32.5872C7.11915 32.0316 6.88105 31.3173 6.88105 30.603V22.3491V19.1745V15.9999C6.88105 14.4919 8.15089 13.2221 9.65883 13.2221H11.4842C12.4366 13.2221 13.3096 12.8253 14.0239 12.1903L19.4207 6.95223L19.9763 6.39668L21.643 4.73001L22.1985 4.17446L25.6906 0.603027H25.135H24.5795L21.4842 3.69827L20.8493 4.33319L19.5795 5.60303L18.9445 6.23795L13.4684 11.7141C12.9128 12.2697 12.2779 12.5078 11.4842 12.5078H9.65883C7.6747 12.5078 6.0874 14.0951 6.0874 16.0792V30.603C6.0874 31.5554 6.48423 32.4284 7.11915 33.1427L10.2938 36.3173C11.4049 37.4284 11.4049 39.1745 10.2938 40.2856L7.11915 43.4602C6.48423 44.0951 6.0874 45.0475 6.0874 45.9999V50.603H6.48423H6.88105V45.9999C6.88105 45.2856 7.19851 44.5713 7.6747 44.0157Z" fill="black" stroke="black"/>
</g>
<defs>
<clipPath id="clip0_267_1280">
<rect width="50" height="50" fill="white" transform="translate(0.373047 0.603027)"/>
</clipPath>
</defs>
</svg>
