<svg width="51" height="51" viewBox="0 0 51 51" fill="none" xmlns="http://www.w3.org/2000/svg">
<path d="M40.8254 19.2352C42.3333 19.2352 43.6032 17.9654 43.6032 16.4575C43.6032 14.9495 42.3333 13.6797 40.8254 13.6797C39.3174 13.6797 38.0476 14.9495 38.0476 16.4575C38.0476 17.9654 39.2381 19.2352 40.8254 19.2352ZM40.8254 14.4733C41.9365 14.4733 42.8095 15.3464 42.8095 16.4575C42.8095 17.5686 41.8571 18.4416 40.8254 18.4416C39.7936 18.4416 38.8413 17.5686 38.8413 16.4575C38.8413 15.3464 39.7143 14.4733 40.8254 14.4733Z" fill="black" stroke="black"/>
<path d="M38.524 23.2827L39.4764 24.2351C42.7303 25.0287 45.1907 28.0446 45.1907 31.5367C45.1907 35.6637 41.778 39.0764 37.651 39.0764C33.524 39.0764 30.1113 35.6637 30.1113 31.5367C30.1113 28.5208 31.8573 25.9811 34.397 24.7113L33.8415 24.1557C33.8415 24.1557 33.8415 24.1557 33.7621 24.0764C31.0637 25.5049 29.2383 28.2827 29.2383 31.4573C29.2383 36.0605 32.9684 39.7907 37.5716 39.7907C42.1748 39.7907 45.9049 36.0605 45.9049 31.4573C45.9843 27.251 42.651 23.6795 38.524 23.2827Z" fill="black" stroke="black"/>
<path d="M12.889 23.2036C8.28582 23.2036 4.55566 26.9338 4.55566 31.5369C4.55566 36.1401 8.36519 39.8703 12.889 39.8703C17.4128 39.8703 21.2223 36.1401 21.2223 31.5369C21.2223 26.9338 17.4922 23.2036 12.889 23.2036ZM12.889 39.0766C8.76201 39.0766 5.34931 35.6639 5.34931 31.5369C5.34931 27.41 8.76201 23.9973 12.889 23.9973C17.016 23.9973 20.4287 27.41 20.4287 31.5369C20.4287 35.6639 17.0953 39.0766 12.889 39.0766Z" fill="black" stroke="black"/>
<path d="M34.397 24.7908L38.2859 28.6797C38.6827 29.0765 39.2383 29.3146 39.7939 29.3146C40.27 29.3146 40.6669 29.1559 41.0637 28.8384C41.5399 28.4416 41.778 27.886 41.778 27.3305C41.778 26.7749 41.5399 26.2987 41.2224 25.9019L39.5558 24.2352L38.6034 23.2829L37.3335 22.013V16.4575C37.3335 14.9495 36.0637 13.6797 34.5558 13.6797H25.8256C25.0319 13.6797 24.397 13.9971 23.8415 14.4733L22.7304 15.5844C22.7304 15.5844 22.7304 15.6638 22.651 15.6638C22.5716 15.7432 22.4923 15.8225 22.4923 15.9019C22.4923 15.9813 22.4129 15.9813 22.4129 16.0606C22.3335 16.2194 22.2542 16.3781 22.2542 16.5368C22.2542 16.6956 22.1748 16.7749 22.1748 16.9337V32.8067C22.1748 33.9178 23.0478 34.7908 24.1589 34.7908C25.27 34.7908 26.1431 33.9178 26.1431 32.8067V30.1083L31.6986 24.5527C32.0954 24.1559 32.2542 23.6797 32.2542 23.1241C32.2542 22.5686 32.0161 22.0924 31.6986 21.6956L29.0796 19.2352H33.2859V22.8067C33.2859 23.2829 33.4446 23.7591 33.8415 24.1559C33.8415 24.1559 33.8415 24.1559 33.9208 24.2352L34.397 24.7908ZM22.8097 18.6797L25.1907 21.0606V25.4257L23.1272 27.4892C22.9685 27.6479 22.8891 27.8067 22.8097 27.9654V18.6797ZM25.1907 32.886C25.1907 33.521 24.6351 34.0765 24.0002 34.0765C23.3653 34.0765 22.8097 33.521 22.8097 32.886V29.7114C22.8891 29.8702 23.0478 30.0289 23.1272 30.1876C23.524 30.5844 24.0002 30.7432 24.5558 30.7432C24.7939 30.7432 24.9526 30.6638 25.1907 30.6638V32.886ZM31.0637 22.4098C31.3018 22.6479 31.3812 22.9654 31.3812 23.2829C31.3812 23.6003 31.2224 23.9178 31.0637 24.1559L26.0637 29.1559L25.5081 29.7114C25.4288 29.7908 25.3494 29.7908 25.27 29.8702C24.7939 30.1876 24.2383 30.1083 23.7621 29.7114C23.524 29.4733 23.4446 29.1559 23.4446 28.8384C23.4446 28.521 23.6034 28.2035 23.7621 27.9654L25.27 26.5368L26.0637 25.7432L28.2859 23.521C28.3653 23.4416 28.3653 23.3622 28.3653 23.2035C28.3653 23.1241 28.2859 22.9654 28.2859 22.886L26.0637 20.6638L25.27 19.8702L23.7621 18.4416L23.2066 17.886C22.9685 17.6479 22.8891 17.3305 22.8891 17.013C22.8891 16.9337 22.8891 16.8543 22.8891 16.7749C22.8891 16.6956 22.9685 16.6162 22.9685 16.5368C23.0478 16.4575 23.1272 16.2987 23.2066 16.2194C23.2066 16.2194 23.2066 16.2194 23.2066 16.14L23.3653 15.9813L24.0002 15.3464L24.7939 16.14L24.8732 16.2194L25.9843 17.3305L27.0954 18.4416L27.4923 18.8384L27.8891 19.2352L31.0637 22.4098ZM25.9843 24.6321V21.8543L27.3335 23.2035L25.9843 24.6321ZM33.6827 16.8543C33.4446 16.8543 33.2859 17.013 33.2859 17.2511V18.4416H28.2859L25.5081 15.6638C25.5081 15.6638 25.5081 15.6638 25.4288 15.5844L24.6351 14.7908C24.9526 14.5527 25.3494 14.4733 25.7462 14.4733H34.4764C35.5875 14.4733 36.4605 15.3464 36.4605 16.4575V16.5368V16.6956V22.0924C36.4605 22.1718 36.5399 22.3305 36.5399 22.4098L37.3335 23.2035L38.1272 23.9971L40.5875 26.4575C40.8256 26.6956 40.905 27.013 40.905 27.3305C40.905 27.6479 40.7462 28.0448 40.5081 28.2035C40.0319 28.6003 39.3177 28.521 38.8415 28.0448L35.1907 24.4733L34.5558 23.8384L34.397 23.6797C34.1589 23.4416 34.0796 23.1241 34.0796 22.8067V18.8384V18.521V17.2511V17.1718C34.0002 17.013 33.8415 16.8543 33.6827 16.8543Z" fill="black" stroke="black"/>
</svg>
