<svg width="50" height="51" viewBox="0 0 50 51" fill="none" xmlns="http://www.w3.org/2000/svg">
<path d="M10.873 28.7593C8.254 28.7593 5.71432 29.791 3.88892 31.6958L3.49209 32.0926C3.33336 32.2513 3.33336 32.4894 3.49209 32.6482C3.57146 32.7275 3.65082 32.7275 3.73019 32.7275C3.80955 32.7275 3.96828 32.7275 4.04765 32.6482L4.44448 32.2513C6.11114 30.5847 8.49209 29.5529 10.873 29.5529H21.1905L20.3969 28.7593H10.873Z" fill="black" stroke="black"/>
<path d="M27.6984 26.1403C26.9047 26.934 26.1111 27.4895 25.1587 27.9657L25.7936 28.6006C26.746 28.1244 27.5396 27.4895 28.3333 26.7752L32.5396 22.4102H31.4285L27.6984 26.1403Z" fill="black" stroke="black"/>
<path d="M46.5872 14.4736H44.9999H43.4126C40.7936 14.4736 38.2539 15.5054 36.4285 17.4101L34.365 19.4736C34.5237 19.7117 34.6031 20.0292 34.6031 20.3466L36.984 17.9657C38.7301 16.2197 41.0317 15.2673 43.4126 15.2673H44.6031V26.0609C44.6031 26.6959 44.1269 27.172 43.492 27.172C43.0951 27.172 42.6983 26.9339 42.5396 26.6165L40.6348 23.3625C40.4761 23.2038 40.238 23.2038 40.0793 23.2832C39.9205 23.3625 39.8412 23.6006 39.9205 23.8387L41.8253 27.0927C42.1428 27.6482 42.7777 28.0451 43.492 28.0451C44.5237 28.0451 45.3967 27.172 45.3967 26.1403V15.2673H46.5872C46.8253 15.2673 46.984 15.1086 46.984 14.8705C46.984 14.6324 46.8253 14.4736 46.5872 14.4736Z" fill="black" stroke="black"/>
<path d="M21.1906 12.8861C22.6986 12.8861 23.9684 11.6163 23.9684 10.1083C23.9684 8.60041 22.7779 7.33057 21.1906 7.33057C19.6033 7.33057 18.4128 8.60041 18.4128 10.1083C18.4128 11.6163 19.6827 12.8861 21.1906 12.8861ZM21.1906 8.12422C22.3017 8.12422 23.1747 8.99723 23.1747 10.1083C23.1747 11.2195 22.3017 12.0925 21.1906 12.0925C20.0795 12.0925 19.2065 11.2195 19.2065 10.1083C19.2065 8.99723 20.0795 8.12422 21.1906 8.12422Z" fill="black" stroke="black"/>
<path d="M32.6192 18.4416H27.0636L23.1747 14.5527C23.0954 14.4733 23.016 14.394 22.9366 14.3146C22.9366 14.3146 22.9366 14.3146 22.8573 14.2352C22.6985 14.1559 22.5398 13.9971 22.3811 13.9178C22.3811 13.9178 22.3811 13.9178 22.3017 13.9178C22.143 13.8384 22.0636 13.8384 21.9049 13.7591H21.8255C21.6668 13.7591 21.4287 13.6797 21.27 13.6797C19.762 13.6797 18.4922 14.9495 18.4922 16.4575V25.1876V26.7749C18.4922 27.886 19.3652 28.7591 20.4763 28.7591L21.27 29.5527L24.9208 33.2035V40.3464C24.9208 41.4575 25.7938 42.3305 26.9049 42.3305C28.016 42.3305 28.889 41.4575 28.889 40.3464V32.4098C28.889 31.8543 28.6509 31.3781 28.3335 30.9813L25.7938 28.4416L25.1589 27.8067L24.0477 26.6956V25.1083V20.8225L24.9208 21.6956C25.3176 22.0924 25.7938 22.2511 26.3493 22.2511H31.5081H32.5398H32.6192C33.7303 22.2511 34.6033 21.3781 34.6033 20.267V20.1876C34.6033 19.8702 34.5239 19.5527 34.3652 19.3146C33.9684 18.8384 33.3335 18.4416 32.6192 18.4416ZM28.016 40.3464C28.016 40.9813 27.4604 41.5368 26.8255 41.5368C26.1906 41.5368 25.635 40.9813 25.635 40.3464V33.0448C25.635 32.9654 25.5557 32.8067 25.5557 32.7273L22.2223 29.5527L21.5081 28.7591L20.8731 28.1241C20.7938 28.0448 20.635 27.9654 20.5557 27.9654H20.397C19.762 27.9654 19.2065 27.4098 19.2065 26.7749V25.5844H23.1747V26.9337C23.1747 27.013 23.2541 27.1717 23.2541 27.2511L24.2858 28.2829L24.9208 28.9178L27.6192 31.6162C27.8573 31.8543 27.9366 32.1718 27.9366 32.4892V40.3464H28.016ZM23.1747 24.7908H19.2065V16.4575C19.2065 15.3464 20.0795 14.4733 21.1906 14.4733H21.27C21.3493 14.4733 21.5081 14.4733 21.5874 14.4733H21.6668C21.7462 14.4733 21.9049 14.5527 21.9843 14.5527C21.9843 14.5527 21.9843 14.5527 22.0636 14.5527C22.143 14.6321 22.2223 14.6321 22.3811 14.7114C22.3811 14.7114 22.4604 14.7114 22.4604 14.7908C22.5398 14.8702 22.6192 14.8702 22.6985 14.9495L24.0477 16.2987L26.6668 18.9178C26.7462 18.9971 26.8255 18.9971 26.9843 18.9971H32.6985C33.2541 18.9971 33.6509 19.3146 33.8096 19.8702C33.8096 19.9495 33.889 20.1083 33.889 20.1876C33.889 20.8225 33.3335 21.3781 32.6985 21.3781H32.3017H26.3493C26.0319 21.3781 25.7144 21.2194 25.4763 21.0606L24.0477 19.6321L23.2541 18.8384L22.6192 18.4416C22.5398 18.3622 22.3811 18.2829 22.2223 18.3622C22.143 18.3622 22.0636 18.4416 22.0636 18.4416C21.9049 18.6003 21.9049 18.8384 22.0636 18.9971L23.1747 20.1083V24.7908Z" fill="black" stroke="black"/>
</svg>
