<svg width="51" height="51" viewBox="0 0 51 51" fill="none" xmlns="http://www.w3.org/2000/svg">
<g clip-path="url(#clip0_267_1269)">
<path d="M28.4217 31.8224L41.4376 18.8065C41.9138 18.3303 41.9138 17.616 41.4376 17.1399C40.9614 16.6637 40.1678 16.6637 39.771 17.1399L30.8027 26.1081C30.644 26.2668 30.4059 26.2668 30.2471 26.1081L24.9297 20.7907L22.9456 22.7748L20.9614 24.7589L25.8027 29.6002C25.8821 29.6795 25.8821 29.7589 25.8821 29.9176V43.7272H28.263V32.1399C28.3424 31.9811 28.4217 31.9018 28.4217 31.8224Z" stroke="black"/>
<path d="M25.1676 29.9968L20.1676 24.9968L7.78668 12.6952C7.38985 12.2984 7.23112 11.8222 7.23112 11.2666C7.23112 10.7111 7.46922 10.2349 7.78668 9.83808C8.58033 9.04443 9.85017 9.04443 10.5645 9.83808L20.4057 19.6793L20.6438 19.4413V4.36189C20.6438 3.25078 21.5168 2.37776 22.6279 2.37776C23.7391 2.37776 24.6121 3.25078 24.6121 4.36189V19.4413L25.1676 19.9174L30.4851 25.2349L39.2152 16.5047C39.9295 15.7905 41.2787 15.7905 41.993 16.5047C42.3899 16.9016 42.5486 17.3778 42.5486 17.9333C42.5486 18.4889 42.3105 18.9651 41.993 19.3619L29.1359 32.2984V43.727H50.5645V2.85395C50.5645 1.34601 49.2946 0.0761719 47.7867 0.0761719H3.34223C1.83429 0.0761719 0.564453 1.34601 0.564453 2.85395V43.727H25.1676V29.9968ZM35.3264 35.0762C34.7708 35.6317 34.0565 35.8698 33.3422 35.8698C32.6279 35.8698 31.9137 35.6317 31.3581 35.0762C30.8025 34.5206 30.5645 33.8857 30.5645 33.092C30.5645 32.3778 30.8819 31.6635 31.3581 31.1079C32.4692 29.9968 34.2152 29.9968 35.3264 31.1079C36.3581 32.2984 36.3581 34.0444 35.3264 35.0762Z" stroke="black"/>
<path d="M33.342 31.1875C32.8658 31.1875 32.3103 31.3462 31.9135 31.7431C31.5166 32.1399 31.3579 32.6161 31.3579 33.1716C31.3579 33.7272 31.596 34.2034 31.9135 34.6002C32.7071 35.3938 33.977 35.3938 34.6912 34.6002C35.4849 33.8065 35.4849 32.5367 34.6912 31.8224C34.3738 31.3462 33.8182 31.1875 33.342 31.1875Z" stroke="black"/>
<path d="M25.5645 44.5205H0.564453V47.2983C0.564453 48.8856 1.83429 50.0761 3.34223 50.0761H47.7867C49.2946 50.0761 50.5645 48.8062 50.5645 47.2983V44.5205H28.7391H25.5645Z" stroke="black"/>
<path d="M22.39 22.219L24.3741 20.2349L23.9773 19.8381C23.8979 19.7587 23.8979 19.6793 23.8979 19.5206V4.36186C23.8979 3.72694 23.3424 3.17139 22.7074 3.17139C22.0725 3.17139 21.517 3.72694 21.517 4.36186V19.6C21.517 19.6793 21.4376 19.8381 21.4376 19.9174L20.8027 20.5523C20.644 20.7111 20.4059 20.7111 20.2471 20.5523L10.009 10.3936C9.53284 9.91742 8.81855 9.91742 8.34236 10.3936C8.10427 10.6317 8.0249 10.9492 8.0249 11.2666C8.0249 11.5841 8.18363 11.9015 8.34236 12.1396L20.4059 24.1238L22.39 22.219Z" stroke="black"/>
<path d="M31.3581 31.1874C30.8025 31.743 30.5645 32.3779 30.5645 33.1716C30.5645 33.8859 30.8819 34.6001 31.3581 35.1557C31.9137 35.7112 32.6279 35.9493 33.3422 35.9493C34.0565 35.9493 34.7708 35.7112 35.3264 35.1557C36.4375 34.0446 36.4375 32.2985 35.3264 31.2668C34.2152 30.0763 32.4692 30.0763 31.3581 31.1874ZM34.6914 34.5208C33.8978 35.3144 32.6279 35.3144 31.9137 34.5208C31.5168 34.1239 31.3581 33.6478 31.3581 33.0922C31.3581 32.5366 31.5962 32.0605 31.9137 31.6636C32.3105 31.2668 32.7867 31.1081 33.3422 31.1081C33.8184 31.1081 34.374 31.2668 34.7708 31.6636C35.4851 32.5366 35.4851 33.8065 34.6914 34.5208Z" fill="black" stroke="black"/>
<path d="M41.9929 19.3618C42.3897 18.965 42.5484 18.4888 42.5484 17.9333C42.5484 17.3777 42.3103 16.9015 41.9929 16.5047C41.2786 15.7904 39.9294 15.7904 39.2151 16.5047L30.4849 25.2348L25.1675 19.9174L24.6119 19.3618V4.28247C24.6119 3.17136 23.7389 2.29834 22.6278 2.29834C21.5167 2.29834 20.6437 3.25072 20.6437 4.36183V19.4412L20.4056 19.6793L10.5643 9.83802C9.77064 9.04437 8.5008 9.04437 7.78651 9.83802C7.38969 10.2348 7.23096 10.711 7.23096 11.2666C7.23096 11.8221 7.46905 12.2983 7.78651 12.6952L20.1675 25.0761L25.1675 30.0761V43.7269H25.9611V29.838C25.9611 29.7587 25.8817 29.5999 25.8817 29.5206L21.0405 24.6793L23.0246 22.6952L25.0087 20.711L30.3262 26.0285C30.4849 26.1872 30.723 26.1872 30.8818 26.0285L39.85 17.0602C40.3262 16.5841 41.1198 16.5841 41.5167 17.0602C41.9929 17.5364 41.9929 18.2507 41.5167 18.7269L28.4214 31.8222C28.3421 31.9015 28.3421 31.9809 28.3421 32.1396V43.7269H29.1357V32.2983L41.9929 19.3618ZM8.02461 11.2666C8.02461 10.9491 8.18334 10.6317 8.34207 10.3936C8.81826 9.91739 9.53254 9.91739 10.0087 10.3936L20.0881 20.4729C20.2468 20.6317 20.4849 20.6317 20.6437 20.4729L21.2786 19.838C21.3579 19.7587 21.3579 19.6793 21.3579 19.5206V4.36183C21.3579 3.72691 21.9135 3.17136 22.5484 3.17136C23.1833 3.17136 23.7389 3.72691 23.7389 4.36183V19.5999C23.7389 19.6793 23.8183 19.838 23.8183 19.9174L24.2151 20.3142L22.231 22.2983L20.4056 24.1237L8.34207 12.0602C8.10397 11.9015 8.02461 11.5841 8.02461 11.2666Z" fill="black" stroke="black"/>
<path d="M29.1359 43.7271H28.3422H25.9613H25.1676H0.564453V44.5207H25.5645H28.7391H50.5645V43.7271H29.1359Z" fill="black" stroke="black"/>
</g>
<defs>
<clipPath id="clip0_267_1269">
<rect width="50" height="50" fill="white" transform="translate(0.564453 0.0761719)"/>
</clipPath>
</defs>
</svg>
