<svg width="51" height="51" viewBox="0 0 51 51" fill="none" xmlns="http://www.w3.org/2000/svg">
<g clip-path="url(#clip0_267_1192)">
<path d="M50.4128 44.4927H0.412842V45.2863H50.4128V44.4927Z" fill="black" stroke="black"/>
<path d="M25.4128 13.3021C26.9207 13.3021 28.1906 12.0323 28.1906 10.5244C28.1906 9.01642 26.9207 7.74658 25.4128 7.74658C23.9049 7.74658 22.635 9.01642 22.635 10.5244C22.635 12.0323 23.9049 13.3021 25.4128 13.3021ZM25.4128 8.54023C26.5239 8.54023 27.3969 9.41325 27.3969 10.5244C27.3969 11.6355 26.5239 12.5085 25.4128 12.5085C24.3017 12.5085 23.4287 11.6355 23.4287 10.5244C23.4287 9.41325 24.3017 8.54023 25.4128 8.54023Z" fill="black" stroke="black"/>
<path d="M41.2066 14.0957H22.2383C21.6828 14.0957 21.2066 14.3338 20.8098 14.6513L11.9209 23.6195C11.2066 24.3338 11.1272 25.4449 11.6828 26.2386C12.0002 26.7148 12.5558 27.0322 13.1114 27.0322C13.1907 27.0322 13.1907 27.0322 13.2701 27.0322C13.8256 27.0322 14.3018 26.7941 14.6987 26.4767L21.8415 19.3338V25.683V26.4767L17.3971 30.9211H10.3336C9.30183 30.9211 8.42882 31.6354 8.27009 32.5878C8.19072 33.1433 8.34945 33.7782 8.74628 34.1751C9.1431 34.5719 9.69866 34.8894 10.2542 34.8894H18.1907C18.7463 34.8894 19.2225 34.6513 19.6193 34.3338L24.6193 29.3338H25.651L28.032 35.0481V42.5084C28.032 43.5401 28.7463 44.4132 29.6987 44.5719C29.778 44.5719 29.9368 44.5719 30.0161 44.5719C30.4923 44.5719 30.9685 44.4132 31.286 44.0957C31.7621 43.6989 32.0002 43.1433 32.0002 42.5878V34.6513C32.0002 34.4132 31.9209 34.0957 31.8415 33.8576L30.7304 31.1592L28.9844 26.7941V25.6036V18.064H41.286C41.8415 18.064 42.3971 17.8259 42.7939 17.3497C43.1907 16.8735 43.3494 16.3179 43.2701 15.7624C43.1114 14.81 42.2383 14.0957 41.2066 14.0957ZM31.2066 42.5084C31.2066 42.8259 31.0479 43.2227 30.8098 43.3814C30.5717 43.6195 30.1748 43.6989 29.8574 43.6195C29.3018 43.5401 28.905 42.9846 28.905 42.3497V34.81C28.905 34.7306 28.905 34.7306 28.905 34.6513L26.3653 28.6195C26.286 28.4608 26.1272 28.3814 25.9685 28.3814H24.5399C24.4606 28.3814 24.3018 28.4608 24.2225 28.4608L19.0637 33.6195C18.8256 33.8576 18.5082 33.937 18.1907 33.937H10.2542C9.93675 33.937 9.53993 33.7782 9.3812 33.5401C9.1431 33.3021 9.06374 32.9052 9.1431 32.5878C9.22247 32.0322 9.77802 31.6354 10.4129 31.6354H17.6352C17.7145 31.6354 17.8733 31.556 17.9526 31.556L22.6352 26.8735C22.7145 26.7941 22.7145 26.7148 22.7145 26.556V26.0005H28.2701V26.8735C28.2701 26.9528 28.2701 26.9528 28.2701 27.0322L31.2066 34.0957C31.286 34.2544 31.286 34.4132 31.286 34.5719V42.5084H31.2066ZM42.159 16.8735C41.9209 17.1116 41.6034 17.2703 41.286 17.2703H28.5875C28.3494 17.2703 28.1907 17.429 28.1907 17.6671V25.2068H22.6352V18.3021C22.6352 18.1433 22.5558 17.9846 22.3971 17.9052C22.2383 17.8259 22.0796 17.9052 22.0002 17.9846L14.1431 25.8417C13.905 26.0798 13.5875 26.2386 13.1907 26.1592C12.8733 26.1592 12.5558 25.9211 12.3177 25.683C12.0002 25.2068 12.0796 24.5719 12.4764 24.0957L21.3653 15.2068C21.6034 14.9687 21.9209 14.8894 22.2383 14.8894H41.2066C41.8415 14.8894 42.3971 15.2862 42.4764 15.8417C42.4764 16.2386 42.3971 16.556 42.159 16.8735Z" fill="black" stroke="black"/>
<path d="M18.1906 38.937C16.6827 38.937 15.4128 40.2069 15.4128 41.7148C15.4128 43.2227 16.6827 44.4926 18.1906 44.4926C19.6986 44.4926 20.9684 43.2227 20.9684 41.7148C20.9684 40.2069 19.6986 38.937 18.1906 38.937ZM18.1906 43.6989C17.0795 43.6989 16.2065 42.8259 16.2065 41.7148C16.2065 40.6037 17.0795 39.7307 18.1906 39.7307C19.3017 39.7307 20.1747 40.6037 20.1747 41.7148C20.1747 42.8259 19.3017 43.6989 18.1906 43.6989Z" fill="#7F7C7C" stroke="black"/>
</g>
<defs>
<clipPath id="clip0_267_1192">
<rect width="50" height="50" fill="white" transform="translate(0.412842 0.762695)"/>
</clipPath>
</defs>
</svg>
