<svg width="51" height="51" viewBox="0 0 51 51" fill="none" xmlns="http://www.w3.org/2000/svg">
<path d="M28.9293 10.8389C28.8499 11.1563 28.7705 11.3944 28.6118 11.6325H30.7547L31.5483 10.8389H28.9293Z" fill="black" stroke="black"/>
<path d="M16.7071 10.8386C15.3579 10.8386 14.1674 11.4736 13.4532 12.5847L13.2151 12.9815C12.8182 13.5371 12.977 14.2513 13.5325 14.6482C13.7706 14.8069 13.9293 14.8069 14.1674 14.8069C14.5643 14.8069 14.9611 14.6482 15.1992 14.2513L16.9452 11.5529H23.85C23.6913 11.3148 23.6119 11.0767 23.5325 10.7593H16.7071V10.8386ZM14.4849 13.8545C14.3262 14.0132 14.0881 14.0926 13.9293 13.9339C13.7706 13.7751 13.6913 13.5371 13.85 13.3783L14.0881 12.9815C14.4849 12.3466 15.1992 11.8704 15.9135 11.7117L14.4849 13.8545Z" fill="black" stroke="black"/>
<path d="M29.0087 10.1245C29.0087 8.61652 27.7388 7.34668 26.2309 7.34668C24.723 7.34668 23.4531 8.61652 23.4531 10.1245C23.4531 10.3626 23.4531 10.6006 23.5325 10.7594C23.6119 11.0768 23.6912 11.3149 23.85 11.553C24.3261 12.3467 25.1992 12.9022 26.2309 12.9022C27.2626 12.9022 28.0563 12.3467 28.6119 11.553C28.7706 11.3149 28.85 11.0768 28.9293 10.7594C28.9293 10.6006 29.0087 10.3626 29.0087 10.1245ZM28.0563 10.8387C27.9769 11.1562 27.7388 11.3943 27.5007 11.6324C27.1833 11.9499 26.7071 12.1879 26.1515 12.1879C25.596 12.1879 25.1992 11.9499 24.8023 11.6324C24.5642 11.3943 24.4055 11.1562 24.2468 10.8387C24.1674 10.6006 24.088 10.4419 24.088 10.2038C24.088 9.09271 24.9611 8.2197 26.0722 8.2197C27.1833 8.2197 28.0563 9.09271 28.0563 10.2038C28.215 10.3626 28.1357 10.6006 28.0563 10.8387Z" fill="black" stroke="black"/>
<path d="M35.9134 9.25146C35.5166 9.25146 35.1198 9.33083 34.8023 9.48956C34.0087 9.09273 33.0563 9.25146 32.4214 9.88639L31.469 10.8388L30.6753 11.6324L28.6118 13.6959H23.1357H23.0563C22.5007 13.6959 22.0245 13.934 21.6277 14.2515C21.6277 14.2515 21.5484 14.3308 21.5484 14.4102C21.5484 14.4102 21.5484 14.4102 21.469 14.4896C21.3896 14.5689 21.3896 14.6483 21.3103 14.7277C21.2309 14.807 21.2309 14.8864 21.1515 14.9658C21.1515 14.9658 21.1515 15.0451 21.0722 15.0451C20.9928 15.1245 20.9928 15.2832 20.9928 15.3626C20.9928 15.4419 20.9928 15.5213 20.9928 15.6007C20.9928 15.68 20.9928 15.7594 20.9928 15.8388C20.9928 15.9181 20.9928 15.9975 21.0722 16.0769V16.1562V16.2356C21.1515 16.4737 21.2309 16.7118 21.469 16.8705C21.7865 17.188 22.1833 17.4261 22.5801 17.5054V25.1245V33.8546L17.5801 38.8546C16.7865 39.6483 16.7865 40.9181 17.5801 41.6324C18.3738 42.4261 19.6436 42.4261 20.3579 41.6324L25.7547 36.2356V42.5848C25.7547 43.6959 26.6277 44.5689 27.7388 44.5689C28.8499 44.5689 29.723 43.6959 29.723 42.5848V25.1245V17.6642H35.6753C36.7865 17.6642 37.6595 16.7911 37.6595 15.68V11.315C37.7388 10.2038 36.9452 9.33083 35.9134 9.25146ZM29.0087 42.6642C29.0087 43.2991 28.4531 43.8546 27.8182 43.8546C27.1833 43.8546 26.6277 43.2991 26.6277 42.6642V34.7277V28.3784C26.6277 28.1404 26.469 27.9816 26.2309 27.9816C25.9928 27.9816 25.8341 28.1404 25.8341 28.3784V34.7277C25.8341 35.0451 25.6753 35.3626 25.5166 35.6007L19.8817 41.2356C19.4055 41.7118 18.6912 41.7118 18.215 41.2356C17.7388 40.7594 17.7388 40.0451 18.215 39.5689L23.3738 34.4102C23.4531 34.3308 23.4531 34.2515 23.4531 34.0927V25.6007H29.0087V42.6642ZM29.0087 24.807H23.4531V17.6642H29.0087V24.807ZM29.4055 16.8705H23.1357C22.5007 16.8705 22.0245 16.4737 21.8658 15.9181V15.8388C21.8658 15.7594 21.8658 15.7594 21.8658 15.68V15.6007V15.5213C21.8658 15.4419 21.9452 15.2832 22.0245 15.2038C22.1039 15.1245 22.1039 15.0451 22.1833 14.9658C22.4214 14.7277 22.6595 14.6483 23.0563 14.6483H23.1357H28.7706C28.8499 14.6483 29.0087 14.5689 29.088 14.5689L29.4055 14.2515L29.723 13.6959L31.8658 11.5531L32.6595 10.7594L33.0563 10.3626C33.3738 10.0451 33.8499 9.88639 34.2468 9.96575C34.4055 9.96575 34.4849 10.0451 34.6436 10.1245C34.6436 10.1245 34.6436 10.1245 34.723 10.1245C34.8023 10.2038 34.8817 10.2832 34.9611 10.3626C35.1198 10.5213 35.1991 10.7594 35.1991 10.9975C35.1991 11.315 35.1198 11.7118 34.8817 11.9499L34.723 12.1086L34.3261 12.5054L33.9293 12.9023L33.0563 13.6959L32.6595 14.0927L32.2626 14.4896L30.1991 16.5531C30.0404 16.7911 29.723 16.8705 29.4055 16.8705ZM36.9452 15.68C36.9452 16.315 36.3896 16.8705 35.7547 16.8705H30.9928L33.3738 14.4896H34.1674C34.4055 14.4896 34.5642 14.3308 34.5642 14.0927V13.2991L35.2785 12.5848C35.6753 12.188 35.9134 11.6324 35.8341 10.9975C35.8341 10.6007 35.6753 10.2832 35.4372 9.96575C35.596 9.96575 35.6753 9.88639 35.8341 9.96575C36.469 10.0451 36.9452 10.6007 36.9452 11.2356V15.68Z" fill="black" stroke="black"/>
</svg>
