<svg width="51" height="51" viewBox="0 0 51 51" fill="none" xmlns="http://www.w3.org/2000/svg">
<path d="M40.2142 10.4627C39.1031 9.35162 37.357 9.35162 36.2459 10.4627C35.1348 11.5738 35.1348 13.3199 36.2459 14.3516C36.8015 14.9072 37.5158 15.1453 38.2301 15.1453C38.9443 15.1453 39.6586 14.9072 40.2142 14.3516C41.3253 13.3199 41.3253 11.5738 40.2142 10.4627ZM39.6586 13.7961C38.865 14.5897 37.5951 14.5897 36.8809 13.7961C36.0872 13.0024 36.0872 11.7326 36.8809 11.0183C37.2777 10.6215 37.7539 10.4627 38.3094 10.4627C38.7856 10.4627 39.3412 10.6215 39.738 11.0183C40.4523 11.8119 40.4523 13.0818 39.6586 13.7961Z" fill="black" stroke="black"/>
<path d="M37.9919 17.2088L33.4681 12.685C33.0713 12.2882 32.5951 12.1295 32.0395 12.1295H27.6744V7.7644C27.6744 6.65329 26.8014 5.78027 25.6903 5.78027C24.5792 5.78027 23.7855 6.65329 23.7855 7.7644V14.1136C23.7855 15.2247 24.6586 16.0977 25.7697 16.0977H29.5792L26.484 19.193L25.3728 20.3041L15.5316 10.4628C14.8173 9.74853 13.4681 9.74853 12.7538 10.4628C12.357 10.8596 12.1982 11.3358 12.1982 11.8914C12.1982 12.4469 12.4363 12.9231 12.7538 13.32L25.6109 26.1771V41.2565C25.6109 42.3676 26.484 43.2406 27.5951 43.2406C28.7062 43.2406 29.5792 42.3676 29.5792 41.2565V26.1771L29.8173 25.939L31.484 24.2723L32.1982 23.558L35.0554 26.4152C35.1347 26.4946 35.2141 26.5739 35.2935 26.5739C35.2935 26.5739 35.3728 26.5739 35.3728 26.6533C35.4522 26.7327 35.5316 26.7327 35.6903 26.812C35.6903 26.812 35.6903 26.812 35.7697 26.812C35.849 26.8914 35.9284 26.8914 36.0871 26.8914H36.1665C36.3252 26.8914 36.4046 26.9707 36.5633 26.9707C37.6744 26.9707 38.5474 26.0977 38.5474 24.9866V18.6374C38.5474 18.0819 38.3887 17.6057 37.9919 17.2088ZM36.7221 17.0501H33.6268C33.6268 16.5739 33.6268 15.6215 33.6268 13.9549L36.7221 17.0501ZM25.7697 15.3041C25.1347 15.3041 24.5792 14.7485 24.5792 14.1136V7.7644C24.5792 7.12948 25.1347 6.57392 25.7697 6.57392C26.4046 6.57392 26.9601 7.12948 26.9601 7.7644V12.5263C26.9601 12.7644 27.1189 12.9231 27.357 12.9231H32.1189C32.357 12.9231 32.6744 13.0025 32.8332 13.1612C32.8332 14.4311 32.8332 16.3358 32.8332 17.0501H29.6586L30.7697 15.939C30.849 15.8596 30.9284 15.6215 30.849 15.5422C30.7697 15.4628 30.6109 15.3041 30.4522 15.3041H25.7697V15.3041ZM29.8173 24.7485L25.9284 20.8596L26.484 20.3041L30.3728 24.193L29.8173 24.7485ZM28.9443 25.7009C28.8649 25.7803 28.8649 25.8596 28.8649 26.0184V41.2565C28.8649 41.8914 28.3094 42.4469 27.6744 42.4469C27.0395 42.4469 26.484 41.8914 26.484 41.2565V26.0184C26.484 25.939 26.4046 25.7803 26.4046 25.7009L13.3094 12.685C13.0713 12.4469 12.9919 12.1295 12.9919 11.812C12.9919 11.4946 13.1506 11.1771 13.3094 10.939C13.4681 10.7009 13.8649 10.6215 14.1824 10.6215C14.4998 10.6215 14.8173 10.7803 15.0554 10.939L29.3411 25.2247L28.9443 25.7009ZM37.7538 24.9866C37.7538 25.6215 37.1982 26.1771 36.5633 26.1771C36.5633 26.1771 36.5633 26.1771 36.484 26.1771C36.4046 26.1771 36.3252 26.1771 36.3252 26.1771C36.3252 26.1771 36.3252 26.1771 36.2459 26.1771C36.1665 26.1771 36.1665 26.1771 36.0871 26.0977C36.0078 26.0977 36.0078 26.0184 35.9284 26.0184C35.849 26.0184 35.849 25.939 35.7697 25.8596L34.6586 24.7485L32.9125 23.0025L32.357 22.4469L31.3252 21.4152C30.849 20.939 30.849 20.2247 31.3252 19.7485C31.8014 19.2723 32.5951 19.2723 32.9919 19.7485L34.0236 20.7803L34.5792 21.3358L34.6586 21.4152L35.4522 22.2088L35.7697 22.5263C35.849 22.6057 36.0078 22.685 36.0871 22.6057C36.1665 22.6057 36.2459 22.5263 36.3252 22.5263C36.484 22.3676 36.484 22.1295 36.3252 21.9707L35.3728 20.939V20.1454C35.3728 19.9866 35.2935 19.8279 35.1348 19.7485C35.0554 19.7485 35.0554 19.7485 34.976 19.7485C34.8967 19.7485 34.7379 19.8279 34.6586 19.8279L34.4998 19.9866L33.4681 18.9549C32.6744 18.1612 31.4046 18.1612 30.6903 18.9549C29.8967 19.7485 29.8967 21.0184 30.6903 21.7327L31.7221 22.7644L31.0078 23.6374L27.0395 19.7485L28.8649 17.9231H33.1506H37.4363C37.5951 18.1612 37.6744 18.3993 37.6744 18.6374V24.9866H37.7538Z" fill="black" stroke="black"/>
</svg>
