<svg width="51" height="51" viewBox="0 0 51 51" fill="none" xmlns="http://www.w3.org/2000/svg">
<g clip-path="url(#clip0_267_1282)">
<path d="M6.44442 42.5477L0.0952148 41.2778V42.0715L6.28569 43.3413C12.5555 44.6112 18.8254 45.1667 25.0952 45.1667C31.3651 45.1667 37.6349 44.5318 43.9047 43.3413L50.0952 42.0715V41.2778L43.746 42.5477C31.3651 45.008 18.8254 45.008 6.44442 42.5477Z" fill="black" stroke="black"/>
<path d="M32.2382 6.27783H15.5715C14.4604 6.27783 13.5874 7.23021 13.5874 8.26196C13.5874 9.37307 14.4604 10.2461 15.5715 10.2461H19.9366C19.9366 10.7223 20.1747 11.1985 20.4922 11.5953L29.4604 20.5635C29.5398 20.6429 29.6191 20.7223 29.6985 20.8016L29.7779 20.881C29.9366 20.9604 30.0953 21.1191 30.3334 21.1985C30.4922 21.2778 30.6509 21.2778 30.8096 21.3572H30.889C31.0477 21.3572 31.2858 21.4366 31.4445 21.4366C32.9525 21.4366 34.2223 20.1667 34.2223 18.6588V9.92863V8.34132C34.2223 7.23021 33.3493 6.27783 32.2382 6.27783ZM33.4287 18.5794C33.4287 19.6905 32.5557 20.5635 31.4445 20.5635H31.3652C31.2858 20.5635 31.1271 20.5635 31.0477 20.5635C31.0477 20.5635 31.0477 20.5635 30.9684 20.5635C30.889 20.5635 30.7303 20.4842 30.6509 20.4842C30.5715 20.4048 30.4922 20.4048 30.3334 20.3255L30.2541 20.2461C30.1747 20.1667 30.1747 20.1667 30.0953 20.0874C30.0953 20.0874 30.016 20.0874 30.016 20.008L29.0636 19.0556L28.6668 18.6588L21.0477 11.0397C20.8096 10.8016 20.7303 10.5635 20.7303 10.2461C20.7303 10.0874 20.7303 10.008 20.8096 9.84926C20.8096 9.69053 20.889 9.61117 21.0477 9.45244C21.0477 9.37307 21.1271 9.37307 21.1271 9.29371C21.6033 8.81751 22.3176 8.81751 22.7938 9.29371L22.9525 9.45244L23.3493 9.84926L23.7461 10.2461L28.7461 15.2461L29.143 15.6429L29.5398 16.0397L30.0953 16.5953C30.1747 16.6747 30.3334 16.754 30.4922 16.6747C30.5715 16.6747 30.6509 16.5953 30.6509 16.5953C30.8096 16.4366 30.8096 16.1985 30.6509 16.0397L29.4604 14.9286V10.2461H31.2858H33.4287V18.5794ZM24.7779 10.2461H28.6668V14.135L24.7779 10.2461ZM33.4287 9.45244H23.9842L23.2699 8.73815C22.4763 7.9445 21.2065 7.9445 20.4922 8.73815C20.2541 8.97625 20.1747 9.21434 20.016 9.45244H15.4922C14.8572 9.45244 14.3017 8.89688 14.3017 8.26196C14.3811 7.62704 14.9366 7.07148 15.5715 7.07148H32.2382C32.8731 7.07148 33.4287 7.62704 33.4287 8.26196V9.45244Z" fill="black" stroke="black"/>
<path d="M25.0158 21.119C24.4603 21.6746 24.2222 22.3095 24.2222 23.1032C24.2222 23.8174 24.5396 24.5317 25.0158 25.0873C25.492 25.6428 26.2063 25.8809 26.9999 25.8809C27.7142 25.8809 28.4285 25.5635 28.9841 25.0873C29.5396 24.6111 29.7777 23.8968 29.7777 23.1032C29.7777 22.3889 29.4603 21.6746 28.9841 21.119C27.873 20.0873 26.0476 20.0873 25.0158 21.119ZM28.3492 24.5317C27.6349 25.246 26.2857 25.246 25.5714 24.5317C25.1745 24.1349 25.0158 23.6587 25.0158 23.1032C25.0158 22.5476 25.2539 22.0714 25.5714 21.6746C25.9682 21.2778 26.4444 21.119 26.9999 21.119C27.5555 21.119 28.0317 21.2778 28.4285 21.6746C28.8253 22.0714 28.9841 22.5476 28.9841 23.1032C28.9047 23.6587 28.746 24.1349 28.3492 24.5317Z" fill="black" stroke="black"/>
</g>
<defs>
<clipPath id="clip0_267_1282">
<rect width="50" height="50" fill="white" transform="translate(0.0952148 0.722168)"/>
</clipPath>
</defs>
</svg>
