<svg width="51" height="51" viewBox="0 0 51 51" fill="none" xmlns="http://www.w3.org/2000/svg">
<path d="M34.4922 17.7178C35.2065 17.7178 35.9208 17.4003 36.4764 16.9241C37.0319 16.448 37.27 15.7337 37.27 14.94C37.27 14.2257 36.9526 13.5114 36.4764 12.9559C35.3653 11.8448 33.6192 11.8448 32.5875 12.9559C31.4764 14.067 31.4764 15.813 32.5875 16.8448C32.9843 17.4003 33.6986 17.7178 34.4922 17.7178ZM35.8415 13.5114C36.2383 13.9083 36.397 14.3845 36.397 14.94C36.397 15.4956 36.1589 15.9718 35.8415 16.3686C35.1272 17.0829 33.778 17.0829 33.0637 16.3686C32.27 15.5749 32.27 14.3051 33.0637 13.5908C33.4605 13.194 33.9367 13.0353 34.4922 13.0353C35.0478 13.0353 35.4446 13.194 35.8415 13.5114Z" fill="black" stroke="black"/>
<path d="M38.1431 17.4799L35.0479 20.5751L31.9526 17.4799L27.5082 12.9561C26.7145 12.1624 25.4447 12.1624 24.7304 12.9561L20.2066 17.4799C19.413 18.2735 19.413 19.5434 20.2066 20.2577C20.6034 20.6545 21.0796 20.8132 21.6352 20.8132C22.1907 20.8132 22.6669 20.5751 23.0637 20.2577L26.159 17.1624L27.2701 18.2735L21.9526 23.591L20.8415 24.7021C20.3653 25.1783 20.2066 25.8132 20.286 26.3688L10.0479 36.5275C9.25422 37.3212 9.25422 38.591 10.0479 39.3053C10.4447 39.7021 10.9209 39.8608 11.4764 39.8608C11.9526 39.8608 12.5082 39.7021 12.905 39.3053L22.7463 29.464L25.5241 32.2418L21.3177 36.4481C20.5241 37.2418 20.5241 38.5116 21.3177 39.2259C21.7145 39.6227 22.1907 39.7815 22.7463 39.7815C23.2225 39.7815 23.778 39.6227 24.1749 39.2259L29.8098 33.591C30.6034 32.7973 30.6034 31.5275 29.8098 30.8132L26.159 27.1624L31.2384 22.0831L33.778 24.6227C34.1749 25.0196 34.651 25.1783 35.2066 25.1783C35.7622 25.1783 36.2384 24.9402 36.6352 24.6227L41.159 20.0989C41.5558 19.7021 41.7145 19.2259 41.7145 18.6704C41.7145 18.1148 41.4764 17.6386 41.159 17.2418C40.1272 16.6862 38.8574 16.6862 38.1431 17.4799ZM34.1749 24.2259L30.286 20.2577C30.286 20.2577 30.2066 20.2577 30.2066 20.1783C30.0479 20.0989 29.8891 20.0989 29.7304 20.2577C29.5717 20.4164 29.5717 20.6545 29.7304 20.8132L30.6034 21.6862L25.5241 26.7656L22.6669 23.9085L28.5399 18.0354C29.2542 17.3212 30.6034 17.3212 31.3177 18.0354L31.3971 18.1148L34.7304 21.4481C34.8891 21.6069 35.1272 21.6069 35.286 21.4481L38.6193 18.1148C39.0955 17.6386 39.8098 17.6386 40.286 18.1148C40.5241 18.3529 40.6034 18.6704 40.6034 18.9878C40.6034 19.3053 40.4447 19.6227 40.286 19.8608L35.7622 24.3846C35.5241 24.6227 35.286 24.7021 34.8891 24.7021C34.7304 24.5434 34.413 24.464 34.1749 24.2259ZM21.7939 38.8291C21.5558 38.591 21.4764 38.2735 21.4764 37.9561C21.4764 37.6386 21.6352 37.3212 21.7939 37.0831L26.3177 32.5593C26.3971 32.4799 26.3971 32.4005 26.3971 32.2418C26.3971 32.0831 26.3177 32.0037 26.3177 31.9243L21.2384 26.845C21.159 26.7656 21.0796 26.6069 21.0003 26.5275C20.9209 26.3688 20.9209 26.21 20.9209 26.0513C20.9209 25.7339 21.0003 25.4164 21.2384 25.1783L22.1114 24.3053L29.0955 31.2894C29.5717 31.7656 29.5717 32.4799 29.0955 32.9561L23.4606 38.591C23.0637 39.3053 22.2701 39.3053 21.7939 38.8291ZM10.6034 38.8291C10.1272 38.3529 10.1272 37.6386 10.6034 37.1624L20.4447 27.3212C20.5241 27.4005 20.6034 27.5593 20.6828 27.6386L22.1114 29.0672L12.2701 38.8291C11.7939 39.3053 11.0796 39.3053 10.6034 38.8291ZM25.7622 16.3688L22.4288 19.7021C21.9526 20.1783 21.159 20.1783 20.7622 19.7021C20.286 19.2259 20.286 18.5116 20.7622 18.0354L25.286 13.5116C25.7622 13.0354 26.4764 13.0354 26.9526 13.5116L30.1272 16.6862C29.413 16.6862 28.6193 16.9243 28.0637 17.4799L27.8257 17.718L26.3971 16.2894C26.159 16.21 25.9209 16.21 25.7622 16.3688Z" fill="black" stroke="black"/>
</svg>
