<svg width="51" height="51" viewBox="0 0 51 51" fill="none" xmlns="http://www.w3.org/2000/svg">
<g clip-path="url(#clip0_267_1281)">
<path d="M22.1987 19.1351C23.7066 19.1351 24.9765 17.8653 24.9765 16.3574C24.9765 14.8494 23.7066 13.5796 22.1987 13.5796C20.6907 13.5796 19.4209 14.8494 19.4209 16.3574C19.4209 17.8653 20.6907 19.1351 22.1987 19.1351ZM22.1987 14.3732C23.3098 14.3732 24.1828 15.2463 24.1828 16.3574C24.1828 17.4685 23.3098 18.3415 22.1987 18.3415C21.0876 18.3415 20.2145 17.4685 20.2145 16.3574C20.2145 15.2463 21.0876 14.3732 22.1987 14.3732Z" fill="black" stroke="black"/>
<path d="M31.7221 31.0396H25.7697V25.0872L28.4681 27.7856C29.1824 28.4999 30.5316 28.4999 31.2459 27.7856L35.7697 23.2618C36.1665 22.865 36.4046 22.3094 36.3252 21.6745C36.2459 21.119 36.0078 20.5634 35.5316 20.2459C34.7379 19.6904 33.6268 19.7698 32.9125 20.484L29.8967 23.4999L26.8014 20.4047C26.4046 20.0079 25.9284 19.8491 25.3729 19.8491H19.0236C18.4681 19.8491 17.9919 20.0872 17.5951 20.4047L13.7062 24.2936H8.15063C7.03952 24.2936 6.1665 25.1666 6.1665 26.2777C6.1665 27.3888 7.03952 28.2618 8.15063 28.2618H14.4998C15.0554 28.2618 15.5316 28.0237 15.9284 27.7063L18.6268 25.0079V29.7698V31.3571V32.9444V34.2142C18.7856 34.2936 18.8649 34.2936 19.0236 34.3729C19.103 34.3729 19.1824 34.4523 19.2617 34.4523C19.3411 34.4523 19.3411 34.4523 19.4205 34.5317V34.0555V33.0237V31.8332V31.4364V31.0396V29.8491C19.4205 29.2142 19.976 28.6586 20.6109 28.6586C21.2459 28.6586 21.8014 29.2142 21.8014 29.8491V31.0396V31.4364V31.8332V34.2142V34.611V35.0079V35.4047C21.9602 35.484 22.0395 35.484 22.1983 35.5634C22.357 35.6428 22.4363 35.6428 22.5951 35.7221V35.0079H29.7379V39.2142C29.8967 39.2936 29.976 39.3729 30.1348 39.4523C30.2935 39.5317 30.3729 39.611 30.5316 39.6904V34.611C30.5316 34.3729 30.3729 34.2142 30.1348 34.2142H22.5951V31.8332H25.3729H31.7221C32.357 31.8332 32.9125 32.3888 32.9125 33.0237V40.9602C32.9125 41.0396 32.9125 41.0396 32.9125 41.119C32.9919 41.1983 33.1506 41.2777 33.23 41.3571C33.3094 41.4364 33.4681 41.5158 33.5475 41.5952C33.6268 41.4364 33.6268 41.1983 33.6268 40.9602V40.5634V33.0237C33.7062 31.992 32.8332 31.0396 31.7221 31.0396ZM15.3729 27.3094C15.1348 27.5475 14.8173 27.6269 14.4998 27.6269H8.15063C7.51571 27.6269 6.96015 27.0713 6.96015 26.4364C6.96015 25.8015 7.51571 25.2459 8.15063 25.2459H13.8649C13.9443 25.2459 14.103 25.1666 14.1824 25.1666L18.23 21.119C18.4681 20.8809 18.7856 20.8015 19.103 20.8015H25.4522C25.7697 20.8015 26.0871 20.9602 26.3252 21.119L29.6586 24.4523C29.8173 24.611 30.0554 24.611 30.2141 24.4523L33.5475 21.119C34.0236 20.6428 34.6586 20.5634 35.1348 20.9602C35.4522 21.1983 35.611 21.5158 35.611 21.8332C35.611 22.1507 35.5316 22.5475 35.2935 22.7856L30.7697 27.3094C30.2935 27.7856 29.5792 27.7856 29.103 27.3094L25.6903 23.8967C25.6109 23.8174 25.3729 23.738 25.2935 23.8174C25.0554 23.8967 24.976 24.0555 24.976 24.2142V31.0396H22.5951V29.8491C22.5951 28.738 21.7221 27.865 20.6109 27.865C20.1348 27.865 19.7379 28.0237 19.4205 28.2618V24.1348C19.4205 23.9761 19.3411 23.8174 19.1824 23.738C19.0236 23.6586 18.8649 23.738 18.7856 23.8174L15.3729 27.3094Z" fill="black" stroke="black"/>
<path d="M32.913 41.1983C32.1193 40.7221 31.3257 40.2459 30.532 39.7697C30.3733 39.6904 30.2939 39.611 30.1352 39.5316C29.9765 39.4523 29.8971 39.3729 29.7384 39.2935C27.6749 38.1031 25.532 36.9919 23.3098 36.0396C23.0717 35.9602 22.8336 35.8808 22.5955 35.8015C22.4368 35.7221 22.3574 35.7221 22.1987 35.6427C22.0399 35.5634 21.9606 35.5634 21.8019 35.484C21.4844 35.3253 21.0876 35.2459 20.7701 35.0872C20.2939 34.9284 19.8177 34.7697 19.4209 34.611C19.3415 34.611 19.3415 34.611 19.2622 34.5316C19.1828 34.5316 19.1034 34.4523 19.0241 34.4523C18.8653 34.3729 18.786 34.3729 18.6272 34.2935C9.34153 31.2777 4.81772 32.6269 4.65899 32.7062C4.57963 32.7062 4.4209 32.7856 4.4209 32.9443C4.4209 33.1031 4.4209 33.1824 4.4209 33.2618C4.57963 33.4999 7.51614 38.9761 19.9765 44.1348C20.3733 44.2935 20.7701 44.4523 21.2463 44.611H22.278H22.4368H23.6272C23.5479 44.611 23.5479 44.611 23.4685 44.5316C22.3574 44.1348 21.3257 43.8173 20.2939 43.3411C10.1352 39.1348 6.40503 34.6904 5.37328 33.3411C6.80185 33.1031 11.1669 32.7062 18.6272 35.1665C18.786 35.2459 18.8653 35.2459 19.0241 35.3253C19.1828 35.4046 19.2622 35.4046 19.4209 35.484C20.2145 35.7221 21.0082 36.0396 21.8019 36.357C21.9606 36.4364 22.0399 36.4364 22.1987 36.5158C22.3574 36.5951 22.4368 36.5951 22.5955 36.6745C22.7542 36.7538 22.8336 36.7538 22.9923 36.8332C25.2939 37.7856 27.5955 38.9761 29.7384 40.2459C29.8971 40.3253 29.9765 40.4046 30.1352 40.484C30.2939 40.5634 30.3733 40.6427 30.532 40.7221C31.0876 41.0396 31.6431 41.4364 32.1987 41.7538C32.278 41.8332 32.4368 41.9126 32.5161 41.9919C32.5955 42.0713 32.7542 42.1507 32.8336 42.23C32.8336 42.23 32.8336 42.23 32.913 42.23C32.9923 42.3094 33.0717 42.3888 33.1511 42.3888C34.1034 43.0237 34.9765 43.6586 35.7701 44.2142C35.9288 44.2142 36.0876 44.1348 36.3257 44.0554C36.4844 43.9761 36.6431 43.9761 36.8019 43.8967C35.8495 43.2618 34.7384 42.4681 33.5479 41.6745C33.4685 41.5951 33.3098 41.5157 33.2304 41.4364C33.1511 41.2777 32.9923 41.2777 32.913 41.1983Z" fill="black" stroke="black"/>
<path d="M37.1983 7.23017H38.0713C42.2777 7.23017 46.4047 7.94446 50.3729 9.29367V8.50002C46.4047 7.15081 42.2777 6.43652 38.0713 6.43652H31.7221H22.1983C17.0396 6.43652 12.119 8.50002 8.46817 12.1508C8.30944 12.3095 8.30944 12.5476 8.46817 12.7064C8.54753 12.7857 8.6269 12.7857 8.78563 12.7857C8.94436 12.7857 9.02372 12.7857 9.10309 12.7064C12.5158 9.2143 17.1983 7.23017 22.1983 7.23017C32.5158 7.23017 40.8491 15.6429 40.8491 25.881C40.8491 31.8333 38.0713 37.1508 33.7063 40.5635V40.9603C33.7063 41.1984 33.6269 41.3572 33.6269 41.5953C38.4682 38.1032 41.6428 32.3889 41.6428 25.881C41.6428 17.0714 35.7698 9.61113 27.6745 7.23017H31.7221C42.0396 7.23017 50.3729 15.6429 50.3729 25.881V20.4048C48.5475 14.1349 43.5475 9.13494 37.1983 7.23017Z" fill="black" stroke="black"/>
<path d="M36.881 43.8174C36.7223 43.8967 36.5635 43.8967 36.4048 43.9761C36.2461 44.0555 36.0873 44.0555 35.8492 44.1348C34.5 44.3729 33.1508 44.5317 31.7223 44.5317H27.6746H23.5477H22.3572H22.1984H21.1667H0.373047V44.9285V45.3253H22.1984H23.3889H24.6588H26.0873H31.6429C32.1191 45.3253 32.5953 45.3253 33.1508 45.2459C33.2302 45.2459 33.3096 45.2459 33.4683 45.2459C33.9445 45.1666 34.4207 45.1666 34.8175 45.0872C34.8969 45.0872 34.9762 45.0872 35.0556 45.0078C35.5318 44.9285 35.9286 44.8491 36.4048 44.7697H36.4842C36.5635 44.7697 36.5635 44.7697 36.6429 44.6904C36.8016 44.611 36.9603 44.611 37.1191 44.5317C37.2778 44.4523 37.4365 44.4523 37.5953 44.3729C37.6746 44.3729 37.754 44.2936 37.8334 44.2936C37.9127 44.2936 37.9921 44.2142 38.0715 44.2142C38.4683 44.0555 38.9445 43.8967 39.3413 43.738C39.4207 43.738 39.5 43.6586 39.5794 43.6586C39.9762 43.4999 40.373 43.3412 40.6905 43.1031C40.7699 43.1031 40.7699 43.0237 40.8492 43.0237C41.2461 42.7856 41.6429 42.5475 42.0397 42.3094C42.1191 42.2301 42.1984 42.2301 42.2778 42.1507C42.6746 41.9126 42.9921 41.6745 43.3889 41.357C43.4683 41.357 43.4683 41.2777 43.5477 41.2777C43.8651 41.0396 44.1826 40.7221 44.5 40.484C44.5794 40.4047 44.5794 40.4047 44.6588 40.3253C44.9762 40.0078 45.2937 39.6904 45.6111 39.3729C45.6905 39.2936 45.7699 39.2142 45.8492 39.1348C46.1667 38.8174 46.4842 38.4999 46.7223 38.1031L46.8016 38.0237C47.0397 37.7063 47.3572 37.3888 47.5953 36.992C47.6746 36.9126 47.6746 36.8332 47.754 36.7539C47.9921 36.357 48.2302 36.0396 48.4683 35.6428C48.5476 35.5634 48.5477 35.484 48.627 35.4047C48.8651 35.0078 49.1032 34.611 49.2619 34.2142C49.4207 33.8174 49.6588 33.4205 49.8175 32.9444C49.8175 32.865 49.8969 32.7856 49.8969 32.7063C50.0556 32.3094 50.2143 31.8332 50.373 31.4364V31.3571V29.7697V25.8809C50.373 34.4523 44.6588 41.5951 36.881 43.8174Z" fill="black" stroke="black"/>
</g>
<defs>
<clipPath id="clip0_267_1281">
<rect width="50" height="50" fill="white" transform="translate(0.373047 0.880859)"/>
</clipPath>
</defs>
</svg>
