<svg width="51" height="51" viewBox="0 0 51 51" fill="none" xmlns="http://www.w3.org/2000/svg">
<g clip-path="url(#clip0_267_1189)">
<path d="M6.22145 21.2387C5.74526 21.5562 5.4278 22.1117 5.4278 22.6673C5.34844 23.2228 5.58653 23.7784 5.98336 24.2546L6.30082 24.0165C6.38019 23.7784 6.53892 23.7784 6.69765 23.8578L6.53892 23.699C6.30082 23.4609 6.14209 23.0641 6.22145 22.7466C6.22145 22.4292 6.45955 22.1117 6.69765 21.8736C6.85638 21.7149 7.09447 21.6355 7.33257 21.6355C7.65003 21.6355 7.96749 21.7943 8.28495 22.0324L11.2215 24.9689C11.3802 24.8895 11.4596 24.8101 11.5389 24.7308C11.6183 24.6514 11.777 24.572 11.8564 24.4927L8.76114 21.3974C8.12622 20.7625 7.01511 20.6831 6.22145 21.2387Z" fill="black" stroke="black"/>
<path d="M34.634 22.0325C35.3482 22.0325 36.0625 21.7151 36.6181 21.2389C37.7292 20.1278 37.7292 18.3817 36.6181 17.35C35.5863 16.3182 33.7609 16.3182 32.7292 17.35C32.1736 17.9055 31.9355 18.5405 31.9355 19.3341C31.9355 20.1278 32.253 20.7627 32.7292 21.3182C33.2054 21.8738 33.9197 22.0325 34.634 22.0325ZM34.634 17.2706C35.1895 17.2706 35.6657 17.5087 36.0625 17.8262C36.8562 18.6198 36.8562 19.8897 36.0625 20.6039C35.3482 21.3182 33.999 21.3182 33.2848 20.6039C32.8879 20.2071 32.7292 19.7309 32.7292 19.1754C32.7292 18.6198 32.9673 18.1436 33.2848 17.7468C33.6022 17.35 34.0784 17.2706 34.634 17.2706Z" fill="black" stroke="black"/>
<path d="M32.0944 21.7944L27.6499 17.35C27.2531 16.9532 26.7769 16.7944 26.2213 16.7944H19.8721C19.3166 16.7944 18.761 17.0325 18.3642 17.5087C17.9674 17.9849 17.8086 18.5405 17.888 19.096C18.0467 20.0484 18.9198 20.7627 19.9515 20.7627H25.4277L26.8563 22.1913L21.0626 24.5722L20.5071 24.8103C20.5864 24.8897 20.7451 24.969 20.8245 24.969C20.8245 24.969 20.9039 24.969 20.9832 25.0484C21.142 25.1278 21.2213 25.2071 21.3801 25.2071C21.5388 25.2865 21.6975 25.2865 21.8563 25.3659L21.7769 25.1278L27.4912 22.7468L27.888 22.5881L28.2848 22.4294L29.3959 21.9532C29.3959 21.9532 29.3959 21.9532 29.4753 21.9532C29.9515 21.7151 30.5071 21.7151 30.9832 21.9532C31.2213 22.0325 31.3801 22.1913 31.6182 22.35L32.3324 23.0643L32.4912 23.223L32.6499 23.3817L32.888 23.6198L34.4753 25.2071C34.7134 25.2071 34.8721 25.2865 35.1102 25.2865C35.269 25.2865 35.4277 25.2865 35.6658 25.2071L32.0944 21.7944ZM29.0785 21.2389L27.6499 21.8738L25.9039 20.1278C25.8245 20.0484 25.7451 20.0484 25.5864 20.0484H19.9515C19.3166 20.0484 18.761 19.6516 18.6817 19.0167C18.6023 18.6992 18.761 18.3024 18.9198 18.0643C19.1578 17.8262 19.4753 17.6674 19.7928 17.6674H26.142C26.4594 17.6674 26.7769 17.8262 27.015 17.9849L30.1102 21.0801C29.9515 21.0801 29.7134 21.0801 29.5547 21.1595C29.4753 21.0801 29.2372 21.1595 29.0785 21.2389Z" fill="black" stroke="black"/>
<path d="M30.4278 24.6518C30.3484 24.5724 30.1897 24.4931 30.031 24.5724H29.9516C29.9516 24.5724 29.9516 24.5724 29.8723 24.5724C29.7929 24.6518 29.7135 24.8105 29.7929 24.8899C29.7929 24.9693 29.8723 25.0486 29.8723 25.128C29.9516 25.128 30.031 25.0486 30.1103 25.0486C30.1897 25.0486 30.1897 24.9693 30.2691 24.9693C30.4278 24.8899 30.5072 24.8105 30.5865 24.7312L30.4278 24.6518Z" fill="black" stroke="black"/>
<path d="M7.09445 26.6357C6.14207 26.2389 5.11032 26.6357 4.55477 27.4294C4.2373 27.9056 4.15794 28.5405 4.31667 29.096C4.4754 29.6516 4.87223 30.1278 5.42778 30.2865L12.7294 33.3024C12.9675 33.3818 13.2056 33.4611 13.523 33.4611C13.7611 33.4611 13.9992 33.3818 14.3167 33.3024L23.1262 29.6516L31.0627 26.3976L33.7611 29.096C34.1579 29.4929 34.6341 29.6516 35.1897 29.6516H41.5389C42.0944 29.6516 42.65 29.4135 43.0468 28.9373C43.4437 28.4611 43.6024 27.9056 43.523 27.35C43.4437 26.7944 43.0468 26.2389 42.5706 26.0008C42.3325 26.0802 42.0945 26.0802 41.777 26.1595C41.3802 26.1595 41.0627 26.1595 40.6659 26.1595C40.2691 26.0802 39.8722 25.9214 39.5548 25.7627H36.9357C36.6183 25.9214 36.2214 26.0802 35.8246 26.1595C35.6659 26.1595 35.5071 26.1595 35.3484 26.2389L35.5865 26.477C35.6659 26.5564 35.7452 26.5564 35.904 26.5564H41.5389C42.1738 26.5564 42.7294 26.9532 42.8087 27.5881C42.8881 27.9056 42.7294 28.3024 42.5706 28.5405C42.3325 28.7786 42.0151 28.9373 41.6976 28.9373H35.3484C35.031 28.9373 34.7135 28.7786 34.4754 28.6198L31.9357 26.0802L31.5389 25.6833L31.2214 25.3659C31.1421 25.4452 30.9833 25.5246 30.904 25.604C30.8246 25.6833 30.6659 25.6833 30.5865 25.7627H30.5071C30.3484 25.8421 30.2691 25.9214 30.1103 25.9214L23.2849 28.7786L22.8087 27.8262C22.8087 27.8262 22.8087 27.8262 22.8087 27.7468L22.4913 26.9532L22.1738 26.1595C22.0151 26.1595 21.8564 26.1595 21.6976 26.0802C21.5389 26.0802 21.3802 26.0008 21.2214 25.9214L21.4595 26.477L21.6976 26.9532L21.777 27.1913L22.4913 28.8579L22.5706 29.0167L22.4119 29.096L20.2691 29.9691L19.3167 30.3659L14.0786 32.5881C13.7611 32.7468 13.4437 32.7468 13.2056 32.5881L5.90397 29.5722C5.58651 29.4135 5.34842 29.1754 5.18969 28.8579C5.11032 28.5405 5.11032 28.1437 5.34842 27.8262C5.58651 27.5087 5.98334 27.2706 6.38016 27.2706C6.53889 27.2706 6.69762 27.2706 6.93572 27.35L10.904 29.0167L11.8564 29.4135L13.3643 30.0484L13.6024 30.1278C13.6817 30.2071 13.8405 30.2071 13.9198 30.1278L14.1579 30.0484L15.1103 29.6516L19.1579 27.9849C19.2373 27.9056 19.3167 27.9056 19.396 27.7468C19.4754 27.5881 19.4754 27.5087 19.396 27.4294C19.396 27.35 19.3167 27.2706 19.3167 27.2706C19.3167 27.1119 19.3167 27.0325 19.3167 26.8738C19.3167 26.7151 19.396 26.6357 19.396 26.477C19.5548 26.2389 19.7135 26.0008 20.031 25.9214L20.5865 25.6833C20.4278 25.604 20.3484 25.5246 20.1897 25.4452C20.031 25.3659 19.9516 25.2865 19.7929 25.1278H19.7135C19.2373 25.3659 18.8405 25.6833 18.6024 26.2389C18.6024 26.3183 18.6024 26.3976 18.523 26.477H13.9198L12.4913 25.1278C12.4119 25.2071 12.2532 25.2865 12.1738 25.3659C12.0944 25.4452 11.9357 25.5246 11.8564 25.604L13.3643 27.1119C13.4437 27.1913 13.523 27.1913 13.6817 27.1913H18.3643V27.2706L13.6024 29.2548L11.2214 28.3024L8.99921 26.0802C8.76111 26.0008 8.44365 25.9214 8.20556 25.8421C7.72937 25.6833 7.33254 25.3659 6.93572 25.0484L6.53889 24.731L9.31667 27.5087L7.09445 26.6357Z" fill="#7F7C7C" stroke="#7F7C7C"/>
<path d="M0.586426 25.1277C2.09436 26.5562 4.63404 26.5562 6.14198 25.1277L6.45944 24.8102L6.93563 25.1277C7.33246 25.4451 7.72928 25.7626 8.20547 25.9213C8.44357 26.0007 8.76103 26.08 8.99912 26.1594C9.9515 26.3181 10.9833 26.1594 11.8563 25.6832C11.9356 25.6038 12.0944 25.5245 12.1737 25.4451C12.2531 25.3658 12.4118 25.2864 12.4912 25.207C12.4912 25.207 12.4912 25.207 12.5706 25.207L12.9674 24.8896L13.3642 25.207C14.8721 26.6356 17.4118 26.6356 18.9198 25.207L19.3166 24.8896L19.7134 25.207C19.7928 25.2864 19.9515 25.3658 20.1102 25.5245C20.269 25.6038 20.3483 25.6832 20.5071 25.7626C20.7452 25.9213 20.9833 26.0007 21.3007 26.08C21.4594 26.1594 21.6182 26.1594 21.7769 26.2388C21.9356 26.2388 22.0944 26.2388 22.2531 26.3181C23.3642 26.3975 24.4753 26.08 25.3483 25.2864L25.7452 24.9689L26.142 25.2864C27.2531 26.3181 28.8404 26.6356 30.269 26.1594C30.4277 26.08 30.5864 26.08 30.6658 26.0007H30.7452C30.8245 25.9213 30.9833 25.9213 31.0626 25.8419C31.142 25.7626 31.3007 25.6832 31.3801 25.6038C31.5388 25.5245 31.6182 25.4451 31.7769 25.3658L32.015 25.1277L32.0944 25.0483L32.3325 25.2864L32.4118 25.3658C32.4912 25.4451 32.5706 25.4451 32.5706 25.5245C33.2848 26.1594 34.2372 26.4769 35.1896 26.4769C35.269 26.4769 35.3483 26.4769 35.4277 26.4769C35.5864 26.4769 35.7452 26.4769 35.9039 26.3975C36.3007 26.3181 36.6975 26.1594 37.015 26.0007C37.3325 25.8419 37.6499 25.6038 37.9674 25.3658L38.3642 25.0483L38.761 25.3658C38.9991 25.6038 39.3166 25.8419 39.7134 26.0007C40.1102 26.1594 40.4277 26.3181 40.8245 26.3975C41.142 26.4769 41.5388 26.4769 41.9356 26.3975C42.1737 26.3975 42.4118 26.3181 42.7293 26.2388C43.3642 26.08 43.9198 25.7626 44.3959 25.2864L44.7928 24.9689L45.1896 25.2864C45.9039 26.0007 46.9356 26.3975 47.9674 26.3975C48.9991 26.3975 50.0309 26.0007 50.7452 25.2864V24.5721V24.0165L50.1896 24.4927C48.9991 25.6038 46.8563 25.6038 45.6658 24.4927L45.0309 23.8578C44.8721 23.6991 44.634 23.6991 44.4753 23.8578L43.8404 24.4927C42.5706 25.6832 40.5864 25.6832 39.3166 24.4927L38.6817 23.8578C38.5229 23.6991 38.2848 23.6991 38.1261 23.8578L37.4912 24.4927C37.015 24.9689 36.3801 25.207 35.7452 25.2864C35.5864 25.2864 35.4277 25.3658 35.1896 25.3658C34.9515 25.3658 34.7928 25.3658 34.5547 25.2864C33.9198 25.207 33.3642 24.8896 32.888 24.4927L32.5706 24.1753H32.4912L32.2531 23.9372C32.2531 23.9372 32.2531 23.9372 32.1737 23.9372C32.015 23.8578 31.8563 23.8578 31.6975 23.9372L31.4594 24.1753L31.0626 24.5721C30.9833 24.6515 30.8245 24.7308 30.7452 24.8102C30.6658 24.8896 30.5071 24.9689 30.4277 25.0483C30.3483 25.0483 30.3483 25.1277 30.269 25.1277C30.1896 25.1277 30.1102 25.207 30.0309 25.207C28.9198 25.6038 27.5706 25.3658 26.6182 24.5721L25.9832 23.9372C25.8245 23.7785 25.5864 23.7785 25.4277 23.9372L24.7928 24.5721C23.9991 25.2864 22.888 25.6038 21.9356 25.3658C21.7769 25.3658 21.6182 25.2864 21.4594 25.207C21.3007 25.1277 21.2213 25.1277 21.0626 25.0483C20.9832 25.0483 20.9833 25.0483 20.9039 24.9689C20.8245 24.8896 20.6658 24.8102 20.5864 24.8102C20.5071 24.7308 20.3483 24.6515 20.269 24.5721L19.634 23.9372C19.4753 23.7785 19.2372 23.7785 19.0785 23.9372L18.4436 24.5721C17.1737 25.7626 15.1896 25.7626 13.9198 24.5721L13.2848 23.9372C13.1261 23.7785 12.888 23.7785 12.7293 23.9372L12.0944 24.5721C12.0944 24.5721 12.015 24.5721 12.015 24.6515C11.9356 24.7308 11.7769 24.8102 11.6975 24.8896C11.6182 24.9689 11.4594 25.0483 11.3801 25.1277C10.1896 25.7626 8.6023 25.6038 7.57055 24.6515L6.93563 24.0165C6.93563 24.0165 6.85627 23.9372 6.7769 23.9372C6.61817 23.8578 6.45944 23.9372 6.38008 24.0165L6.06262 24.2546L5.74516 24.5721C4.47531 25.7626 2.49119 25.7626 1.22135 24.5721L0.586426 24.0165V24.5721V25.1277Z" fill="black" stroke="black"/>
</g>
<defs>
<clipPath id="clip0_267_1189">
<rect width="50" height="50" fill="white" transform="translate(0.586426 0.762695)"/>
</clipPath>
</defs>
</svg>
