<svg width="51" height="51" viewBox="0 0 51 51" fill="none" xmlns="http://www.w3.org/2000/svg">
<path d="M19.6659 20.1404C20.3802 20.1404 21.0945 19.9023 21.6501 19.3468C22.7612 18.2357 22.7612 16.4896 21.6501 15.4579C20.6183 14.4261 18.7929 14.4261 17.7612 15.4579C17.2056 16.0134 16.9675 16.6484 16.9675 17.442C16.9675 18.1563 17.285 18.8706 17.7612 19.4261C18.2374 19.823 18.9517 20.1404 19.6659 20.1404ZM18.2374 15.9341C18.6342 15.5373 19.1104 15.3785 19.6659 15.3785C20.2215 15.3785 20.6977 15.6166 21.0945 15.9341C21.8882 16.7277 21.8882 17.9976 21.0945 18.7119C20.3009 19.5055 19.031 19.5055 18.3167 18.7119C17.9199 18.315 17.7612 17.8388 17.7612 17.2833C17.6818 16.8071 17.8405 16.3309 18.2374 15.9341Z" fill="black" stroke="black"/>
<path d="M31.1737 7.99736C31.5706 7.99736 31.9674 7.83863 32.2848 7.52117C32.9198 6.88625 32.9198 5.93386 32.2848 5.29894C31.6499 4.66402 30.6182 4.66402 30.0626 5.29894C29.4277 5.93386 29.4277 6.88625 30.0626 7.52117C30.3007 7.83863 30.6975 7.99736 31.1737 7.99736ZM30.6182 5.8545C30.7769 5.69577 30.9356 5.6164 31.1737 5.6164C31.4118 5.6164 31.5706 5.69577 31.7293 5.8545C32.0467 6.17196 32.0467 6.64815 31.7293 6.96561C31.4118 7.28307 30.9356 7.28307 30.6182 6.96561C30.3007 6.64815 30.3007 6.17196 30.6182 5.8545Z" fill="#FCB019" stroke="black"/>
<path d="M12.7611 21.5686V18.3147C14.3484 18.0766 15.5389 16.4099 15.5389 14.4258C15.5389 12.2036 14.1103 10.4575 12.3643 10.4575C10.6183 10.4575 9.1897 12.2036 9.1897 14.4258C9.1897 16.4099 10.3802 18.0766 11.9675 18.3147V21.5686C12.1262 21.5686 12.2056 21.4893 12.3643 21.4893C12.523 21.4893 12.6024 21.5686 12.7611 21.5686ZM9.98335 14.4258C9.98335 12.6797 11.0151 11.2512 12.3643 11.2512C13.7135 11.2512 14.7453 12.6797 14.7453 14.4258C14.7453 16.1718 13.7135 17.6004 12.3643 17.6004C11.0151 17.6004 9.98335 16.1718 9.98335 14.4258Z" fill="black" stroke="black"/>
<path d="M12.7612 25.6165V25.4578C12.6818 25.4578 12.6818 25.4578 12.6024 25.4578C12.5231 25.4578 12.4437 25.4578 12.3644 25.4578C12.2056 25.4578 12.1263 25.4578 11.9675 25.3784V25.8546V26.6483C11.9675 26.8864 12.1263 27.0451 12.3644 27.0451C12.6024 27.0451 12.7612 26.8864 12.7612 26.6483V25.6165Z" fill="black" stroke="black"/>
<path d="M32.8404 25.4576L27.523 20.1401L36.2531 11.4099C36.65 11.0131 36.8087 10.5369 36.8087 9.98138C36.8087 9.42582 36.5706 8.94963 36.2531 8.5528C35.5389 7.83852 34.1897 7.83852 33.4754 8.5528L16.8881 25.2195L13.7928 22.1242C13.7928 22.1242 13.7135 22.1242 13.7135 22.0449C13.4754 21.8068 13.1579 21.648 12.7611 21.5687C12.6023 21.5687 12.523 21.4893 12.3643 21.4893C12.2055 21.4893 12.1262 21.4893 11.9674 21.5687C11.5706 21.648 11.2531 21.8068 11.015 22.0449C11.015 22.0449 11.015 22.0449 10.9357 22.1242C10.777 22.283 10.6182 22.5211 10.5389 22.7592C10.4595 22.8385 10.4595 22.9972 10.4595 23.0766V23.156C10.4595 23.3147 10.3801 23.3941 10.3801 23.5528C10.3801 23.7115 10.3801 23.7909 10.4595 23.9496V24.029C10.4595 24.1084 10.5389 24.2671 10.5389 24.3465C10.6182 24.5052 10.6976 24.5846 10.777 24.7433L10.8563 24.8226C10.9357 24.902 10.9357 24.902 11.015 24.9814L12.0468 26.0131V25.5369C12.2055 25.5369 12.2849 25.6163 12.4436 25.6163C12.523 25.6163 12.6023 25.6163 12.6817 25.6163C12.7611 25.6163 12.7611 25.6163 12.8404 25.6163C13.6341 25.4576 14.269 24.7433 14.4277 23.9496L16.65 26.1719C16.8087 26.3306 17.0468 26.3306 17.2055 26.1719L33.9516 9.18772C34.4277 8.71153 35.2214 8.71153 35.6182 9.18772C35.8563 9.42582 35.9357 9.74328 35.9357 10.0607C35.9357 10.3782 35.777 10.6957 35.6182 10.9338L26.65 19.902C26.4912 20.0607 26.4912 20.2988 26.65 20.4576L31.9674 25.775L28.0785 29.6639L22.7611 24.3465C22.6817 24.2671 22.523 24.2671 22.4436 24.2671C22.3643 24.2671 22.2055 24.2671 22.1262 24.3465L17.6023 28.8703C17.1262 29.3465 16.4119 29.3465 15.9357 28.8703L12.6817 25.6163V26.7274L15.3801 29.4258C16.1738 30.2195 17.4436 30.2195 18.1579 29.4258L22.3643 25.2195L27.6817 30.5369L28.2373 31.0925V37.3623L23.2373 42.3623C22.4436 43.156 22.4436 44.4258 23.2373 45.1401C23.6341 45.5369 24.1103 45.6957 24.6658 45.6957C25.2214 45.6957 25.6976 45.5369 26.0944 45.1401L31.7293 39.5052C32.1262 39.1084 32.2849 38.6322 32.2849 38.0766V30.9338L32.523 30.6957L36.1738 34.3465V41.4099C36.1738 42.4417 36.8881 43.3147 37.8404 43.4734C38.396 43.5528 39.0309 43.3941 39.4277 42.9972C39.9039 42.6004 40.142 42.0449 40.142 41.4893V33.5528C40.142 32.9972 39.9039 32.5211 39.5865 32.1242L32.8404 25.4576ZM12.7611 24.6639C12.6023 24.7433 12.523 24.7433 12.3643 24.7433C12.2055 24.7433 12.1262 24.7433 11.9674 24.6639C11.7293 24.5846 11.4912 24.4258 11.4119 24.1877C11.4119 24.1084 11.3325 24.1084 11.3325 24.029C11.3325 23.9496 11.2531 23.9496 11.2531 23.8703C11.2531 23.8703 11.2531 23.8703 11.2531 23.7909C11.2531 23.7115 11.2531 23.6322 11.2531 23.5528C11.2531 23.4734 11.2531 23.3941 11.2531 23.3147C11.2531 23.3147 11.2531 23.3147 11.2531 23.2353C11.2531 23.156 11.2531 23.0766 11.3325 23.0766C11.3325 22.9972 11.4119 22.9179 11.4119 22.9179C11.4912 22.8385 11.4912 22.8385 11.5706 22.7592C11.7293 22.6004 11.8087 22.5211 12.0468 22.5211C12.2055 22.4417 12.2849 22.4417 12.4436 22.4417C12.6023 22.4417 12.6817 22.4417 12.8404 22.5211C12.9992 22.6004 13.1579 22.6798 13.3166 22.7592C13.5547 22.9972 13.6341 23.2353 13.6341 23.6322C13.5547 24.029 13.2373 24.5052 12.7611 24.6639ZM39.3484 41.5687C39.3484 41.8861 39.1897 42.283 38.9516 42.4417C38.7135 42.6798 38.3166 42.7592 37.9992 42.6798C37.4436 42.6004 37.0468 42.0449 37.0468 41.4099V34.1877C37.0468 34.1084 36.9674 33.9496 36.9674 33.8703L32.9198 29.8226C32.7611 29.6639 32.523 29.6639 32.3643 29.8226L31.65 30.6163C31.5706 30.6957 31.5706 30.775 31.5706 30.9338V38.2353C31.5706 38.5528 31.4119 38.8703 31.2531 39.1084L25.6182 44.7433C25.142 45.2195 24.4277 45.2195 23.9516 44.7433C23.4754 44.2671 23.4754 43.5528 23.9516 43.0766L29.1103 37.9179C29.1897 37.8385 29.1897 37.7592 29.1897 37.6004V31.0131C29.1897 30.9338 29.1103 30.775 29.1103 30.6957L28.7135 30.2988L32.6023 26.4099L39.0309 32.8385C39.269 33.0766 39.3484 33.3941 39.3484 33.7115V41.5687V41.5687Z" fill="black" stroke="black"/>
</svg>
