<svg width="50" height="51" viewBox="0 0 50 51" fill="none" xmlns="http://www.w3.org/2000/svg">
<path d="M35.9524 12.077C35.4762 11.8389 34.9207 11.8389 34.4445 12.077L22.6985 16.9183L18.6508 18.5849L16.9842 14.5373C16.7461 14.0611 16.4286 13.6643 15.8731 13.4262C15.3969 13.1881 14.8413 13.1881 14.3651 13.4262C13.8889 13.6643 13.4921 13.9818 13.254 14.5373C13.0159 15.0135 13.0159 15.5691 13.254 16.0453L15.7143 21.9183C16.0318 22.7119 16.7461 23.1088 17.5397 23.1088C17.7778 23.1088 18.0159 23.0294 18.3334 22.95L21.5873 21.6008L24.4445 28.5849L25.0794 30.0135L23.0953 34.7754L16.6667 37.5532C15.7143 37.95 15.1588 39.0611 15.4762 40.0135C15.635 40.5691 16.0318 40.9659 16.508 41.204C16.7461 41.3627 17.0635 41.3627 17.381 41.3627C17.6191 41.3627 17.9365 41.2834 18.1746 41.204L25.3969 38.1881C25.8731 37.95 26.2699 37.6326 26.508 37.077L27.6985 34.1405L28.5715 36.2834L25.8731 42.95C25.635 43.4262 25.635 43.9818 25.8731 44.458C26.1112 44.9342 26.4286 45.331 26.9842 45.5691C27.2223 45.6484 27.4604 45.7278 27.7778 45.7278C28.0159 45.7278 28.254 45.6484 28.4921 45.5691C28.9683 45.331 29.3651 45.0135 29.6032 44.458L32.6191 37.1564C32.8572 36.6802 32.8572 36.1246 32.6191 35.6484L29.8413 28.9818C30.0794 28.1881 30 27.3151 29.6826 26.5215L26.8254 19.5373L36.0318 15.7278C36.508 15.4897 36.9048 15.1722 37.1429 14.6167C37.381 14.1405 37.381 13.5849 37.1429 13.1088C36.8254 12.7119 36.4286 12.3151 35.9524 12.077ZM31.8254 36.8389L28.8096 44.1405C28.6508 44.458 28.4921 44.6961 28.1746 44.7754C27.8572 44.9342 27.5397 44.8548 27.3016 44.7754C26.9842 44.6167 26.7461 44.458 26.6667 44.1405C26.508 43.823 26.5873 43.5056 26.6667 43.2675L29.4445 36.5215C29.5238 36.4421 29.5238 36.2834 29.4445 36.204L28.1746 33.1881L29.4445 30.0929L31.8254 35.9659C31.9842 36.204 31.9842 36.5215 31.8254 36.8389ZM25.7937 36.8389C25.635 37.1564 25.4762 37.3945 25.1588 37.4738L17.7778 40.5691C17.4604 40.7278 17.1429 40.7278 16.8254 40.5691C16.508 40.4103 16.2699 40.1722 16.1905 39.8548C16.0318 39.2992 16.3492 38.6643 16.9842 38.3469L23.6508 35.5691C23.7302 35.4897 23.8096 35.4897 23.8889 35.331L26.0318 30.2516C26.1112 30.1722 26.0318 29.9342 25.9524 29.8548L25.3969 28.7437L25.7937 28.5849L26.2699 28.3468L27.2223 27.95L28.1746 27.5532L28.6508 27.3151L28.9683 27.1564C29.0477 27.3151 29.0477 27.4738 29.0477 27.6326C29.0477 27.8707 29.0477 28.1088 29.0477 28.3468C29.0477 28.5849 28.9683 28.823 28.8889 28.9818C28.8889 29.0611 28.8889 29.0611 28.8096 29.1405L27.6191 32.077L27.381 32.6326L27.1429 33.1881L25.7937 36.8389ZM26.9842 27.2357L25.1588 28.0294L22.4604 21.4421L23.5715 20.9659C23.6508 20.9659 23.7302 20.8865 23.7302 20.8072C23.8096 20.7278 23.8096 20.5691 23.7302 20.4897C23.7302 20.4897 23.7302 20.4897 23.7302 20.4103C23.6508 20.2516 23.4921 20.1722 23.3334 20.2516H23.254L23.0159 20.331L22.5397 20.5691L22.1429 20.7278L21.7461 20.8865L21.3492 21.0453L18.0159 22.3151C17.6985 22.3945 17.4604 22.3945 17.1429 22.3151C16.8254 22.1564 16.5873 21.9976 16.508 21.6802L14.0477 15.8072C13.8889 15.4897 13.8889 15.1722 14.0477 14.9342C14.2064 14.6167 14.3651 14.3786 14.6826 14.2992C15 14.1405 15.3175 14.1405 15.5556 14.2992C15.8731 14.458 16.1112 14.6167 16.1905 14.9342L18.0159 19.2992C18.0953 19.3786 18.0953 19.458 18.254 19.5373C18.3334 19.6167 18.4921 19.6167 18.5715 19.5373L21.1905 18.4262L21.508 18.2675L21.7461 18.1881L21.9842 18.1088L22.8572 17.7119C22.8572 17.7119 22.9365 17.7119 22.9365 17.6326C23.9683 17.2357 25.0794 17.7119 25.5556 18.7437L25.7143 19.1405L25.8731 19.5373L26.0318 19.9342L28.7302 26.5215L26.9842 27.2357ZM26.3492 18.5056C26.0318 17.7913 25.4762 17.2357 24.8413 16.9976L34.7619 12.8707C34.9207 12.7913 35.0794 12.7913 35.2381 12.7913C35.3969 12.7913 35.5556 12.7913 35.7143 12.8707C36.0318 13.0294 36.2699 13.1881 36.3492 13.5056C36.5873 14.1405 36.3492 14.7754 35.7143 15.0929L26.508 18.9024L26.3492 18.5056Z" fill="black" stroke="black"/>
<path d="M20.2382 16.2042C20.5557 16.363 20.9525 16.4423 21.27 16.4423C21.6668 16.4423 21.9843 16.363 22.3017 16.2042C23.016 15.8868 23.4922 15.4106 23.8097 14.6963C24.1271 13.982 24.1271 13.2677 23.8097 12.5534C23.2541 11.1249 21.5874 10.49 20.1589 11.0455C19.4446 11.363 18.9684 11.8392 18.6509 12.5534C18.3335 13.2677 18.3335 13.982 18.6509 14.6963C19.0478 15.4106 19.6033 15.9661 20.2382 16.2042ZM19.524 12.8709C19.762 12.3947 20.0795 11.9979 20.6351 11.7598C20.8732 11.6804 21.1113 11.6011 21.4287 11.6011C22.2224 11.6011 22.9367 12.0773 23.2541 12.7915C23.4922 13.2677 23.4922 13.8233 23.2541 14.2995C23.016 14.7757 22.6986 15.1725 22.143 15.4106C21.6668 15.6487 21.1113 15.6487 20.6351 15.4106C20.1589 15.1725 19.762 14.855 19.524 14.2995C19.2859 13.7439 19.2859 13.4265 19.524 12.8709Z" fill="black" stroke="black"/>
<path d="M26.9841 10.8072C27.6983 10.8072 28.4126 10.4897 28.9682 10.0135C29.5237 9.53736 29.7618 8.82307 29.7618 8.02942C29.7618 7.31514 29.4444 6.60085 28.9682 6.04529C27.9364 5.01355 26.111 5.01355 25.0793 6.04529C24.5237 6.60085 24.2856 7.23577 24.2856 8.02942C24.2856 8.74371 24.6031 9.45799 25.0793 10.0135C25.5555 10.5691 26.1904 10.8072 26.9841 10.8072ZM25.5555 6.68021C25.9523 6.28339 26.4285 6.12466 26.9841 6.12466C27.5396 6.12466 28.0158 6.36275 28.4126 6.68021C28.8095 7.07704 28.9682 7.55323 28.9682 8.10879C28.9682 8.66434 28.7301 9.14053 28.4126 9.53736C27.6983 10.2516 26.3491 10.2516 25.6349 9.53736C25.238 9.14053 25.0793 8.66434 25.0793 8.10879C24.9999 7.55323 25.1587 6.99767 25.5555 6.68021Z" fill="black" stroke="black"/>
</svg>
