<svg width="50" height="51" viewBox="0 0 50 51" fill="none" xmlns="http://www.w3.org/2000/svg">
<path d="M25.1589 16.4262C26.6668 16.4262 27.9367 15.1563 27.9367 13.6484C27.9367 12.1404 26.6668 10.8706 25.1589 10.8706C23.6509 10.8706 22.3811 12.0611 22.3811 13.6484C22.3811 15.2357 23.6509 16.4262 25.1589 16.4262ZM27.143 13.6484C27.143 14.7595 26.27 15.6325 25.1589 15.6325C24.0478 15.6325 23.1748 14.7595 23.1748 13.6484C23.1748 12.5373 24.0478 11.6643 25.1589 11.6643C26.27 11.6643 27.143 12.5373 27.143 13.6484Z" fill="black" stroke="black"/>
<path d="M22.6193 18.0133H27.6986C27.778 18.0133 27.9367 17.9339 28.0161 17.9339L35.3177 10.6323H34.7621H34.1272L27.5399 17.2196H22.8574L16.2701 10.6323H15.7145H15.0796L22.3812 17.9339C22.4605 17.9339 22.5399 18.0133 22.6193 18.0133Z" fill="black" stroke="black"/>
<path d="M2.93662 9.75928C2.69853 9.75928 2.53979 9.91801 2.53979 10.1561C2.53979 10.3942 2.69853 10.5529 2.93662 10.5529H4.1271V9.75928H2.93662Z" fill="black" stroke="black"/>
<path d="M11.1113 9.75928H8.1748V10.5529H11.1113C11.1113 10.3942 11.0319 10.3148 11.0319 10.1561C11.0319 10.0767 11.0319 9.91801 11.1113 9.75928Z" fill="black" stroke="black"/>
<path d="M39.2859 9.75928C39.2859 9.91801 39.3653 9.99737 39.3653 10.1561C39.3653 10.3148 39.3653 10.3942 39.2859 10.5529H42.2224V9.75928H39.2859Z" fill="black" stroke="black"/>
<path d="M47.3812 9.75928H46.1907V10.5529H47.3812C47.6192 10.5529 47.778 10.3942 47.778 10.1561C47.778 9.91801 47.6192 9.75928 47.3812 9.75928Z" fill="black" stroke="black"/>
<path d="M15 9.91823C15 9.9976 15 10.077 15 10.2357C15 10.3151 15 10.3944 15 10.4738C15 10.5532 15 10.5532 15 10.6325H15.0794H15.6349H16.1905H34.127H34.6826H35.2381H35.3968C35.3968 10.5532 35.3968 10.5532 35.3968 10.4738C35.3968 10.3944 35.3968 10.3151 35.3968 10.2357C35.3968 10.1563 35.3968 10.077 35.3968 9.91823V9.83887H34.9207H15.3968H14.9207C15 9.83887 15 9.83887 15 9.91823Z" fill="black" stroke="black"/>
<path d="M46.1907 6.98169C46.1907 6.74359 46.0319 6.58486 45.7938 6.58486H44.6034V5.39438C44.6034 5.15629 44.4446 4.99756 44.2065 4.99756H42.6192C42.3811 4.99756 42.2224 5.15629 42.2224 5.39438V9.75946V10.5531V14.9182C42.2224 15.1563 42.3811 15.315 42.6192 15.315H44.2065C44.4446 15.315 44.6034 15.1563 44.6034 14.9182V13.7277H45.7938C46.0319 13.7277 46.1907 13.569 46.1907 13.3309V10.5531V9.75946V6.98169ZM45.397 9.75946V10.5531V12.9341H44.6034V10.5531V9.75946V7.37851H45.397V9.75946ZM43.8097 13.3309V14.5214H43.0161V10.5531V9.75946V5.79121H43.8097V6.98169V9.75946V10.5531V13.3309Z" fill="black" stroke="black"/>
<path d="M8.09545 5.39438C8.09545 5.15629 7.93672 4.99756 7.69863 4.99756H6.11132C5.87323 4.99756 5.7145 5.15629 5.7145 5.39438V6.58486H4.52402C4.28593 6.58486 4.1272 6.74359 4.1272 6.98169V9.75946V10.5531V13.3309C4.1272 13.569 4.28593 13.7277 4.52402 13.7277H5.7145V14.9182C5.7145 15.1563 5.87323 15.315 6.11132 15.315H7.69863C7.93672 15.315 8.09545 15.1563 8.09545 14.9182V10.5531V9.75946V5.39438ZM7.3018 9.75946V10.5531V14.5214H6.50815V13.3309V10.5531V9.75946V6.98169V5.79121H7.3018V9.75946ZM4.92085 10.5531V9.75946V7.37851H5.7145V9.75946V10.5531V12.9341H4.92085V10.5531Z" fill="black" stroke="black"/>
<path d="M39.2857 9.75931C39.2064 9.36248 39.0476 9.04502 38.7302 8.72756C37.9365 7.93391 36.6667 7.93391 35.9524 8.72756L34.9206 9.75931H35.3968V9.83867C35.3968 9.91804 35.3968 9.9974 35.3968 10.1561C35.3968 10.2355 35.3968 10.3149 35.3968 10.3942C35.3968 10.4736 35.3968 10.4736 35.3968 10.553C35.4762 10.9498 35.6349 11.2672 35.9524 11.5847C36.2699 11.9022 36.6667 12.0609 37.0635 12.1403L28.0953 21.1085C28.0159 21.1879 28.0159 21.2672 28.0159 21.426V28.3307H22.4603V21.426C22.4603 21.3466 22.381 21.1879 22.381 21.1085L13.254 12.1403C13.6508 12.0609 14.0476 11.9022 14.3651 11.5847C14.6826 11.2672 14.8413 10.9498 14.9206 10.553C14.9206 10.4736 14.9206 10.4736 14.9206 10.3942C14.9206 10.3149 14.9206 10.2355 14.9206 10.1561C14.9206 10.0768 14.9206 9.9974 14.9206 9.83867V9.75931H15.3968L14.3651 8.72756C13.5714 7.93391 12.3016 7.93391 11.5873 8.72756C11.2699 9.04502 11.1111 9.36248 11.0318 9.75931C11.0318 9.91804 10.9524 9.9974 10.9524 10.1561C10.9524 10.3149 10.9524 10.3942 11.0318 10.553C11.0318 10.7117 11.1111 10.8704 11.1905 11.0291C11.2699 11.1879 11.4286 11.426 11.5873 11.5847L21.5873 21.5847V28.7276V29.918L15.6349 44.2038C15.2381 45.2355 15.7143 46.3466 16.746 46.8228C16.9841 46.9022 17.2222 46.9815 17.4603 46.9815C17.6984 46.9815 18.0159 46.9022 18.254 46.8228C18.7302 46.5847 19.127 46.2672 19.2857 45.7117L24.8413 32.299H25.3968L30.9524 45.7117C31.1905 46.1879 31.5079 46.5847 31.9841 46.8228C32.4603 47.0609 33.0159 47.0609 33.4921 46.8228C34.5238 46.426 35 45.2355 34.5238 44.2038L28.5714 29.918V28.7276V21.5847L38.5714 11.5847C38.7302 11.426 38.8889 11.2672 38.9683 11.0291C39.0476 10.8704 39.127 10.7117 39.127 10.553C39.127 10.3942 39.2064 10.3149 39.2064 10.1561C39.2857 10.0768 39.2857 9.91804 39.2857 9.75931ZM36.508 11.0291C36.3492 10.8704 36.2699 10.7117 36.2699 10.553C36.1905 10.3942 36.1905 10.3149 36.1905 10.1561C36.1905 9.9974 36.1905 9.91804 36.2699 9.75931C36.3492 9.60058 36.4286 9.44185 36.508 9.28312C36.5873 9.20375 36.746 9.12439 36.8254 9.04502C36.9048 9.04502 36.9048 9.04502 36.9841 8.96566C37.0635 8.96566 37.1429 8.96566 37.2222 8.88629C37.381 8.88629 37.5397 8.88629 37.6984 8.96566C37.8572 9.04502 38.0159 9.12439 38.1746 9.20375C38.254 9.28312 38.254 9.36248 38.3333 9.44185C38.4127 9.52121 38.4127 9.60058 38.4127 9.67994C38.4921 9.83867 38.4921 9.91804 38.4921 10.0768C38.4921 10.2355 38.4921 10.3149 38.4127 10.4736V10.553C38.3333 10.7117 38.254 10.7911 38.1746 10.9498C37.6984 11.5053 36.9841 11.5053 36.508 11.0291ZM32.381 46.0291C32.0635 45.8704 31.8254 45.7117 31.746 45.3942L26.0318 31.7434C25.9524 31.5847 25.7937 31.5053 25.6349 31.5053H24.6032C24.4445 31.5053 24.2857 31.5847 24.2064 31.7434L18.5714 45.3942C18.4127 45.7117 18.254 45.9498 17.9365 46.0291C17.6191 46.1879 17.3016 46.1879 17.0635 46.0291C16.4286 45.7911 16.1905 45.0768 16.4286 44.4418L22.381 30.0768C22.381 29.9974 22.381 29.9974 22.381 29.918V29.045H27.9365V29.918C27.9365 29.9974 27.9365 29.9974 27.9365 30.0768L33.8889 44.4418C34.127 45.0768 33.8889 45.7117 33.254 46.0291C33.0159 46.1879 32.6984 46.1879 32.381 46.0291ZM13.8889 11.0291C13.4127 11.5053 12.6191 11.5053 12.2222 11.0291C12.1429 10.9498 11.9841 10.7911 11.9841 10.6323C11.9841 10.6323 11.9841 10.6323 11.9841 10.553C11.9048 10.3942 11.9048 10.3149 11.9048 10.1561C11.9048 9.9974 11.9048 9.91804 11.9841 9.75931C11.9841 9.67994 12.0635 9.60058 12.1429 9.52121C12.2222 9.44185 12.2222 9.36248 12.3016 9.36248C12.381 9.28312 12.5397 9.12439 12.6984 9.12439C12.8572 9.04502 13.0159 9.04502 13.1746 9.04502C13.3333 9.04502 13.4921 9.04502 13.6508 9.12439C13.8095 9.20375 13.8889 9.28312 14.0476 9.36248C14.2064 9.52121 14.2857 9.67994 14.2857 9.83867C14.3651 9.9974 14.3651 10.0768 14.3651 10.2355C14.3651 10.3942 14.3651 10.4736 14.2857 10.6323C14.0476 10.7117 13.9683 10.8704 13.8889 11.0291Z" fill="black" stroke="black"/>
</svg>
